<?xml version="1.0" encoding="utf-8"?>
<!-- Generator: Adobe Illustrator 26.0.1, SVG Export Plug-In . SVG Version: 6.00 Build 0)  -->
<svg version="1.1" id="Layer_1" xmlns="http://www.w3.org/2000/svg" xmlns:xlink="http://www.w3.org/1999/xlink" x="0px" y="0px"
	 viewBox="0 0 226 215.2" style="enable-background:new 0 0 226 215.2;" xml:space="preserve">
<style type="text/css">
	.st0{clip-path:url(#SVGID_00000011749213551788493280000018359401016471605634_);}
	.st1{opacity:0.2;fill:#036DF9;enable-background:new    ;}
	.st2{fill:#036DF9;}
	.st3{fill:none;stroke:#036DF9;stroke-width:0.54;stroke-miterlimit:10;}
	.st4{fill:none;stroke:#FFFFFF;stroke-width:0.49;stroke-miterlimit:10;}
	.st5{fill:#FFFFFF;}
	.st6{fill:none;stroke:#FFFFFF;stroke-width:0.32;stroke-miterlimit:10;}
	.st7{fill:#99FAFF;}
	.st8{fill:#772AC3;}
	.st9{fill:#01056A;}
	.st10{fill:#FF83A8;}
	.st11{fill:#E23875;}
	.st12{clip-path:url(#SVGID_00000001622225361548296470000008302837963366597546_);}
	.st13{clip-path:url(#SVGID_00000047036331107879437050000003177511719321219228_);}
	.st14{fill:#8E0D42;}
	.st15{clip-path:url(#SVGID_00000080179847599347425020000002401280108157842621_);}
	.st16{clip-path:url(#SVGID_00000052794043080436154140000007058864308276152228_);}
	.st17{clip-path:url(#SVGID_00000093144130686893598860000001842962567683109268_);}
	.st18{clip-path:url(#SVGID_00000059995856072455700600000008077877900783146905_);}
	.st19{fill:none;stroke:#772AC3;stroke-width:0.28;stroke-miterlimit:10;}
	.st20{opacity:0.5;fill:#E23875;enable-background:new    ;}
	.st21{fill:none;stroke:#E23875;stroke-width:0.65;stroke-linecap:round;stroke-miterlimit:10;}
	.st22{fill:none;stroke:url(#SVGID_00000180368168832991193050000011855590061422275237_);stroke-width:2;stroke-miterlimit:10;}
</style>
<g id="Layer_2_00000059279802933350581840000004318119100243815838_">
	<g id="Layer_3">
		<g>
			<defs>
				<path id="SVGID_1_" d="M205.6,1H21.4C10.2,1,1,13.3,1,28.6v159.1c0,15.2,9.2,27.6,20.4,27.6h184.1c11.3,0,20.4-12.3,20.4-27.6
					V28.6C226,13.3,216.8,1,205.6,1z"/>
			</defs>
			<clipPath id="SVGID_00000031169936992484944570000014525605888432661420_">
				<use xlink:href="#SVGID_1_"  style="overflow:visible;"/>
			</clipPath>
			<g style="clip-path:url(#SVGID_00000031169936992484944570000014525605888432661420_);">
				<path class="st1" d="M159.6,179.3l36.7-12.5c4.5-1.5,5.9-10.5,2.5-15.2l-12.4-17c-3.5-4.8-8.3-6.8-12.8-5.2l-36.7,12.5
					c-4.5,1.5-5.9,10.5-2.5,15.2l12.4,17C150.3,178.9,155,180.9,159.6,179.3z"/>
				<path class="st1" d="M167.8,155l36.7-12.6c4.5-1.5,5.9-10.5,2.5-15.2l-12.4-17c-3.5-4.8-8.3-6.8-12.8-5.2l-36.7,12.5
					c-4.5,1.5-5.9,10.5-2.5,15.2l12.4,17C158.5,154.6,163.3,156.5,167.8,155z"/>
				<path class="st1" d="M63.8,255l36.7-12.5c4.5-1.5,5.9-10.5,2.5-15.2l-12.4-17c-3.5-4.8-8.3-6.8-12.8-5.2L41,217.6
					c-4.5,1.5-5.9,10.5-2.5,15.2l12.4,17C54.5,254.6,59.3,256.6,63.8,255z"/>
				<path class="st1" d="M72.1,230.7l36.7-12.5c4.5-1.5,5.9-10.5,2.5-15.2l-12.4-17c-3.5-4.8-8.3-6.8-12.8-5.2l-36.7,12.5
					c-4.5,1.5-5.9,10.5-2.5,15.2l12.4,17C62.7,230.3,67.5,232.2,72.1,230.7z"/>
				<path class="st2" d="M56.3,55.2l21.8-7.5c0.8-0.5,1.1-1.7,0.7-2.7c0,0,0-0.1,0-0.1l0,0c-0.2-0.5-0.7-0.8-1.1-0.7l-21.8,7.4
					c-0.8,0.5-1.1,1.7-0.7,2.7c0,0,0,0,0,0.1l0,0C55.4,55,55.9,55.3,56.3,55.2z"/>
				<path class="st2" d="M71.5,56.1l7.5-2.6c0.8-0.5,1.1-1.7,0.7-2.7c0,0,0-0.1,0-0.1l0,0c-0.2-0.5-0.7-0.8-1.1-0.7L71,52.7
					c-0.8,0.5-1.1,1.7-0.7,2.7c0,0,0,0.1,0,0.1l0,0C70.6,56,71,56.2,71.5,56.1z"/>
				<path class="st2" d="M169.5,166.6l10.7-3.7c0.9-0.5,1.4-1.7,1.2-2.9l0,0c-0.2-1.3-1-2.2-1.8-1.9l-10.7,3.7
					c-0.9,0.5-1.4,1.7-1.2,2.9l0,0C167.9,166,168.7,166.9,169.5,166.6z"/>
				<path class="st3" d="M169,164.3l-11.6-12.4c-0.3-0.4-0.8-0.5-1.2-0.4l-5.8,2"/>
				<path class="st3" d="M146.7,154.8c-0.4-3.1,0.8-6.2,2.8-6.9c2-0.7,3.9,1.3,4.4,4.5c0.4,3.1-0.8,6.2-2.8,6.9
					S147.1,157.9,146.7,154.8z"/>
				<path class="st2" d="M148.6,154.1c-0.3-1.3,0.3-2.7,1.3-3.3c1-0.3,1.9,0.6,2.1,2.1c0.3,1.3-0.3,2.7-1.3,3.3
					C149.7,156.7,148.8,155.6,148.6,154.1z"/>
				<path class="st2" d="M65.7,101.8L65.7,101.8c0.5-0.2,0.7-0.8,0.6-1.4l-3.4-24.6c-0.1-0.6-0.5-1.1-0.9-0.9l0,0
					c-0.5,0.2-0.7,0.8-0.6,1.4l3.4,24.5C64.9,101.5,65.3,101.9,65.7,101.8z"/>
				<path class="st2" d="M62.4,102.9L62.4,102.9c0.5-0.2,0.7-0.8,0.6-1.4l-1.4-10.4c-0.1-0.7-0.5-1.1-0.9-0.9l0,0
					c-0.5,0.2-0.7,0.8-0.6,1.4l1.4,10.4C61.6,102.6,62,103,62.4,102.9z"/>
				<path class="st2" d="M59.3,103.9L59.3,103.9c0.5-0.2,0.7-0.8,0.6-1.4l-2-14.7c-0.1-0.7-0.5-1.1-0.9-0.9l0,0
					c-0.5,0.2-0.7,0.8-0.6,1.4l2,14.7C58.5,103.7,58.9,104.1,59.3,103.9z"/>
				<path class="st2" d="M160.9,25.1c6.2-2.1,12.3,0.6,16.8,6.6c-4-4.5-9-6.4-14.2-4.6c-9.7,3.3-15.9,18.5-13.8,33.8
					c2.1,15.4,11.7,25.1,21.4,21.8c5.2-1.8,9.3-6.8,11.8-13.5c-2.6,8.3-7.4,14.9-13.6,17c-10.6,3.6-21.1-7.1-23.4-23.9
					C143.4,45.4,150.2,28.7,160.9,25.1z"/>
				<path class="st2" d="M158.4,13.1l3.7-1.2c0.3-0.1,0.5,0.3,0.4,0.7l-1.3,4.4c-0.1,0.3-0.3,0.4-0.5,0.2l-2.4-3.2
					c-0.2-0.2-0.2-0.6,0-0.8C158.3,13.2,158.3,13.1,158.4,13.1z"/>
				<path class="st2" d="M173.8,97.7l-3.7,1.2c-0.3,0.1-0.5-0.3-0.4-0.7l1.3-4.4c0.1-0.3,0.3-0.4,0.5-0.2l2.3,3.2
					c0.2,0.2,0.2,0.6,0,0.8C173.9,97.7,173.8,97.7,173.8,97.7z"/>
				<ellipse class="st4" cx="165.6" cy="55.1" rx="22.8" ry="36.1"/>
				<path class="st5" d="M95.1,63l-7.6,10c0,0-3.4-8.1-1.8-15.7C85.6,57.2,90.7,56.1,95.1,63z"/>
				<path class="st2" d="M93.4,65.2L89,70.9c0,0-2-4.6-1-9C88,61.8,90.9,61.2,93.4,65.2z"/>
				<path class="st5" d="M110.5,61.1h-9.9c0,0,0.6-9.7,4.9-14C105.6,47.2,109.9,51.3,110.5,61.1z"/>
				<path class="st2" d="M108.5,61.1h-5.7c0,0,0.3-5.5,2.8-8C105.6,53.1,108.1,55.5,108.5,61.1z"/>
				<path class="st2" d="M97.1,138.7l0.6-1.7c-10.9-10.1-16.5-20-16.2-28.5c0.3-8.8,6.6-13.5,6.7-13.6l-0.5-1.8
					c-0.3,0.2-7,5.3-7.4,15.2C79.9,117.9,85.6,128.1,97.1,138.7z"/>
				<path class="st2" d="M91.7,140.5l0.4-1.2c-12.5-10.1-18.7-19.9-18.3-29c0.5-11.9,12.3-18.7,12.4-18.8l-0.3-1.2
					c-2.3,1.4-4.3,3.1-6.2,5c-4.2,4.4-6.5,9.5-6.7,14.8C72.6,119.8,78.9,130,91.7,140.5z"/>
				<path class="st2" d="M51.2,196.1c0.1,10.9,26.9,19.1,59.8,18.5s59.6-10,59.5-20.8s-26.9-19.2-59.8-18.5
					C77.8,175.9,51.1,185.2,51.2,196.1z"/>
				
					<ellipse transform="matrix(0.9998 -2.093445e-02 2.093445e-02 0.9998 -3.9939 2.3622)" class="st6" cx="110.8" cy="191.9" rx="68.7" ry="22.6"/>
				
					<ellipse transform="matrix(0.9998 -2.093450e-02 2.093450e-02 0.9998 -4.0782 2.3727)" class="st7" cx="111.3" cy="196" rx="51.5" ry="17"/>
				<path class="st8" d="M85.7,211.2c2.7-9.7,8.7-18.4,18.8-21.3c13.5-3.9,26.2,8,27.8,21.2C116.3,214,99.3,213.4,85.7,211.2z"/>
				<path class="st9" d="M111.5,211.8h-0.4c-8,0.8-14.8-8.7-15.3-20.8l-0.2-4.8l29.1-2.9l0.2,4.8
					C125.5,200.3,119.4,210.9,111.5,211.8z"/>
				<path class="st10" d="M113.6,209.7h-0.3c-7.4,0.7-13.8-8.4-14.2-20.1l-0.2-4.6l27.1-2.7l0.2,4.6
					C126.6,198.6,121,208.8,113.6,209.7z"/>
				<path class="st11" d="M113.3,202.4H113c-7.1,0.9-13.4-5.2-14.2-13.5c0-0.2,0-0.4,0-0.6l-0.1-3.3l27.5-2.8l0.1,3.3
					C126.6,194,120.8,201.6,113.3,202.4z"/>
				<path class="st5" d="M92,190.4c2-5.4,5.8-7.8,3.7-13.1L88,157.8c-3.1-7-1.3-16.9,3.8-20l32.5-18.3c7.4-4.6,4.6,19.8,4.6,19.8
					l2.6,14.8c1,5.4,0.6,11-0.9,16.2l0,0c-1.1,3.8-1.6,7.7-1.4,11.7l1.6,9.5C117.4,201.8,101.1,203.6,92,190.4z"/>
				<g>
					<defs>
						<path id="SVGID_00000143579240026166559520000015900288074771179438_" d="M92,190.4c2-5.4,5.8-7.8,3.7-13.1L88,157.8
							c-3.1-7-1.3-16.9,3.8-20l32.5-18.3c7.4-4.6,4.6,19.8,4.6,19.8l2.6,14.8c1,5.4,0.6,11-0.9,16.2l0,0c-1.1,3.8-1.6,7.7-1.4,11.7
							l1.6,9.5C117.4,201.8,101.1,203.6,92,190.4z"/>
					</defs>
					<clipPath id="SVGID_00000047771478049705691710000000417711481211062456_">
						<use xlink:href="#SVGID_00000143579240026166559520000015900288074771179438_"  style="overflow:visible;"/>
					</clipPath>
					<g style="clip-path:url(#SVGID_00000047771478049705691710000000417711481211062456_);">
						<path class="st10" d="M98.9,133.2c1.4,12.6,6.9,21.6,12.2,20.1c5.3-1.5,8.4-13,6.9-25.6c-1.4-12.6-6.9-21.6-12.2-20.1
							C100.5,109.2,97.4,120.6,98.9,133.2z"/>
						<ellipse class="st11" cx="90.4" cy="163.1" rx="10.5" ry="16.6"/>
						<path class="st11" d="M121.8,138.5c2.3,8.4,8.5,12.3,13.8,8.7c5.3-3.6,7.8-13.4,5.5-21.8s-8.4-12.3-13.8-8.7
							C122,120.4,119.5,130.1,121.8,138.5z"/>
					</g>
				</g>
				<path class="st10" d="M132.7,138.9l17.2-27.2c2.8-4.8,2.8-11.1,0-16l0,0c-2.8-4.4-7.3-4.4-10,0L122.7,123
					c-2.8,4.8-2.8,11.1,0,16l0,0C125.4,143.3,129.9,143.3,132.7,138.9z"/>
				<path class="st8" d="M148.1,116.3l1.9-2.9c3.1-5.3,3.1-12.3,0-17.6l0,0c-3.1-4.9-8-4.9-11.1,0l-1.9,2.9
					c-3.1,5.3-3.1,12.3,0,17.6l0,0C140,121.1,145,121.1,148.1,116.3z"/>
				<path class="st10" d="M81.4,194.2l14.8-30.6c2.4-4.9,1.8-12-1.3-15.8l0,0c-3.1-3.8-7.6-2.9-10,2.1l-14.8,30.5
					c-2.4,4.9-1.8,12,1.3,15.8l0,0C74.6,200.1,79,199.1,81.4,194.2z"/>
				<path class="st10" d="M77.8,192.8L77.8,192.8c-2.6,3.8-6.7,3.5-9.1-0.7l-12.5-21.8c-2.4-4.4-2.2-10.2,0.5-14.4l0,0
					c2.6-3.8,6.7-3.5,9.1,0.7l12.5,21.8C80.6,182.8,80.5,188.6,77.8,192.8z"/>
				<path class="st11" d="M67.4,177.9c1.3,0.1,2.4-1.5,2.5-3.6s-0.9-3.8-2.3-4c-1.3-0.1-2.4,1.5-2.5,3.6
					C65.1,176.1,66.1,177.8,67.4,177.9z"/>
				<path class="st10" d="M67.1,173.1l-0.7-1.2c0-0.1-0.1-0.1-0.2,0c0,0,0,0,0,0l0,0c-0.1,0.1-0.1,0.2,0,0.3l0.7,1.2
					c0,0.1,0.1,0.1,0.2,0c0,0,0,0,0,0l0,0C67.2,173.3,67.2,173.1,67.1,173.1z"/>
				<path class="st10" d="M67,175.2l-0.8,1.1c0,0.1-0.1,0.1-0.2,0c0,0,0,0,0,0l0,0c-0.1-0.1-0.1-0.2,0-0.3l0.7-1.1
					c0-0.1,0.1-0.1,0.2,0c0,0,0,0,0,0l0,0C67.1,175,67.1,175.2,67,175.2z"/>
				<path class="st10" d="M68.1,173.1l0.7-1.1c0-0.1,0.1-0.1,0.2,0c0,0,0,0,0,0l0,0c0.1,0.1,0.1,0.2,0,0.3l-0.8,1.1
					c0,0.1-0.1,0.1-0.2,0c0,0,0,0,0,0l0,0C68,173.4,68.1,173.2,68.1,173.1z"/>
				<path class="st10" d="M68,175.3l0.7,1.2c0,0.1,0.1,0.1,0.2,0c0,0,0,0,0,0l0,0c0.1-0.1,0.1-0.2,0-0.3l-0.7-1.2
					c0-0.1-0.1-0.1-0.2,0c0,0,0,0,0,0l0,0C68,175.1,68,175.2,68,175.3z"/>
				<path class="st11" d="M112.6,103.2c1.3,11.3-12.1,23.1-19.8,17.7c-9.5-23-4.8-46.3,11-51.7C110.9,66.7,111.3,91.9,112.6,103.2z"
					/>
				<path class="st11" d="M121.6,90.4c0.9,4.8-0.7,9.7-3.6,11c-2.9,1.3-5.9-1.4-6.8-6.2c-0.9-4.7,0.7-9.7,3.6-11
					C117.7,82.9,120.8,85.6,121.6,90.4z"/>
				<path class="st10" d="M102,137.2l-1.4-18.9l11.1-2.1l1.4,18.9c0.4,4.9-1.8,9.3-4.9,9.9l0,0C105.2,145.6,102.4,142.1,102,137.2z"
					/>
				<g>
					<defs>
						<path id="SVGID_00000000916913354824379300000014689762531129412517_" d="M102,137.2l-1.4-18.9l11.1-2.1l1.4,18.9
							c0.4,4.9-1.8,9.3-4.9,9.9l0,0C105.2,145.6,102.4,142.1,102,137.2z"/>
					</defs>
					<clipPath id="SVGID_00000180335365700535134910000016904925432368469915_">
						<use xlink:href="#SVGID_00000000916913354824379300000014689762531129412517_"  style="overflow:visible;"/>
					</clipPath>
					<g style="clip-path:url(#SVGID_00000180335365700535134910000016904925432368469915_);">
						<path class="st11" d="M103.3,119.5c0,3.5,2.4,6.4,5.4,6.5c2.9,0.4,5.4-2.1,5.7-5.5c0-0.1,0-0.2,0-0.2c0-3.5-2.4-6.4-5.4-6.5
							c-2.9-0.4-5.4,2.1-5.7,5.4C103.3,119.3,103.3,119.4,103.3,119.5z"/>
					</g>
				</g>
				<path class="st10" d="M90.2,101.2c3,15.8,13.5,24.2,20.7,22.2s10.4-19.2,7.5-35.3c-2.8-15.9-11.3-25.9-19.4-22.1
					S87.2,85.4,90.2,101.2z"/>
				<path class="st9" d="M94.1,92.3c1.6-4,7.5-6,9-3.7C100.1,89.4,97,90.7,94.1,92.3z"/>
				<path class="st9" d="M115.4,82.8c-1.6-3.1-7.6-0.9-8,3C107.4,85.9,111.3,82.5,115.4,82.8z"/>
				<path class="st14" d="M103.4,108.4c0.6-1.7,9-4.8,9.7-3.7c0.7,1.1-0.6,8.9-4.2,9.2S102.8,110.1,103.4,108.4z"/>
				<g>
					<defs>
						<path id="SVGID_00000156589823760487043440000005806198935619658167_" d="M103.4,108.4c0.6-1.7,9-4.8,9.7-3.7
							c0.7,1.1-0.6,8.9-4.2,9.2S102.8,110.1,103.4,108.4z"/>
					</defs>
					<clipPath id="SVGID_00000127744281256431534310000002794535181570953140_">
						<use xlink:href="#SVGID_00000156589823760487043440000005806198935619658167_"  style="overflow:visible;"/>
					</clipPath>
					<g style="clip-path:url(#SVGID_00000127744281256431534310000002794535181570953140_);">
						<path class="st11" d="M112.8,111.3c0.3,1.7-1.1,3.8-3.1,4.8c-2,1-4,0.4-4.3-1.3c-0.3-1.7,1.1-3.8,3.1-4.8
							C110.6,109,112.5,109.6,112.8,111.3z"/>
						<path class="st5" d="M112.7,104.5c0.2,1-2,2.6-4.1,3.6c-2.1,1-4.3,0.4-4.5-0.6s1.7-2,3.8-3
							C110.1,103.5,112.6,103.5,112.7,104.5z"/>
					</g>
				</g>
				<path class="st11" d="M107.4,96.8l0.8,4.2c0.2,0.9,0.8,1.4,1.3,1.2l0,0c0.7-0.5,0.9-1.6,0.5-2.5c0,0,0-0.1-0.1-0.1
					c-0.7-1.1-1.4-2.1-2.2-3C107.6,96.3,107.4,96.5,107.4,96.8z"/>
				<path class="st9" d="M96,97.4l-1.4-1.6c3.6-5.5,7.4-5.7,9.8-0.7L96,97.4z"/>
				<path class="st5" d="M104.7,96.2c-0.3-1.2-0.9-2.3-1.8-3.1c-1.8-1.4-4.8-1.2-7,4.3C96,97.4,100.2,102.9,104.7,96.2z"/>
				<g>
					<defs>
						<path id="SVGID_00000121996656171621740190000006955795847702795965_" d="M104.7,96.2c-0.3-1.2-0.9-2.3-1.8-3.1
							c-1.8-1.4-4.8-1.2-7,4.3C96,97.4,100.2,102.9,104.7,96.2z"/>
					</defs>
					<clipPath id="SVGID_00000095313660475021048450000008080228513513126792_">
						<use xlink:href="#SVGID_00000121996656171621740190000006955795847702795965_"  style="overflow:visible;"/>
					</clipPath>
					<g style="clip-path:url(#SVGID_00000095313660475021048450000008080228513513126792_);">
						<path class="st2" d="M97.2,96.7c0.6,1.9,2,2.7,3.2,1.8c1.2-1.3,1.7-3.3,1-5.1c-0.6-1.9-2-2.7-3.2-1.8
							C97,92.9,96.6,94.9,97.2,96.7z"/>
					</g>
				</g>
				<path class="st7" d="M101.3,94.9c0.1,0.6-0.1,1.1-0.5,1.4c-0.4,0.2-0.8-0.2-0.9-0.8c-0.1-0.5,0.1-1.1,0.5-1.4
					C100.7,93.9,101.1,94.2,101.3,94.9z"/>
				<path class="st7" d="M99.8,97.3c0,0.2,0,0.5-0.2,0.6c-0.2,0.1-0.3-0.1-0.4-0.3c-0.1-0.2,0-0.5,0.2-0.6
					C99.6,96.9,99.8,97.1,99.8,97.3z"/>
				<path class="st9" d="M116.5,87.7l0.5-2.6c-4.4-2-8.8,2.5-8.2,9.1L116.5,87.7z"/>
				<path class="st5" d="M108.8,94.3c-0.2-1.4,0-2.8,0.4-4.1c1-2.7,3.6-5.2,7.3-2.5C116.5,87.7,114.9,96.1,108.8,94.3z"/>
				<g>
					<defs>
						<path id="SVGID_00000029041211925214532790000003233881632125284999_" d="M108.8,94.3c-0.2-1.4,0-2.8,0.4-4.1
							c1-2.7,3.6-5.2,7.3-2.5C116.5,87.7,114.9,96.1,108.8,94.3z"/>
					</defs>
					<clipPath id="SVGID_00000097470866557832224400000012996178586399518637_">
						<use xlink:href="#SVGID_00000029041211925214532790000003233881632125284999_"  style="overflow:visible;"/>
					</clipPath>
					<g style="clip-path:url(#SVGID_00000097470866557832224400000012996178586399518637_);">
						<path class="st2" d="M113.7,89.4c0.2,2.1-0.8,3.9-2,4.2c-1.3,0.2-2.5-1.2-2.6-3.3s0.8-3.9,2-4.2
							C112.3,85.9,113.5,87.4,113.7,89.4z"/>
					</g>
				</g>
				<path class="st7" d="M112.7,89.1c0.1,0.5-0.1,1.1-0.5,1.4c-0.4,0.2-0.8-0.2-0.9-0.8c-0.1-0.5,0.1-1.1,0.5-1.4
					C112.2,88.2,112.6,88.5,112.7,89.1z"/>
				<path class="st7" d="M111.3,91.6c0.1,0.2,0,0.5-0.2,0.6c-0.2,0.1-0.3-0.1-0.4-0.3c-0.1-0.2,0-0.5,0.2-0.6
					C111.1,91.2,111.3,91.4,111.3,91.6z"/>
				<path class="st10" d="M140.4,111.2L140.4,111.2c-3-4-3.2-10.9-0.5-15.4l20.9-31.6l8.4,12.2l-18.5,34
					C147.9,114.8,143.4,115.2,140.4,111.2z"/>
				<g>
					<defs>
						<path id="SVGID_00000025439815290151322200000012296265123310338722_" d="M140.4,111.2L140.4,111.2c-3-4-3.2-10.9-0.5-15.4
							l20.9-31.6l8.4,12.2l-18.5,34C147.9,114.8,143.4,115.2,140.4,111.2z"/>
					</defs>
					<clipPath id="SVGID_00000036220341683817627480000017802339063522372025_">
						<use xlink:href="#SVGID_00000025439815290151322200000012296265123310338722_"  style="overflow:visible;"/>
					</clipPath>
					<g style="clip-path:url(#SVGID_00000036220341683817627480000017802339063522372025_);">
						<path class="st19" d="M141.2,94.5l-2.9-4.4c-1.3-2.1-1.3-5,0.1-7.1l9.6-14.5c0.9-1.5,2.7-1.9,3.9-0.9c0.3,0.2,0.6,0.5,0.8,0.9
							l2.9,4.4c1.3,2.1,1.3,5-0.1,7.1l-9.7,14.4c-0.9,1.5-2.6,2-3.9,0.9C141.7,95.1,141.4,94.8,141.2,94.5z"/>
						<path class="st20" d="M141.7,92.9l-2.1-3.3c-1-1.6-1-3.7,0-5.3l7.2-10.8c0.7-1.1,2-1.4,2.9-0.7c0.2,0.2,0.4,0.4,0.6,0.7
							l2.1,3.3c1,1.6,1,3.7,0,5.3l-7.2,10.8c-0.7,1.1-2,1.4-3,0.6C142,93.4,141.8,93.2,141.7,92.9z"/>
						<path class="st8" d="M153.6,86.6c-0.2,0.2-0.3,0.5-0.2,0.8c0,0.2,0.2,0.4,0.4,0.4c0,0,0.1,0,0.1,0c0.2-0.2,0.3-0.5,0.2-0.8
							C154.1,86.6,153.9,86.5,153.6,86.6C153.6,86.5,153.6,86.5,153.6,86.6z"/>
						<path class="st8" d="M152,88.8c-0.2,0.2-0.3,0.5-0.2,0.8c0,0.2,0.2,0.4,0.4,0.4c0,0,0.1,0,0.1,0c0.2-0.2,0.3-0.5,0.2-0.8
							c0-0.2-0.2-0.4-0.4-0.4C152,88.8,152,88.8,152,88.8z"/>
					</g>
				</g>
				<path class="st8" d="M172.5,66c0.9,7.9-2.4,15.4-7.4,16.9c-5,1.4-9.8-3.8-10.7-11.7s2.4-15.4,7.4-16.9
					C166.8,52.9,171.6,58.1,172.5,66z"/>
				<path class="st11" d="M172.4,71.1c-0.6,1.7-2,2.4-3.1,1.4c-1.2-1.3-1.5-3.3-0.9-5c0.6-1.8,2-2.4,3.1-1.4
					C172.7,67.4,173.1,69.4,172.4,71.1z"/>
				<path class="st10" d="M169.5,70.3c0.6,1.7,1.9,2.4,2.9,1.5l8-7.7c1.1-1.1,1.6-3.4,1.3-5.8l0,0c-0.1-1.2-0.9-1.9-1.4-1.4
					l-10.2,8.9C169.2,66.9,168.9,68.7,169.5,70.3L169.5,70.3z"/>
				<path class="st11" d="M171.9,65.7c-0.4,2.2-1.9,3.5-3.3,2.8c-1.4-0.7-2.2-3-1.8-5.3c0.4-2.2,1.9-3.5,3.3-2.8
					C171.5,61.1,172.3,63.5,171.9,65.7z"/>
				<path class="st10" d="M168.5,66c1,1.7,2.6,2,3.5,0.6l7.8-11.9c1.1-2.1,1.3-4.8,0.6-7.1l0,0c-0.3-1.2-1.3-1.8-1.8-1.1l-10,14
					C167.6,62.1,167.6,64.3,168.5,66L168.5,66z"/>
				<path class="st11" d="M164.2,56c0.5,2.4-0.3,4.8-1.8,5.6c-1.5,0.8-3-0.5-3.5-2.8c-0.5-2.3,0.3-4.8,1.8-5.6
					C162.1,52.4,163.7,53.7,164.2,56z"/>
				<path class="st10" d="M161.4,59.6c1.5,0.5,3-0.8,3.2-2.9l2.1-17.7c0.3-2.5-0.6-5-2.3-6.6l0,0c-0.5-0.5-1.2-0.5-1.6,0.1
					c-0.2,0.2-0.3,0.5-0.3,0.8l-3.2,21.7C159,56.8,159.8,58.8,161.4,59.6L161.4,59.6z"/>
				<path class="st11" d="M169.8,59.8c-0.1,2.4-1.4,4.3-2.9,4.3c-1.5-0.1-2.8-2.2-2.7-4.6c0.1-2.4,1.4-4.3,2.9-4.3
					C168.6,55.3,169.8,57.3,169.8,59.8z"/>
				<path class="st10" d="M166.3,61.5c0.8,1,2.2,1.1,3.1,0.1c0.2-0.3,0.4-0.6,0.5-1l5.9-15.4c0.8-2.5,0.6-5.2-0.6-7.5l0,0
					c-0.6-1.1-1.6-1.3-2-0.3l-7.9,18.5C164.6,57.8,165,60.1,166.3,61.5L166.3,61.5z"/>
				<path class="st11" d="M160.2,65.3c0.5,2.5-0.3,5.2-1.9,5.9c-1.6,0.8-3.3-0.5-3.8-3s0.3-5.2,1.9-5.9
					C158,61.6,159.7,62.8,160.2,65.3z"/>
				<path class="st10" d="M154.3,52.6v11.5c0,2.3,1.2,4.1,2.6,4.1l0,0c1.4,0,2.6-1.8,2.6-4.1l-0.2-9.7c-0.1-2.4-1.1-4.3-2.5-4.9l0,0
					C155.5,49.1,154.3,50.6,154.3,52.6z"/>
				<path class="st21" d="M92.4,82.5l2.8,3c0.4,0.5,1,0.7,1.5,0.5l4.8-1.4"/>
				<path class="st11" d="M99.3,82.1c0,0.3,0.2,0.5,0.4,0.4c0.2-0.1,0.3-0.4,0.3-0.6c0-0.3-0.2-0.5-0.4-0.4
					C99.4,81.6,99.3,81.9,99.3,82.1z"/>
				<path class="st11" d="M98.4,81.1c0,0.3,0.2,0.5,0.4,0.4c0.2-0.1,0.3-0.4,0.3-0.6c0-0.3-0.2-0.5-0.4-0.4
					C98.4,80.5,98.3,80.8,98.4,81.1z"/>
				<path class="st11" d="M98,82.5c0,0.3,0.2,0.5,0.4,0.4c0.2-0.1,0.3-0.4,0.3-0.6c0-0.3-0.2-0.5-0.4-0.4C98.1,82,97.9,82.3,98,82.5
					z"/>
				<path class="st11" d="M97,81.5c0,0.3,0.2,0.5,0.4,0.4c0.2-0.1,0.3-0.4,0.3-0.6c0-0.3-0.2-0.5-0.4-0.4
					C97.1,80.9,96.9,81.2,97,81.5z"/>
				<path class="st10" d="M95.8,102.4c0.9,4.8-0.6,9.6-3.3,10.9c-2.7,1.3-5.7-1.5-6.5-6.3c-0.9-4.7,0.6-9.6,3.3-10.9
					C92,94.9,94.9,97.7,95.8,102.4z"/>
				<path class="st11" d="M88.5,106.8c-0.6-3.1,0.4-6.2,2.1-7c0.9-0.4,1.9-0.2,2.6,0.6c-0.7-1.4-2.2-2.1-3.5-1.6
					c-1.9,0.9-2.9,4.2-2.3,7.5c0.5,2.7,2,4.5,3.6,4.5C89.6,110.1,88.7,108.6,88.5,106.8z"/>
				<path class="st5" d="M84.8,146.5c-4.1,1.2-7,6.3-7.7,12.4c1.2-3.7,3.4-6.5,6.1-7.3c4.7-1.3,9.1,3.6,10,10.9
					c0.5,4.1-0.3,8.3-2.2,11.8c3.5-3,5.5-9.3,4.8-15.8C94.9,150.4,89.9,145,84.8,146.5z"/>
				<path class="st5" d="M122.5,114.8c1.5-6.1,5.2-9.9,9.1-9.7c-2.5,1.2-4.6,4.1-5.6,8.2c-1.7,7,0.6,14.9,5,17.5
					c2.6,1.5,5.7,1,7.7-1.4c-2.5,4.9-6.8,7-10.7,4.6C123.1,131.2,120.6,122.6,122.5,114.8z"/>
				<path class="st11" d="M130.6,67.3c-9.3-18.5-20.3-7.6-20.3-7.6L117,53c-46.7,9.3-27.5,43-27.5,43s7.6-2.9,5.2-18.6
					c21.4-12.2,29.8,24.7,29.8,24.7c2.7-19,0.9-29.6-2.1-35.4c5.5,4.3,7.2,18.8,7.2,18.8c0.5-10.5-1.4-16.9-4.1-20.8L130.6,67.3z"/>
				<path class="st11" d="M86.6,170c0.4,3.1-0.9,6.1-2.9,6.6s-3.8-1.5-4.2-4.6s0.9-6.1,2.9-6.6S86.2,166.9,86.6,170z"/>
				<path class="st10" d="M85.8,170.2c0.3,2.4-0.7,4.8-2.3,5.2c-1.5,0.4-3-1.2-3.3-3.6c-0.2-2.4,0.7-4.8,2.3-5.2
					C84.1,166.3,85.5,167.8,85.8,170.2z"/>
				<path class="st11" d="M82.6,169.8c0.1,0.5-0.1,1-0.5,1.2c-0.4,0.1-0.7-0.3-0.7-0.8c-0.1-0.5,0.1-1,0.5-1.2
					C82.2,168.9,82.5,169.3,82.6,169.8z"/>
				<path class="st11" d="M76.5,185c0.1,0.5-0.1,1.1-0.6,1.3c-0.4,0.1-0.7-0.3-0.8-0.9c-0.1-0.5,0.1-1.1,0.6-1.3
					C76.1,184,76.4,184.4,76.5,185z"/>
				<path class="st11" d="M78.3,184.5c0.1,0.5-0.1,1-0.6,1.3c-0.4,0.1-0.7-0.3-0.8-0.9c-0.1-0.5,0.1-1,0.6-1.3
					C77.9,183.5,78.3,183.9,78.3,184.5z"/>
				<path class="st11" d="M80.3,183.9c0.1,0.5-0.1,1.1-0.6,1.3c-0.4,0.1-0.7-0.3-0.8-0.9c-0.1-0.5,0.1-1.1,0.5-1.3
					C79.8,182.9,80.2,183.3,80.3,183.9z"/>
				<path class="st11" d="M77.6,187.5c0.1,0.5-0.1,1-0.6,1.3c-0.4,0.1-0.7-0.3-0.8-0.9c-0.1-0.5,0.1-1,0.6-1.3
					C77.2,186.6,77.6,187,77.6,187.5z"/>
				<path class="st11" d="M79.5,187c0.1,0.5-0.1,1.1-0.6,1.3c-0.4,0.1-0.7-0.3-0.8-0.9c-0.1-0.5,0.1-1.1,0.6-1.3
					C79.1,186,79.5,186.4,79.5,187z"/>
				<path class="st5" d="M82.2,106.6c0.8,6.6,4.3,11.2,7.9,10.1c3.6-1,5.9-7.2,5.2-13.9S91,91.7,87.4,92.7
					C83.8,93.8,81.4,100,82.2,106.6z"/>
				<path class="st9" d="M82,106.6c0.7,5.9,3.9,10.1,7.1,9.1c3.3-0.9,5.3-6.6,4.7-12.5c-0.7-5.9-3.9-10.1-7.1-9.1
					C83.4,95,81.4,100.6,82,106.6z"/>
				<path class="st11" d="M81.4,106.7c0.6,5.4,3.5,9.1,6.5,8.3c3-0.8,4.8-5.9,4.2-11.3c-0.6-5.4-3.5-9.1-6.5-8.3
					C82.7,96.2,80.8,101.4,81.4,106.7z"/>
				<path class="st9" d="M86.7,102.7c0.1,1,0.6,1.6,1.1,1.5c0.5-0.2,0.9-1,0.7-2c-0.1-1-0.6-1.6-1.1-1.5
					C86.9,100.8,86.6,101.7,86.7,102.7z"/>
				<path class="st5" d="M91.1,65.8c0,0-12.4,9-5.6,28.1l4.1-0.3C89.6,93.6,83.7,78.7,91.1,65.8z"/>
				<polygon class="st9" points="86.6,109.8 89.5,108.9 88.6,106.9 85.7,107.8 				"/>
				<polygon class="st9" points="85.8,110 86.4,109.8 85.5,107.8 84.9,108 				"/>
				<polygon class="st9" points="84.8,110.3 85.5,110.1 84.6,108.1 83.9,108.3 				"/>
				<path class="st11" d="M105.7,174.5c0.8,7.1,5.1,11.9,9.7,10.6c4.5-1.3,7.5-8.2,6.7-15.3s-5.1-11.9-9.7-10.6
					C107.9,160.5,104.9,167.3,105.7,174.5z"/>
				<polygon class="st5" points="111.1,173.5 113.5,168.8 116.8,171.8 116.4,168.2 113.1,165.2 110.7,169.8 				"/>
				<polygon class="st5" points="111.8,179.8 114.2,175.1 117.5,178.1 117.1,174.5 113.8,171.5 111.4,176.2 				"/>
				<path class="st10" d="M89.1,82.3l7-2c0.3-0.1,0.4-0.4,0.3-0.7l0,0c0-0.3-0.3-0.6-0.5-0.5l-7,2c-0.3,0.1-0.4,0.4-0.3,0.7l0,0
					C88.7,82.2,88.9,82.4,89.1,82.3z"/>
				<path class="st10" d="M89.1,86.3l7-2c0.3-0.1,0.4-0.4,0.3-0.7l0,0c0-0.3-0.3-0.6-0.5-0.5l-7,2c-0.2,0.1-0.4,0.4-0.3,0.7l0,0
					C88.7,86.1,88.9,86.3,89.1,86.3z"/>
				<ellipse class="st8" cx="57.3" cy="156" rx="10.3" ry="16.3"/>
				<path class="st11" d="M47.3,152.7c0,2.9,1.5,5.3,3.4,5.3c1.8,0,3.3-2.4,3.3-5.3c0-2.9-1.5-5.3-3.4-5.3
					C48.8,147.4,47.3,149.8,47.3,152.7z"/>
				<path class="st11" d="M48.4,149.3h4.5c1.3,0,2.3-1.6,2.3-3.6l0,0c0-2-1-3.6-2.3-3.6h-4.5c-1.3,0-2.3,1.6-2.3,3.6l0,0
					C46.1,147.7,47.1,149.3,48.4,149.3z"/>
				<path class="st10" d="M52.6,151.8l-3.7-8c-0.4-1.2-1.5-1.8-2.5-1.3c-0.3,0.1-0.5,0.3-0.7,0.5l0,0c-1,1.4-1.2,3.4-0.5,5.1l3.7,8
					c0.4,1.2,1.5,1.8,2.5,1.3c0.3-0.1,0.5-0.3,0.7-0.5l0,0C53.2,155.4,53.4,153.4,52.6,151.8z"/>
				<path class="st10" d="M51.2,159.1l-5.5-10.5l0,0c-2,2.9-2.2,7-0.6,10.2l2.5,4.9c0.4,1.1,1.6,1.6,2.6,1.1
					c0.3-0.1,0.5-0.4,0.7-0.6l0,0C51.8,162.8,52,160.8,51.2,159.1z"/>
				<path class="st10" d="M60.6,147.9c-1.5,0.3-2.8-1.4-3-3.8l-1-19.6c-0.2-2.6,0.8-5.2,2.6-6.7l0,0c0.6-0.4,1.3-0.2,1.7,0.5
					c0.1,0.2,0.2,0.5,0.2,0.8l1.8,24.2C63.1,145.5,62.1,147.6,60.6,147.9L60.6,147.9z"/>
				<path class="st10" d="M55.7,148.3c-1.4,1-3,0-3.6-2.2L47.3,128c-0.6-2.6-0.2-5.5,1.1-7.7l0,0c0.3-0.6,0.9-0.9,1.5-0.5
					c0.3,0.2,0.5,0.5,0.5,0.8l6.5,22.1C57.6,144.8,57.1,147,55.7,148.3z"/>
				<path class="st11" d="M63.2,151.1c-0.5,2.8,0.5,5.8,2.3,6.5c1.8,0.8,3.6-0.8,4.1-3.6s-0.5-5.7-2.3-6.5
					C65.5,146.6,63.7,148.3,63.2,151.1z"/>
				<path class="st10" d="M70.6,139.2l-5.5,9.5c-1.1,2-1,4.6,0.2,6.5v0.1c0.8,1.3,2.3,1.6,3.4,0.7c0.3-0.2,0.5-0.6,0.7-0.9l4.5-8.3
					c1.1-2.2,1.2-4.8,0.2-7.1l0,0c-0.4-1.2-1.5-1.8-2.5-1.4C71.2,138.4,70.8,138.7,70.6,139.2z"/>
			</g>
		</g>
		
			<linearGradient id="SVGID_00000131325151443345786970000009025882101691534486_" gradientUnits="userSpaceOnUse" x1="-411.6047" y1="104.2218" x2="-235.3479" y2="104.2218" gradientTransform="matrix(1.5 -1.000000e-02 -0.22 -1 621.2 209.1)">
			<stop  offset="0" style="stop-color:#00253F"/>
			<stop  offset="0.52" style="stop-color:#7DD6F8"/>
			<stop  offset="1" style="stop-color:#4FB9F2"/>
		</linearGradient>
		
			<path style="fill:none;stroke:url(#SVGID_00000131325151443345786970000009025882101691534486_);stroke-width:2;stroke-miterlimit:10;" d="
			M205.6,1H21.4C10.2,1,1,13.3,1,28.6v159.1c0,15.2,9.2,27.6,20.4,27.6h184.1c11.3,0,20.4-12.3,20.4-27.6V28.6
			C226,13.3,216.8,1,205.6,1z"/>
	</g>
</g>
</svg>
