<?xml version="1.0" encoding="utf-8"?>
<!-- Generator: Adobe Illustrator 26.0.1, SVG Export Plug-In . SVG Version: 6.00 Build 0)  -->
<svg version="1.1" id="Layer_1" xmlns="http://www.w3.org/2000/svg" xmlns:xlink="http://www.w3.org/1999/xlink" x="0px" y="0px"
	 viewBox="0 0 214 192.1" style="enable-background:new 0 0 214 192.1;" xml:space="preserve">
<style type="text/css">
	.st0{clip-path:url(#SVGID_00000152259970361852696260000015257866693700172475_);}
	.st1{opacity:0.2;fill:#036DF9;enable-background:new    ;}
	.st2{clip-path:url(#SVGID_00000044137546367510284110000003031639092256948395_);}
	.st3{fill:#036DF9;}
	.st4{fill:none;stroke:#036DF9;stroke-width:0.59;stroke-miterlimit:10;}
	.st5{fill:none;stroke:#036DF9;stroke-width:0.49;stroke-miterlimit:10;}
	.st6{fill:#FF83A8;}
	.st7{clip-path:url(#SVGID_00000127762593717586852500000013674242853716647867_);}
	.st8{fill:none;stroke:#772AC3;stroke-width:0.28;stroke-miterlimit:10;}
	.st9{opacity:0.5;fill:#E23875;enable-background:new    ;}
	.st10{fill:#772AC3;}
	.st11{fill:#01056A;}
	.st12{fill:#E23875;}
	.st13{fill:#FFFFFF;}
	.st14{clip-path:url(#SVGID_00000073712739111170806980000004636781253808039351_);}
	.st15{opacity:0.75;fill:#01056A;enable-background:new    ;}
	.st16{fill:#99FAFF;}
	.st17{fill:none;stroke:#FFFFFF;stroke-width:0.28;stroke-miterlimit:10.0001;}
	.st18{clip-path:url(#SVGID_00000001642460135297921070000005203896470305177990_);}
	.st19{clip-path:url(#SVGID_00000005249518870477500020000016764207959155122330_);}
	.st20{fill:#8E0D42;}
	.st21{clip-path:url(#SVGID_00000042695169121942766450000007099512433097648017_);}
	.st22{clip-path:url(#SVGID_00000138538043405897212870000007335518875046714540_);}
	.st23{clip-path:url(#SVGID_00000014596331674027136330000009493621027866569360_);}
	.st24{opacity:0.2;fill:#01056A;enable-background:new    ;}
	.st25{clip-path:url(#SVGID_00000025418661911954492300000005519332422970962615_);}
	.st26{clip-path:url(#SVGID_00000164498612543152157120000001226185156842346626_);}
	.st27{fill:none;stroke:url(#SVGID_00000173857301930936043960000012850949039599126700_);stroke-width:2;stroke-miterlimit:10;}
</style>
<g id="Layer_2_00000167396578756835972340000010229181317058151573_">
	<g id="Layer_3">
		<g>
			<g>
				<defs>
					<path id="SVGID_1_" d="M28.4,1h158.2C201.7,1,214,9.6,214,20.3v152.4c0,10.7-12.3,19.3-27.4,19.3H28.4
						C13.3,192,1,183.4,1,172.7V20.3C1,9.6,13.3,1,28.4,1z"/>
				</defs>
				<clipPath id="SVGID_00000180328443781131081590000010438379661162113426_">
					<use xlink:href="#SVGID_1_"  style="overflow:visible;"/>
				</clipPath>
				<g style="clip-path:url(#SVGID_00000180328443781131081590000010438379661162113426_);">
					<path class="st1" d="M116.6,147.9l52.7,25.1c6.4,3,14.1-5.6,13.2-14.7l-3.5-32.7c-1-9.3-5.5-16.6-12-19.7l-52.8-25.1
						c-6.4-3.1-14.1,5.6-13.2,14.7l3.5,32.7C105.6,137.5,110.2,144.8,116.6,147.9z"/>
					<path class="st1" d="M23.7,153.6l52.7,25.1c6.4,3,14.1-5.6,13.2-14.7L86,131.3c-1-9.3-5.5-16.6-12.1-19.7l-52.6-25
						c-6.4-3.1-14.1,5.6-13.2,14.7l3.5,32.7C12.7,143.2,17.1,150.5,23.7,153.6z"/>
					<path class="st1" d="M142.9,128.9l52.7,25.1c6.4,3.1,14.1-5.6,13.2-14.7l-3.5-32.7c-1-9.3-5.5-16.6-12.1-19.7l-52.7-25.1
						c-6.4-3-14.1,5.6-13.2,14.7l3.5,32.7C131.9,118.5,136.4,125.8,142.9,128.9z"/>
					<path class="st1" d="M37.4,56.2c-5.8-15.7,8.5-37.7,30-43.4C85.9,7.8,97,18.9,95,33.6c-1.6,12-11.9,24.6-24.2,30.5
						C57,70.6,41.9,68.3,37.4,56.2z"/>
					<g>
						<g>
							<defs>
								<path id="SVGID_00000001626349972953674580000016444910873429523346_" d="M62.9,46.2c-0.4-3.1,2.5-6.9,6.2-8.3
									c3.7-1.4,6.5,0.2,6.6,3.3c0,3.1-2.6,6.3-5.9,7.7C66.5,50.3,63.3,49.1,62.9,46.2z"/>
							</defs>
							<clipPath id="SVGID_00000098182645898130204680000007168790061316671665_">
								<use xlink:href="#SVGID_00000001626349972953674580000016444910873429523346_"  style="overflow:visible;"/>
							</clipPath>
							<g style="clip-path:url(#SVGID_00000098182645898130204680000007168790061316671665_);">
								<path class="st3" d="M63.9,49.9l12.4-5c0.2-0.1,0.3-0.2,0.3-0.4l0,0c0-0.2-0.1-0.2-0.3-0.1l-12.4,5
									c-0.2,0.1-0.3,0.2-0.3,0.4l0,0C63.5,50,63.7,50,63.9,49.9z"/>
								<path class="st3" d="M64.1,51.4l12.2-5c0.2-0.1,0.3-0.2,0.3-0.4l0,0c0-0.1-0.1-0.2-0.3-0.1L64,51c-0.2,0.1-0.3,0.2-0.3,0.4
									l0,0C63.7,51.4,63.9,51.5,64.1,51.4z"/>
								<path class="st3" d="M76.2,42l-12.9,5.1c-0.2,0.1-0.4,0-0.4-0.2l0,0c0-0.2,0.1-0.4,0.3-0.4l12.9-5.1c0.2-0.1,0.3,0,0.3,0.2
									l0,0C76.6,41.8,76.4,42,76.2,42z"/>
								<path class="st3" d="M76.3,43.5l-12.7,5.1c-0.2,0.1-0.4,0-0.4-0.1l0,0c0-0.2,0.1-0.4,0.3-0.4L76.3,43c0.2-0.1,0.3,0,0.3,0.2
									l0,0C76.6,43.3,76.4,43.5,76.3,43.5z"/>
								<path class="st3" d="M63.2,43.9l13-5c0.2-0.1,0.3-0.2,0.3-0.4l0,0c0-0.2-0.2-0.3-0.3-0.2l-13.1,5c-0.2,0.1-0.3,0.2-0.3,0.5
									l0,0C62.8,43.9,63,43.9,63.2,43.9z"/>
								<path class="st3" d="M63.4,45.5l12.9-5c0.2-0.1,0.3-0.2,0.3-0.4l0,0c0-0.2-0.2-0.2-0.3-0.2l-12.9,5
									c-0.2,0.1-0.3,0.2-0.3,0.4l0,0C63,45.5,63.2,45.5,63.4,45.5z"/>
								<path class="st3" d="M76.2,35.7l-13.5,5c-0.2,0.1-0.4,0-0.4-0.2l0,0c0-0.2,0.1-0.4,0.3-0.5l13.5-5c0.2-0.1,0.3,0,0.3,0.2
									l0,0C76.5,35.5,76.4,35.6,76.2,35.7z"/>
								<path class="st3" d="M76.2,37.4l-13.3,5c-0.2,0.1-0.4,0-0.4-0.2l0,0c0-0.2,0.1-0.4,0.3-0.5l13.3-5c0.2-0.1,0.3,0,0.3,0.2
									l0,0C76.5,37.1,76.4,37.3,76.2,37.4z"/>
							</g>
						</g>
					</g>
					<path class="st4" d="M43,54c-4-12.9,7.7-30.3,24.8-35.3C83,14.3,92.6,22.8,91.3,35c-1.1,10.3-9.9,21.2-20.7,26.2
						C58.8,66.7,46.3,64.4,43,54z"/>
					<path class="st3" d="M61.7,3.3L71.3,1c0.7-0.2,1,0.6,0.7,1.3l-4.3,7.9c-0.2,0.4-0.6,0.6-1.1,0.4c-0.1,0-0.1-0.1-0.2-0.1L61.1,5
						c-0.4-0.4-0.3-1.1,0.2-1.5C61.4,3.4,61.5,3.4,61.7,3.3z"/>
					<path class="st5" d="M70.1,55.6c7.8-3.4,13.9-11.3,14.3-18.5C84.9,29,78,24,68.2,27.2c-10.6,3.4-18.2,14.2-16.3,22.5"/>
					<path class="st3" d="M71.5,55c-0.1,0.8-0.6,1.4-1.3,1.7c-0.8,0.3-1.4,0.1-1.5-0.5c0.1-0.8,0.6-1.4,1.4-1.7
						C70.8,54.2,71.4,54.4,71.5,55z"/>
					<path class="st3" d="M53.7,49.1c0,1-0.6,1.8-1.5,2.1c-1,0.4-1.9,0.1-2.1-0.7c-0.2-0.7,0.5-1.7,1.5-2.1
						C52.6,48,53.5,48.3,53.7,49.1z"/>
					<path class="st3" d="M190.4,141.4L190.4,141.4c0.6,0.3,1.3-0.2,1.6-1l11.9-30c0.4-0.7,0.2-1.5-0.5-1.9l0,0
						c-0.6-0.3-1.3,0.2-1.6,1l-11.9,30C189.6,140.2,189.8,141,190.4,141.4z"/>
					<path class="st3" d="M185.9,139.3L185.9,139.3c0.6,0.3,1.3-0.2,1.6-1l5-12.7c0.4-0.7,0.2-1.5-0.5-1.9l0,0
						c-0.6-0.3-1.3,0.2-1.6,1l-5,12.7C185.1,138.1,185.3,138.9,185.9,139.3z"/>
					<path class="st3" d="M181.7,137.3L181.7,137.3c0.6,0.3,1.3-0.2,1.6-1l7.1-17.9c0.4-0.7,0.2-1.5-0.5-1.9l0,0
						c-0.6-0.3-1.3,0.2-1.6,1l-7.1,17.9C180.9,136.1,181.1,136.9,181.7,137.3z"/>
					<path class="st3" d="M87.6,89.8l2.8,1.4c0.7,0.3,1.5,0,1.8-0.7c0,0,0,0,0-0.1l2-4.9c0.3-0.8,0-1.6-0.7-2l-2.9-1.4
						c-0.7-0.3-1.5,0-1.8,0.7v0.1l-2,4.9C86.5,88.5,86.8,89.4,87.6,89.8z"/>
					<path class="st3" d="M87,74.1l1.2,0.6c0.3,0.1,0.6,0,0.8-0.3l0,0l0.8-2.1c0.1-0.3,0-0.7-0.3-0.8l-1.2-0.6
						c-0.3-0.1-0.6,0-0.8,0.3l0,0l-0.8,2.1C86.5,73.6,86.7,73.9,87,74.1z"/>
					<path class="st6" d="M53.6,143.9L53.6,143.9c-4.5,0-7.5-5-6.6-11L55.3,89l13.3,0.7l-5,43.5C62.5,139.2,58.2,144,53.6,143.9z"/>
					<g>
						<g>
							<defs>
								<path id="SVGID_00000063634198606218029430000010343402284237288373_" d="M53.6,143.9L53.6,143.9c-4.5,0-7.5-5-6.6-11
									L55.3,89l13.3,0.7l-5,43.5C62.5,139.2,58.2,144,53.6,143.9z"/>
							</defs>
							<clipPath id="SVGID_00000134249488720073466170000017562919975856030347_">
								<use xlink:href="#SVGID_00000063634198606218029430000010343402284237288373_"  style="overflow:visible;"/>
							</clipPath>
							<g style="clip-path:url(#SVGID_00000134249488720073466170000017562919975856030347_);">
								<path class="st8" d="M47.8,130.7l-4.6-0.4c-2-0.2-3.2-2.6-2.7-5.3l3.8-20.2c0.5-2.8,2.7-4.8,4.6-4.7l4.6,0.4
									c2,0.2,3.2,2.6,2.7,5.3L52.4,126C51.9,128.8,49.9,130.9,47.8,130.7z"/>
								<path class="st9" d="M47.6,129.1l-3.4-0.3c-1.6-0.1-2.5-1.9-2.1-4l2.9-15.1c0.4-2.1,2-3.6,3.5-3.5l3.4,0.3
									c1.6,0.1,2.5,1.9,2.1,4l-2.8,15.1C50.8,127.7,49.2,129.3,47.6,129.1z"/>
								<path class="st10" d="M56.9,112.7c-0.2,0.3-0.1,0.6,0.1,0.8c0.2,0.1,0.5,0,0.7-0.3c0.2-0.3,0.1-0.6-0.1-0.8
									C57.4,112.3,57.1,112.4,56.9,112.7z"/>
								<path class="st10" d="M56.3,116c-0.2,0.3-0.1,0.6,0.1,0.8c0.2,0.1,0.5,0,0.7-0.3c0.2-0.3,0.1-0.6-0.1-0.8
									C56.8,115.5,56.5,115.6,56.3,116z"/>
							</g>
						</g>
					</g>
					<path class="st11" d="M54,90.1c-2.7,5.4-2,11.9,1.8,14.5s8.9,0.3,11.7-5.1c2.7-5.4,1.9-11.9-1.8-14.5
						C61.9,82.5,56.7,84.7,54,90.1z"/>
					<path class="st12" d="M78.3,126.9v3.8c-0.1,4.9-3.2,9.5-7.1,10.3l-10.8,2.3c-4.6,1-8.2-3-8.1-8.9l0,0
						c0.1-5.9,3.9-11.6,8.5-12.6l10.8-2.3C75.4,118.8,78.4,122.1,78.3,126.9z"/>
					<path class="st10" d="M53.4,79.7C50,86.6,51,94.8,55.7,98.1s11.3,0.4,14.7-6.5c3.4-6.9,2.5-15.1-2.3-18.4
						C63.4,69.9,56.9,72.8,53.4,79.7z"/>
					<path class="st12" d="M56.9,76.9c-1.1,2.2-0.8,4.9,0.8,6c1.6,1.1,3.7,0.1,4.8-2.1c1.1-2.2,0.8-4.9-0.8-6
						C60.2,73.7,58,74.7,56.9,76.9z"/>
					<path class="st12" d="M59.1,75l3.7,2.7c1,0.7,2.6,0.1,3.3-1.4l0,0c0.8-1.5,0.6-3.4-0.5-4.1l-3.8-2.8c-1-0.7-2.6-0.1-3.3,1.4
						l0,0C57.7,72.5,58,74.2,59.1,75z"/>
					<path class="st6" d="M61.6,79.3V71c0-1.7-1.1-2.7-2.4-2.4l0,0c-1.5,0.6-2.5,2-2.4,3.6v8.3c0,1.7,1.1,2.8,2.4,2.5l0,0
						C60.8,82.4,61.7,80.9,61.6,79.3z"/>
					<path class="st6" d="M58.2,83.5l-1-7.9c-0.2-1.6-1.4-2.4-2.7-1.9l0,0c-1.4,0.7-2.2,2.3-2,3.9l1,7.9c0.2,1.6,1.4,2.5,2.7,1.9
						l0,0C57.6,86.7,58.4,85.1,58.2,83.5z"/>
					<path class="st6" d="M55.3,86.9l-2.8-10l0,0c-2.6,1.9-3.7,5.3-2.9,8.4l1.4,4.6c0.2,1.1,1.2,1.7,2.2,1.5
						c0.3-0.1,0.6-0.2,0.8-0.4l0,0C55.1,90.1,55.7,88.5,55.3,86.9z"/>
					<path class="st6" d="M67.6,80.8c-1.9,0.3-3.2-1.6-3-4l1.9-20.4c0.3-2.9,1.9-5.4,4.2-6.9l0,0c0.6-0.4,1.5-0.2,1.9,0.4
						c0.2,0.3,0.2,0.6,0.2,0.9l-1.6,25.1C71.1,78.5,69.5,80.6,67.6,80.8z"/>
					<path class="st12" d="M68.7,82.9c-1.1,2.2-0.8,4.9,0.8,6c1.6,1.1,3.7,0.1,4.8-2.1c1.1-2.2,0.8-4.9-0.8-6
						C72,79.8,69.8,80.7,68.7,82.9z"/>
					<path class="st6" d="M78.5,74.6l-7.5,6.6c-1.5,1.4-2,3.5-1.3,5.5v0.1c0.8,1.7,2.6,2,4,0.7l6.2-5.9c1.5-1.5,2.2-3.7,1.9-5.8l0,0
						c-0.1-1.1-1.1-1.9-2.1-1.7C79.2,74,78.8,74.2,78.5,74.6z"/>
					<path class="st11" d="M70.9,143.9l15-2.9l0.8-28.5l-15,2.9c-6.1,1.2-11.2,8.5-11.5,16.4l0,0C60.1,139.7,64.8,145.1,70.9,143.9z
						"/>
					<path class="st13" d="M75.1,145l16.9-3.3l0.9-32L76,113c-6.9,1.3-12.7,9.6-12.9,18.4l0,0C62.8,140.2,68.2,146.3,75.1,145z"/>
					<g>
						<g>
							<defs>
								<path id="SVGID_00000128463998055071849920000005458985669732963735_" d="M75.1,145l16.9-3.3l0.9-32L76,113
									c-6.9,1.3-12.7,9.6-12.9,18.4l0,0C62.8,140.2,68.2,146.3,75.1,145z"/>
							</defs>
							<clipPath id="SVGID_00000016064019789188322480000007826279863334180232_">
								<use xlink:href="#SVGID_00000128463998055071849920000005458985669732963735_"  style="overflow:visible;"/>
							</clipPath>
							<g style="clip-path:url(#SVGID_00000016064019789188322480000007826279863334180232_);">
								
									<ellipse transform="matrix(0.296 -0.9552 0.9552 0.296 -71.462 175.2383)" class="st15" cx="83.2" cy="136.1" rx="22.3" ry="16"/>
							</g>
						</g>
					</g>
					<path class="st11" d="M55.6,135.5l4.8-1c1-0.4,1.7-1.4,1.7-2.5l0,0c0-1.2-0.7-2-1.6-1.8l-4.8,1c-1,0.4-1.7,1.4-1.7,2.5l0,0
						C53.9,134.9,54.7,135.7,55.6,135.5z"/>
					<path class="st10" d="M56.9,134.2l2.3-0.5c0.5-0.2,0.8-0.6,0.8-1.2l0,0c0-0.5-0.3-0.9-0.8-0.8l-2.3,0.5
						c-0.5,0.2-0.8,0.6-0.8,1.2l0,0C56.1,133.9,56.4,134.2,56.9,134.2z"/>
					
						<ellipse transform="matrix(1 -5.061741e-03 5.061741e-03 1 -0.876 0.4947)" class="st1" cx="97.3" cy="173.3" rx="82" ry="22.6"/>
					
						<ellipse transform="matrix(1 -5.061759e-03 5.061759e-03 1 -0.9048 0.4903)" class="st3" cx="96.4" cy="179" rx="61.3" ry="16.9"/>
					<path class="st16" d="M146.9,182.2c-1.1,7.7-24.7,13.9-52.8,13.7s-50-6.6-48.8-14.4c1.1-7.7,24.7-13.8,52.8-13.7
						C126.1,168,147.9,174.5,146.9,182.2z"/>
					
						<ellipse transform="matrix(1 -5.061648e-03 5.061648e-03 1 -0.9048 0.4903)" class="st17" cx="96.4" cy="179" rx="71.7" ry="19.7"/>
					<path class="st13" d="M95.8,104.6l29.2-0.8c13.3-0.4,21.3,15.4,17.2,33.3l-13.1,56c-20.5,3.5-41.7,3.9-60.5,0.7l1.5-55
						C70.7,121.1,82.8,105,95.8,104.6z"/>
					<g>
						<g>
							<defs>
								<path id="SVGID_00000150800273258483323220000015298221104713555101_" d="M95.8,104.6l29.2-0.8
									c13.3-0.4,21.3,15.4,17.2,33.3l-13.1,56c-20.5,3.5-41.7,3.9-60.5,0.7l1.5-55C70.7,121.1,82.8,105,95.8,104.6z"/>
							</defs>
							<clipPath id="SVGID_00000146457950741541857030000003447557341537652924_">
								<use xlink:href="#SVGID_00000150800273258483323220000015298221104713555101_"  style="overflow:visible;"/>
							</clipPath>
							<g style="clip-path:url(#SVGID_00000146457950741541857030000003447557341537652924_);">
								<path class="st15" d="M124.4,133.6c-4.2,12-0.7,24.4,7.9,27.7c8.5,3.4,18.8-3.6,23.1-15.6c4.2-12,0.7-24.4-7.9-27.7
									C138.9,114.6,128.6,121.6,124.4,133.6z"/>
							</g>
						</g>
					</g>
					<path class="st12" d="M103.7,69.1c-1.6,4.4-0.4,8.9,2.7,10.1s6.7-1.4,8.2-5.8c1.6-4.4,0.4-8.9-2.7-10.1
						C108.9,62,105.2,64.7,103.7,69.1z"/>
					<path class="st12" d="M130,79.4c-1.6,4.4-0.4,8.9,2.7,10.1c3,1.2,6.7-1.4,8.2-5.8s0.4-8.9-2.7-10.1
						C135.3,72.4,131.6,75,130,79.4z"/>
					<path class="st6" d="M117.2,116.3l7.8-20l-16.3-7.5l-7.8,20c-2,5.2,0,11,4.5,13.1l0,0C110,124,115.3,121.5,117.2,116.3z"/>
					<g>
						<g>
							<defs>
								<path id="SVGID_00000103235810167973626000000017531077393711205046_" d="M117.2,116.3l7.8-20l-16.3-7.5l-7.8,20
									c-2,5.2,0,11,4.5,13.1l0,0C110,124,115.3,121.5,117.2,116.3z"/>
							</defs>
							<clipPath id="SVGID_00000070800249707896422540000008577736130358297004_">
								<use xlink:href="#SVGID_00000103235810167973626000000017531077393711205046_"  style="overflow:visible;"/>
							</clipPath>
							<g style="clip-path:url(#SVGID_00000070800249707896422540000008577736130358297004_);">
								<path class="st12" d="M120,99.4c-1.5,3.9-6.3,5.3-10.8,3.3c-4.4-2.1-6.9-6.8-5.4-10.7s6.3-5.3,10.7-3.2
									C119,90.8,121.4,95.6,120,99.4z"/>
							</g>
						</g>
					</g>
					<path class="st6" d="M137.7,79.8c-5.2,14.7-13.8,25-24.3,21.2s-10.4-17.8-5.2-32.8c5-14.7,15.6-24.2,24.1-20.8
						C140.9,50.8,142.9,65.1,137.7,79.8z"/>
					<path class="st11" d="M136.3,72.4c0.2-5.8-5.8-8.6-8.8-5.2C130.7,68.4,133.7,70.1,136.3,72.4z"/>
					<path class="st11" d="M114.2,62c2.7-4.3,9-2.5,8.6,2.4C122.8,64.3,119,60.7,114.2,62z"/>
					<path class="st20" d="M124.4,87.6c-0.4-1.9-10-6.6-11.1-5.5c-1,1-1.4,9.5,3,10.4C120.8,93.4,124.8,89.5,124.4,87.6z"/>
					<g>
						<g>
							<defs>
								<path id="SVGID_00000040566401720328919910000004868976000360704661_" d="M124.4,87.6c-0.4-1.9-10-6.6-11.1-5.5
									c-1,1-1.4,9.5,3,10.4C120.8,93.4,124.8,89.5,124.4,87.6z"/>
							</defs>
							<clipPath id="SVGID_00000017476372117960558210000009043681134056075927_">
								<use xlink:href="#SVGID_00000040566401720328919910000004868976000360704661_"  style="overflow:visible;"/>
							</clipPath>
							<g style="clip-path:url(#SVGID_00000017476372117960558210000009043681134056075927_);">
								<path class="st12" d="M112.1,89c-0.8,1.7,0.5,4.1,2.7,5.5s4.8,1.1,5.5-0.6c0.8-1.7-0.5-4.1-2.7-5.5S112.9,87.3,112.1,89z"/>
								<path class="st13" d="M113.8,81.9c-0.5,1,1.9,3.1,4.2,4.5c2.4,1.3,5.2,1.2,5.7,0.2s-1.7-2.4-4-3.8
									C117.3,81.4,114.3,80.8,113.8,81.9z"/>
							</g>
						</g>
					</g>
					<path class="st12" d="M121.5,76.9l-1.4,3.8c-0.3,0.8-1,1.3-1.6,1l0,0c-0.8-0.3-0.8-1.6-0.2-2.4c0.9-1,1.9-1.9,2.8-2.8
						C121.4,76.5,121.6,76.7,121.5,76.9z"/>
					<path class="st11" d="M133.7,77.1c0.1-1.4-0.3-2.7-1-3.8c-1.5-1.9-4.7-2.8-8,1.9L133.7,77.1z"/>
					<path class="st13" d="M124.2,76.2c0.5-1.2,1.3-2.2,2.4-2.9c2.2-1.3,5.5-1.2,7.2,3.8C133.7,77.1,128.4,82.3,124.2,76.2z"/>
					<g>
						<g>
							<defs>
								<path id="SVGID_00000039847664377655266140000007294975147432675735_" d="M124.2,76.2c0.5-1.2,1.3-2.2,2.4-2.9
									c2.2-1.3,5.5-1.2,7.2,3.8C133.7,77.1,128.4,82.3,124.2,76.2z"/>
							</defs>
							<clipPath id="SVGID_00000109712261712047712250000014574522604969960358_">
								<use xlink:href="#SVGID_00000039847664377655266140000007294975147432675735_"  style="overflow:visible;"/>
							</clipPath>
							<g style="clip-path:url(#SVGID_00000109712261712047712250000014574522604969960358_);">
								<path class="st3" d="M131.7,76.4c-0.9,1.8-2.6,2.5-3.7,1.7c-1.2-0.8-1.4-2.9-0.6-4.7c0.9-1.7,2.6-2.5,3.7-1.7
									C132.4,72.6,132.6,74.7,131.7,76.4z"/>
							</g>
						</g>
					</g>
					<path class="st16" d="M127.5,74.3c-0.2,0.5-0.1,1,0.4,1.3c0.4,0.2,0.9-0.2,1.1-0.7c0.3-0.5,0.1-1.1-0.4-1.3l0,0
						C128.2,73.4,127.7,73.7,127.5,74.3z"/>
					<path class="st16" d="M128.8,76.6c-0.1,0.2,0,0.4,0.2,0.6c0.2,0.1,0.4-0.1,0.5-0.3c0.1-0.2,0-0.4-0.2-0.6
						C129.1,76.2,128.9,76.3,128.8,76.6z"/>
					<path class="st11" d="M112.1,68.6c1-1.1,2.4-1.8,3.8-2c2.5-0.2,5.4,1.8,3.9,7.9L112.1,68.6z"/>
					<path class="st13" d="M119.9,74.5c0.3-1.2,0.3-2.6,0-3.8c-0.8-2.5-3.4-4.7-7.9-2.1C112.1,68.6,112.9,76.2,119.9,74.5z"/>
					<g>
						<g>
							<defs>
								<path id="SVGID_00000139283064834580693850000008801468556551996841_" d="M119.9,74.5c0.3-1.2,0.3-2.6,0-3.8
									c-0.8-2.5-3.4-4.7-7.9-2.1C112.1,68.6,112.9,76.2,119.9,74.5z"/>
							</defs>
							<clipPath id="SVGID_00000114047818003056008960000002964989656825364919_">
								<use xlink:href="#SVGID_00000139283064834580693850000008801468556551996841_"  style="overflow:visible;"/>
							</clipPath>
							<g style="clip-path:url(#SVGID_00000114047818003056008960000002964989656825364919_);">
								<path class="st3" d="M115.1,70.1c-0.4,1.9,0.4,3.6,1.8,3.8c1.4,0.2,2.8-1.2,3.2-3.1c0.4-1.9-0.4-3.6-1.8-3.8
									C117,66.8,115.5,68.2,115.1,70.1z"/>
							</g>
						</g>
					</g>
					<path class="st16" d="M116.1,69.8c-0.2,0.5-0.1,1,0.4,1.3c0.4,0.2,0.9-0.2,1.1-0.7c0.2-0.5,0-1-0.4-1.3
						C116.8,68.9,116.3,69.2,116.1,69.8z"/>
					<path class="st16" d="M117.4,72.1c-0.1,0.2,0,0.5,0.2,0.6c0.3,0,0.5-0.2,0.5-0.5c0-0.2-0.1-0.3-0.2-0.4
						C117.7,71.7,117.5,71.9,117.4,72.1z"/>
					<path class="st10" d="M118.4,48.4c0,0-3.8,1-7,12.5c0,0,4-6.6,8.8-8.3L118.4,48.4z"/>
					<path class="st10" d="M136,39.6c0,0-6.8-2.8-12.8-0.6c21,4.9,31.1,11.7,16.3,34.7c0,0-0.4-1.2,0.8-9.2c0,0-14.6-3.7-22-12.8
						C118.4,51.6,114.7,27.8,136,39.6z"/>
					<path class="st13" d="M152.1,141.2c-3.7,10.6-13,16.9-20.6,13.9c-7.6-3-10.7-14.1-7.1-24.7c3.7-10.6,13-16.9,20.6-13.9
						C152.6,119.4,155.8,130.5,152.1,141.2z"/>
					
						<ellipse transform="matrix(0.2956 -0.9553 0.9553 0.2956 -34.3231 233.9959)" class="st12" cx="141.5" cy="140.3" rx="14.1" ry="10.2"/>
					<path class="st11" d="M150.3,141.4c-2.2,6.2-7.6,9.8-12,8.1c-4.4-1.7-6.3-8.2-4-14.4s7.6-9.8,12-8.1
						C150.7,128.8,152.5,135.2,150.3,141.4z"/>
					<path class="st10" d="M133.2,144.7l19.4-3.7c2.9-0.6,5.4-4.1,5.5-7.9v-0.4c0.1-3.8-2.2-6.4-5.1-5.8l-19.4,3.7
						c-2.9,0.6-5.4,4.1-5.5,7.9v0.4C128,142.7,130.3,145.3,133.2,144.7z"/>
					<path class="st12" d="M143.8,132.8L143.8,132.8c-1.8,0.3-3.1-1.2-3-3.5l0.3-9.5c0.1-2.2,1.6-4.3,3.2-4.7l0,0
						c1.8-0.3,3.1,1.2,3,3.4l-0.3,9.5C147.1,130.5,145.6,132.5,143.8,132.8z"/>
					<path class="st6" d="M144,126.1L144,126.1c-1.8,0.3-3.1-1.2-3-3.5l0.3-9.5c0.1-2.2,1.6-4.3,3.2-4.7l0,0c1.8-0.3,3.1,1.2,3,3.4
						l-0.3,9.5C147.3,123.7,145.8,125.7,144,126.1z"/>
					<path class="st12" d="M136.6,137L136.6,137c-1.8,0.3-3.1-1.2-3-3.4l0.3-9.5c0.1-2.2,1.6-4.3,3.2-4.7l0,0c1.8-0.3,3.1,1.2,3,3.4
						l-0.3,9.5C139.8,134.6,138.3,136.7,136.6,137z"/>
					<path class="st6" d="M136.8,130.3L136.8,130.3c-1.8,0.3-3.1-1.2-3-3.5l0.3-9.5c0.1-2.2,1.5-4.3,3.2-4.7l0,0
						c1.8-0.3,3.1,1.2,3,3.4l-0.3,9.5C140,127.8,138.5,129.9,136.8,130.3z"/>
					<path class="st12" d="M130.5,140.4L130.5,140.4c-1.8,0.3-3.1-1.2-3-3.5l0.2-6.4c0.1-2.2,1.6-4.3,3.2-4.7l0,0
						c1.8-0.3,3,1.2,3,3.4l-0.2,6.4C133.7,138,132.2,140.1,130.5,140.4z"/>
					<path class="st6" d="M131,134.8l-0.6,0.1c-1.6,0.3-2.8-1.1-2.7-3.1l0.2-7.1c0.1-2.1,1.4-3.9,2.9-4.2l0.6-0.1
						c1.6-0.3,2.8,1.1,2.7,3.1l-0.2,7.1C133.8,132.6,132.5,134.5,131,134.8z"/>
					<path class="st12" d="M154.7,136.8L154.7,136.8c-1.3-1.2-1.3-3.8-0.1-5.7l3.4-5.4c1.2-1.9,3.2-2.4,4.4-1.2l0,0
						c1.3,1.2,1.3,3.8,0.1,5.7l-3.4,5.4C158,137.6,156,138.1,154.7,136.8z"/>
					<path class="st12" d="M151.2,133.3L151.2,133.3c-1.8,0.3-3.1-1.2-3-3.5l0.2-7.5c0.1-2.2,1.5-4.3,3.2-4.7l0,0
						c1.8-0.3,3.1,1.2,3,3.4l-0.2,7.5C154.4,130.9,152.9,132.9,151.2,133.3z"/>
					<path class="st6" d="M151.6,125.4l-0.4,0.1c-1.7,0.3-2.9-1.1-2.8-3.3l0.2-8c0.1-2.1,1.5-4.1,3-4.4l0.4-0.1
						c1.7-0.3,2.9,1.1,2.8,3.3l-0.2,8C154.6,123.1,153.2,125.1,151.6,125.4z"/>
					<g>
						<polygon class="st16" points="160.8,70.4 148.3,89.1 153.4,104.4 166,85.7 						"/>
						<polygon class="st3" points="153.4,104.4 166.4,109.3 179,90.6 166,85.7 						"/>
						<polygon class="st13" points="166,85.7 179,90.6 173.6,75.2 160.8,70.4 						"/>
					</g>
					<path class="st24" d="M88.2,154.4c-1.1,9.5,3.8,17.1,11.1,16.8c7.2-0.3,14-8.3,15.1-17.8c1.1-9.6-3.8-17.1-11.1-16.8
						C96.1,136.9,89.2,144.9,88.2,154.4z"/>
					<polygon class="st13" points="96.6,154.8 101.8,149.5 105.7,154.5 106.3,149.6 102.3,144.7 97.2,150 					"/>
					<polygon class="st13" points="95.6,163.3 100.8,158 104.8,162.9 105.3,158.1 101.3,153.1 96.1,158.5 					"/>
					<path class="st13" d="M146.1,92.4c-2.4,1.5-3.7,3.1-3.8,4.6c-0.2,4,8.9,5.9,20.5,4.2c11.6-1.7,21.1-6.2,21.3-10.3
						c0.1-2-2-3.4-5.6-4.1c6,0.7,9.9,2.6,9.7,5.4c-0.3,4.7-11.6,10.1-25.1,12.1s-24.4-0.3-24.1-5C139,97.1,141.8,94.6,146.1,92.4z"
						/>
					<path class="st16" d="M118.3,48.3c-0.2-5-0.4-12.3,5-13.9c0.7-0.2,1.4-0.3,2-0.2C118.1,32.8,117.1,42.1,118.3,48.3z"/>
					<path class="st16" d="M127.6,36.3c-5.6-1.9-10.8,5.2-9.5,12.4h0.1C118.4,41.5,122,36.5,127.6,36.3L127.6,36.3L127.6,36.3z"/>
					<path class="st13" d="M110.6,62.6c5.8-18.8,14.4-19.2,25.5-13.7c8.9,4.5,9.2,12.2,4.2,24.6l1,0.7c6.3-9.9,7.1-20.9-0.2-27.1
						c-6.4-5.2-18.4-9.3-25.6,0.5c-3,4.1-4.7,9.5-5.4,14.7h0.3L110.6,62.6z"/>
					<path class="st11" d="M133.7,91.2c2.5,1,7.4-2.6,9.5-8.6c2.2-6,0.6-12.1-1.9-13.1C138.9,68.6,131.3,90.3,133.7,91.2z"/>
					<path class="st16" d="M135.5,91.9c2.5,1,7.4-2.6,9.5-8.6s0.6-12.1-1.9-13.1S133.1,91,135.5,91.9z"/>
					<g>
						<g>
							<defs>
								<path id="SVGID_00000013908919011894881000000012383397948757246881_" d="M135.5,91.9c2.5,1,7.4-2.6,9.5-8.6
									s0.6-12.1-1.9-13.1S133.1,91,135.5,91.9z"/>
							</defs>
							<clipPath id="SVGID_00000165937114658840002330000006467560421060039573_">
								<use xlink:href="#SVGID_00000013908919011894881000000012383397948757246881_"  style="overflow:visible;"/>
							</clipPath>
							<g style="clip-path:url(#SVGID_00000165937114658840002330000006467560421060039573_);">
								<path class="st11" d="M141.6,80.9c-1.7,4.8-2.2,9.1-1,9.6c1.2,0.5,3.5-3.1,5.2-7.9c1.7-4.8,2.2-9.1,1-9.6
									C145.7,72.5,143.3,76,141.6,80.9z"/>
								<path class="st13" d="M142.7,79.6c-1.7,4.8-2.2,9-1.1,9.4c1.1,0.4,3.3-3.1,5-7.9s2.2-9,1.1-9.4
									C146.7,71.2,144.4,74.8,142.7,79.6z"/>
							</g>
						</g>
					</g>
					<path class="st11" d="M104.1,79.6c-2.5-1-3.9-7.1-1.9-13.1c2.2-6,7.1-9.6,9.5-8.6C114.2,58.8,106.5,80.5,104.1,79.6z"/>
					<path class="st16" d="M102.3,78.9c-2.5-1-3.9-7.1-1.9-13.1c2.2-6,7.1-9.6,9.5-8.6S104.8,79.8,102.3,78.9z"/>
					<g>
						<g>
							<defs>
								<path id="SVGID_00000055695625248938625160000009216708522164335239_" d="M102.3,78.9c-2.5-1-3.9-7.1-1.9-13.1
									c2.2-6,7.1-9.6,9.5-8.6S104.8,79.8,102.3,78.9z"/>
							</defs>
							<clipPath id="SVGID_00000105388496917954998290000011577641855213608362_">
								<use xlink:href="#SVGID_00000055695625248938625160000009216708522164335239_"  style="overflow:visible;"/>
							</clipPath>
							<g style="clip-path:url(#SVGID_00000105388496917954998290000011577641855213608362_);">
								<path class="st11" d="M104.6,66.3c-1.7,4.8-4,8.4-5.2,7.9c-1.2-0.5-0.8-4.8,1-9.6s4-8.4,5.2-7.9
									C106.7,57.2,106.2,61.5,104.6,66.3z"/>
								<path class="st13" d="M104.5,64.5c-1.7,4.8-3.9,8.3-5,7.9c-1.1-0.4-0.6-4.7,1.1-9.4c1.7-4.8,3.9-8.3,5-7.9
									C106.6,55.5,106.1,59.7,104.5,64.5z"/>
							</g>
						</g>
					</g>
				</g>
			</g>
		</g>
		
			<linearGradient id="SVGID_00000108272711959618909190000009386494820883369364_" gradientUnits="userSpaceOnUse" x1="1344.7373" y1="995.9467" x2="1539.2627" y2="994.0533" gradientTransform="matrix(0 1 1 0 -887.5 -1345.5)">
			<stop  offset="0" style="stop-color:#00253F"/>
			<stop  offset="0.1" style="stop-color:#032A44"/>
			<stop  offset="0.21" style="stop-color:#0D3752"/>
			<stop  offset="0.33" style="stop-color:#1C4D69"/>
			<stop  offset="0.45" style="stop-color:#326C8A"/>
			<stop  offset="0.58" style="stop-color:#4F94B3"/>
			<stop  offset="0.71" style="stop-color:#71C4E6"/>
			<stop  offset="0.76" style="stop-color:#7DD6F8"/>
			<stop  offset="1" style="stop-color:#4FB9F2"/>
		</linearGradient>
		
			<path style="fill:none;stroke:url(#SVGID_00000108272711959618909190000009386494820883369364_);stroke-width:2;stroke-miterlimit:10;" d="
			M28.4,1h158.2C201.7,1,214,9.6,214,20.3v152.4c0,10.7-12.3,19.3-27.4,19.3H28.4C13.3,192,1,183.4,1,172.7V20.3
			C1,9.6,13.3,1,28.4,1z"/>
	</g>
</g>
</svg>
