<svg xmlns="http://www.w3.org/2000/svg" xmlns:xlink="http://www.w3.org/1999/xlink" viewBox="0 0 226.8 183.69"><defs><style>.cls-1,.cls-10,.cls-12,.cls-13,.cls-15,.cls-2{fill:none;}.cls-1,.cls-10,.cls-12,.cls-13,.cls-15{stroke-miterlimit:10;}.cls-1{stroke-width:2px;stroke:url(#linear-gradient);}.cls-3{fill:#ff83a8;}.cls-4{fill:#8e0d42;}.cls-5{fill:#fff;}.cls-6{fill:#e23875;}.cls-7{clip-path:url(#clip-path);}.cls-8,.cls-9{fill:#036df9;}.cls-8{opacity:0.2;}.cls-10,.cls-12,.cls-13{stroke:#036df9;}.cls-10{stroke-width:0.47px;}.cls-11{clip-path:url(#clip-path-2);}.cls-12{stroke-width:0.68px;}.cls-13{stroke-width:0.56px;}.cls-14{fill:#772ac3;}.cls-15{stroke:#fff;stroke-width:0.32px;}.cls-16{fill:#99faff;}.cls-17{fill:#01056a;}.cls-18{clip-path:url(#clip-path-3);}.cls-19{clip-path:url(#clip-path-4);}.cls-20{clip-path:url(#clip-path-5);}.cls-21{clip-path:url(#clip-path-6);}.cls-22{clip-path:url(#clip-path-7);}.cls-23{clip-path:url(#clip-path-8);}</style><linearGradient id="linear-gradient" x1="-0.6" y1="92.61" x2="227.41" y2="90.39" gradientUnits="userSpaceOnUse"><stop offset="0" stop-color="#00253f"/><stop offset="0.52" stop-color="#7dd6f8"/><stop offset="1" stop-color="#4fb9f2"/></linearGradient><clipPath id="clip-path"><path class="cls-1" d="M1,154q.45-62.73.91-125.46A27.77,27.77,0,0,1,29.68,1H198A27.77,27.77,0,0,1,225.8,29.08l-1.38,125.46A27.77,27.77,0,0,1,196.65,182H28.77A27.77,27.77,0,0,1,1,154Z"/></clipPath><clipPath id="clip-path-2"><path class="cls-2" d="M54.11,52.25A10.56,10.56,0,0,0,54.48,40C52,36.47,47.7,36.26,45,39.52a10.56,10.56,0,0,0-.37,12.27C47.12,55.3,51.38,55.51,54.11,52.25Z"/></clipPath><clipPath id="clip-path-3"><path class="cls-3" d="M114.33,105l3-24.1-17.4-3.59-3,24.11c-.77,6.2,2.49,12,7.3,13h0C109,115.44,113.56,111.21,114.33,105Z"/></clipPath><clipPath id="clip-path-4"><path class="cls-4" d="M112.7,74.3c-.61-1.53-9.57-4.62-10.25-3.71s.35,7.79,4.24,8.26S113.3,75.83,112.7,74.3Z"/></clipPath><clipPath id="clip-path-5"><path class="cls-5" d="M111.59,63.61a5.06,5.06,0,0,1,2-2.6c2-1.11,5.19-.8,7.34,4.07C120.9,65.08,116.28,69.68,111.59,63.61Z"/></clipPath><clipPath id="clip-path-6"><path class="cls-5" d="M107.34,61.76a6.78,6.78,0,0,0-.33-3.61c-1.05-2.42-3.75-4.7-7.76-2.52C99.25,55.63,100.75,62.9,107.34,61.76Z"/></clipPath><clipPath id="clip-path-7"><path class="cls-6" d="M67.89,138.8c-15.17,32.6,11.81,38.7,21,37s14.73-21,12.32-43.12-11.81-38.7-21-37S65.49,116.67,67.89,138.8Z"/></clipPath><clipPath id="clip-path-8"><path class="cls-6" d="M111.12,139.32c2.41,22.13,11.74,38.73,20.84,37.06s24.36-21.84,12.13-43.08c-2.4-22.13-11.73-38.73-20.83-37.06S108.72,117.19,111.12,139.32Z"/></clipPath></defs><g id="Layer_2" data-name="Layer 2"><g id="Layer_3" data-name="Layer 3"><g class="cls-7"><path class="cls-8" d="M181,110.43,127.16,95c-6.55-1.88-8.62-12.6-3.52-18.24L142,56.53c5.21-5.76,12.21-8,18.91-6.11l53.87,15.41c6.55,1.87,8.62,12.6,3.52,18.23l-18.32,20.26C194.73,110.08,187.72,112.34,181,110.43Z"/><path class="cls-8" d="M169.1,81.15,115.23,65.74c-6.55-1.87-8.62-12.6-3.52-18.24L130,27.25c5.21-5.76,12.22-8,18.91-6.11l53.87,15.41c6.55,1.88,8.62,12.6,3.52,18.24L188,75C182.8,80.8,175.8,83.07,169.1,81.15Z"/><path class="cls-8" d="M62.08,153.55l-33.92-9.7c-4.12-1.18-5.42-7.93-2.21-11.48l11.53-12.75c3.28-3.63,7.69-5.05,11.9-3.85l33.91,9.71c4.13,1.17,5.43,7.93,2.22,11.48L74,149.7C70.7,153.33,66.29,154.76,62.08,153.55Z"/><path class="cls-8" d="M54.57,135.12l-33.91-9.7c-4.13-1.18-5.43-7.93-2.22-11.48L30,101.19c3.28-3.62,7.69-5,11.9-3.84l33.92,9.7c4.12,1.18,5.42,7.93,2.21,11.48L66.47,131.27C63.19,134.9,58.78,136.33,54.57,135.12Z"/><path class="cls-9" d="M211.48,81.06,192,75.47a1.42,1.42,0,0,1-.59-2h0a.93.93,0,0,1,1-.49l19.53,5.59a1.41,1.41,0,0,1,.58,2h0A.89.89,0,0,1,211.48,81.06Z"/><path class="cls-9" d="M197.89,81.66l-6.68-1.91a1.41,1.41,0,0,1-.59-2h0a.9.9,0,0,1,1-.49l6.69,1.91a1.42,1.42,0,0,1,.58,2h0A.9.9,0,0,1,197.89,81.66Z"/><path class="cls-9" d="M174,35.82l-33.9-9.7a1.62,1.62,0,0,1-.92-1.86h0c.15-.85.8-1.38,1.45-1.19l33.89,9.69a1.61,1.61,0,0,1,.92,1.87h0C175.28,35.47,174.63,36,174,35.82Z"/><path class="cls-9" d="M188.16,39.87l-8.06-2.3a1.63,1.63,0,0,1-.92-1.87h0c.15-.84.8-1.37,1.45-1.18l8.05,2.3a1.6,1.6,0,0,1,.92,1.86h0C189.46,39.53,188.81,40.06,188.16,39.87Z"/><path class="cls-9" d="M198.63,42.87l-4.14-1.19a1.59,1.59,0,0,1-.92-1.86h0c.14-.84.79-1.38,1.44-1.19l4.15,1.19a1.61,1.61,0,0,1,.92,1.86h0C199.93,42.52,199.28,43.06,198.63,42.87Z"/><path class="cls-9" d="M146.74,36.5l-8.05-2.3a1.61,1.61,0,0,1-.92-1.87h0c.14-.84.79-1.37,1.44-1.19l8.06,2.31a1.61,1.61,0,0,1,.92,1.86h0C148,36.15,147.4,36.69,146.74,36.5Z"/><path class="cls-9" d="M157.21,39.5l-4.14-1.19a1.62,1.62,0,0,1-.92-1.86h0c.15-.85.79-1.38,1.45-1.19l4.14,1.18a1.62,1.62,0,0,1,.92,1.87h0C158.51,39.15,157.87,39.68,157.21,39.5Z"/><path class="cls-9" d="M170.22,61.23l-10.33-2.95A2,2,0,0,1,158.76,56h0c.18-1,1-1.69,1.78-1.46l10.33,3A2,2,0,0,1,172,59.77h0C171.82,60.81,171,61.46,170.22,61.23Z"/><path class="cls-10" d="M170.75,59.42,182,49.78a1.29,1.29,0,0,1,1.2-.29l5.63,1.61"/><path class="cls-10" d="M192.25,52.09c.43-2.47-.78-4.91-2.69-5.46s-3.8,1-4.23,3.48.78,4.91,2.69,5.46S191.82,54.56,192.25,52.09Z"/><path class="cls-9" d="M190.45,51.58A2.26,2.26,0,0,0,189.16,49c-.92-.26-1.82.49-2,1.67a2.26,2.26,0,0,0,1.29,2.61C189.34,53.51,190.24,52.76,190.45,51.58Z"/><path class="cls-9" d="M177.89,113.51l-1.36,7.87c-.09.55.34,1,.74.77l4.67-2.79a.8.8,0,0,0,.19-1.06l-3.32-5.08C178.53,112.79,178,113,177.89,113.51Z"/><path class="cls-9" d="M183.25,115.05l-1.36,7.87c-.09.55.34,1,.74.76l4.67-2.79a.79.79,0,0,0,.19-1.06l-3.32-5.08C183.89,114.32,183.35,114.5,183.25,115.05Z"/><ellipse class="cls-8" cx="49.54" cy="45.88" rx="38.88" ry="30.12" transform="translate(3.52 95.29) rotate(-89.84)"/><g class="cls-11"><path class="cls-9" d="M50.06,56.15,40.85,43.31a.57.57,0,0,1,0-.66h0a.31.31,0,0,1,.52,0L50.6,55.51a.59.59,0,0,1,0,.66h0A.31.31,0,0,1,50.06,56.15Z"/><path class="cls-9" d="M48.65,57.83,39.44,45a.59.59,0,0,1,0-.67h0a.32.32,0,0,1,.52,0l9.21,12.83a.6.6,0,0,1,0,.67h0A.32.32,0,0,1,48.65,57.83Z"/><path class="cls-9" d="M43.56,40.07l9.32,13a.31.31,0,0,0,.52,0h0a.57.57,0,0,0,0-.66l-9.33-13a.3.3,0,0,0-.51,0h0A.56.56,0,0,0,43.56,40.07Z"/><path class="cls-9" d="M42.15,41.76l9.32,13a.31.31,0,0,0,.52,0h0a.57.57,0,0,0,0-.66l-9.33-13a.3.3,0,0,0-.51,0h0A.55.55,0,0,0,42.15,41.76Z"/><path class="cls-9" d="M55.59,49.54,46.38,36.7a.55.55,0,0,1,0-.66h0a.3.3,0,0,1,.51,0L56.12,48.9a.56.56,0,0,1,0,.66h0A.3.3,0,0,1,55.59,49.54Z"/><path class="cls-9" d="M54.18,51.22,45,38.39a.57.57,0,0,1,0-.67h0a.31.31,0,0,1,.51,0l9.21,12.83a.57.57,0,0,1,0,.67h0A.31.31,0,0,1,54.18,51.22Z"/><path class="cls-9" d="M49.09,33.46l9.32,13a.31.31,0,0,0,.52,0h0a.59.59,0,0,0,0-.66l-9.33-13a.3.3,0,0,0-.51,0h0A.56.56,0,0,0,49.09,33.46Z"/><path class="cls-9" d="M47.68,35.15l9.32,13a.32.32,0,0,0,.52,0h0a.59.59,0,0,0,0-.66l-9.33-13a.3.3,0,0,0-.51,0h0A.55.55,0,0,0,47.68,35.15Z"/></g><ellipse class="cls-12" cx="49.54" cy="45.88" rx="32.7" ry="25.33" transform="translate(3.52 95.29) rotate(-89.84)"/><path class="cls-9" d="M78.3,18.25,73.08,11c-.37-.51-1-.26-1.12.43l-1.09,8.06c-.07.55.28,1,.71,1l6.3-.79C78.42,19.59,78.67,18.76,78.3,18.25Z"/><path class="cls-9" d="M20.78,73.52,26,80.8c.36.51,1,.25,1.12-.43l1.08-8.06c.08-.55-.27-1-.7-1l-6.31.78C20.66,72.18,20.41,73,20.78,73.52Z"/><path class="cls-13" d="M37.79,60.28c-6.38-8.89-6-22.77.94-31s17.65-7.73,24,1.16,6,22.77-.94,31"/><path class="cls-9" d="M36.68,58.74a2.55,2.55,0,0,0-.09,3,1.39,1.39,0,0,0,2.31.11,2.55,2.55,0,0,0,.09-3A1.38,1.38,0,0,0,36.68,58.74Z"/><path class="cls-9" d="M60.71,59.9a2.55,2.55,0,0,0-.09,3,1.38,1.38,0,0,0,2.3.11A2.55,2.55,0,0,0,63,60,1.38,1.38,0,0,0,60.71,59.9Z"/><path class="cls-14" d="M126.94,106.56l-.94-1.18c9.39-12.52,13.4-22.87,11.6-29.93-1.84-7.25-9.24-8.93-9.31-8.94l.21-1.67c.34.07,8.25,1.85,10.35,10.07C140.84,82.72,136.83,93.36,126.94,106.56Z"/><path class="cls-14" d="M132.76,106l-.59-.83c11-13.15,15.62-23.61,13.6-31.1-2.65-9.79-16-11.14-16.12-11.16l.07-1.12A27.07,27.07,0,0,1,137,63.75c5.08,2.15,8.38,5.59,9.56,10C148.74,81.67,144.09,92.54,132.76,106Z"/><ellipse class="cls-9" cx="106.6" cy="166.3" rx="63.94" ry="17.14" transform="translate(-2.04 1.33) rotate(-0.71)"/><ellipse class="cls-8" cx="106.55" cy="157.85" rx="95.44" ry="25.58" transform="translate(-1.94 1.33) rotate(-0.71)"/><ellipse class="cls-15" cx="106.59" cy="163.71" rx="73.6" ry="19.72" transform="translate(-2.01 1.33) rotate(-0.71)"/><ellipse class="cls-16" cx="106.62" cy="168.66" rx="55.14" ry="14.78" transform="translate(-2.07 1.33) rotate(-0.71)"/><path class="cls-5" d="M118.76,95.7l-28.51.09c-12.94,0-22.85,15.4-21,32.47l5.92,53.35a202.32,202.32,0,0,0,59.12-.19l5.47-53.72C141.5,110.72,131.59,95.66,118.76,95.7Z"/><path class="cls-6" d="M57.76,137.79h0c4.19,4.56,10.46,3.88,14-1.54l14.4-22c3.54-5.42,3-13.5-1.17-18.07h0c-4.19-4.56-10.46-3.87-14,1.54l-14.4,22C53.05,125.14,53.58,133.23,57.76,137.79Z"/><path class="cls-6" d="M154.43,140h0c4.38-4.28,5.25-12.32,1.94-18L148,107.73c-3.31-5.65-9.54-6.76-13.91-2.49h0c-4.38,4.28-5.25,12.32-2,18l8.38,14.31C143.82,143.16,150.05,144.27,154.43,140Z"/><path class="cls-6" d="M144.64,142h0c4.07,3.09,9.32,1.33,11.73-3.93l14.39-31.55c2.4-5.26,1.05-12-3-15.13h0c-4.07-3.1-9.32-1.34-11.72,3.93l-14.4,31.54C139.21,132.16,140.56,138.93,144.64,142Z"/><path class="cls-17" d="M158.68,111.73h0c3.73,2.83,8.54,1.22,10.74-3.6l1.78-3.9c2.2-4.82,1-11-2.77-13.85h0c-3.73-2.84-8.54-1.22-10.74,3.6l-1.78,3.89C153.71,102.69,155,108.9,158.68,111.73Z"/><path class="cls-16" d="M160.64,104.48l2,1.52c3.17,2.41,7.27,1,9.14-3.06h0c1.87-4.11.82-9.39-2.36-11.8l-2-1.53c-3.17-2.41-7.27-1-9.14,3.07h0C156.41,96.78,157.46,102.06,160.64,104.48Z"/><path class="cls-6" d="M67.57,140.74l.22-.19c4.06-3.33,5.26-10.27,2.68-15.5L57.7,99.12c-2.57-5.23-8-6.77-12-3.43l-.22.18c-4.06,3.33-5.26,10.28-2.68,15.51L55.56,137.3C58.14,142.53,63.51,144.07,67.57,140.74Z"/><path class="cls-17" d="M57,119.05h0c3.72-3.06,4.81-9.41,2.45-14.2l-2.91-5.93c-2.36-4.79-7.29-6.19-11-3.14h0c-3.71,3-4.81,9.41-2.45,14.2l2.92,5.92C48.4,120.69,53.33,122.1,57,119.05Z"/><path class="cls-16" d="M53.57,112.69l.49-.39c3.58-3,4.64-9.07,2.36-13.69h0c-2.27-4.62-7-6-10.6-3l-.48.4c-3.58,2.94-4.64,9.07-2.37,13.68h0C45.25,114.28,50,115.64,53.57,112.69Z"/><path class="cls-14" d="M85.58,81.71c-.65,3.76,8.59,9.6,20.63,13s22.34,3.19,23-.57-8.58-9.6-20.63-13S86.23,78,85.58,81.71Z"/><path class="cls-17" d="M91.63,85.53c-.46,2.66,6.07,6.79,14.58,9.22S122,97,122.46,94.35s-6.07-6.79-14.58-9.22S92.08,82.87,91.63,85.53Z"/><ellipse class="cls-6" cx="99.15" cy="60.03" rx="7.76" ry="5.79" transform="translate(34.19 156.03) rotate(-87.11)"/><path class="cls-14" d="M105.82,32.46S90.84,32,104,46.39C104,46.39,110.68,36.05,105.82,32.46Z"/><path class="cls-3" d="M114.33,105l3-24.1-17.4-3.59-3,24.11c-.77,6.2,2.49,12,7.3,13h0C109,115.44,113.56,111.21,114.33,105Z"/><g class="cls-18"><path class="cls-6" d="M113,82.18c0,4.33-3.88,7.88-8.71,7.94s-8.78-3.41-8.8-7.74,3.87-7.88,8.71-7.94S113,77.85,113,82.18Z"/></g><path class="cls-3" d="M127,68.77c-3.58,13.61-10.91,22.88-21.43,18.55S93.78,69.71,97.29,55.81c3.46-13.66,12.72-21.93,21.33-18.17S130.57,55.16,127,68.77Z"/><path class="cls-17" d="M123.06,60.47c-1.11-5.34-7.44-7.08-9.62-3.46A30.67,30.67,0,0,1,123.06,60.47Z"/><path class="cls-17" d="M100.56,51.43c2.14-3.89,8.53-1.78,8.55,2.8C109.11,54.23,105.11,50.6,100.56,51.43Z"/><path class="cls-4" d="M112.7,74.3c-.61-1.53-9.57-4.62-10.25-3.71s.35,7.79,4.24,8.26S113.3,75.83,112.7,74.3Z"/><g class="cls-19"><path class="cls-6" d="M102.53,76.31c-.38,1.43,1.07,3.35,3.22,4.29s4.21.55,4.59-.88-1.07-3.35-3.23-4.29S102.9,74.89,102.53,76.31Z"/><path class="cls-5" d="M102.82,70.4c-.23.85,2,2.35,4.26,3.32s4.58.59,4.8-.26-1.76-1.86-4-2.83S103,69.54,102.82,70.4Z"/></g><path class="cls-14" d="M120.81,26.94s-6.71-4.63-11.62-1.76a7,7,0,0,1,2.23.6C125,31.69,144.55,50.53,127.59,66.5l-4.74,3.8s1.19-10.63,4.21-16c0,0-14.26-3.74-22.25-12.92C104.81,41.35,100.48,11.48,120.81,26.94Z"/><path class="cls-3" d="M122.07,69.86c-1.08,4.07.39,8.4,3.27,9.66s6.08-1,7.15-5.11-.39-8.41-3.27-9.67S123.14,65.78,122.07,69.86Z"/><path class="cls-6" d="M129.73,74.06c.69-2.63-.26-5.41-2.11-6.22a2.73,2.73,0,0,0-2.78.39A3.19,3.19,0,0,1,128.62,67c2,.86,3,3.85,2.25,6.66-.61,2.34-2.25,3.83-3.93,3.75A4.59,4.59,0,0,0,129.73,74.06Z"/><path class="cls-6" d="M108.72,64l-.94,3.58c-.2.76-.85,1.17-1.44.91h0a1.55,1.55,0,0,1-.39-2.27,20.21,20.21,0,0,1,2.47-2.52C108.57,63.53,108.78,63.74,108.72,64Z"/><path class="cls-3" d="M129.25,59.29l-4.86-2.12a.61.61,0,0,1-.27-.72h0a.43.43,0,0,1,.56-.36l4.85,2.12a.62.62,0,0,1,.28.72h0C129.73,59.23,129.48,59.39,129.25,59.29Z"/><path class="cls-3" d="M128.52,62.05l-4.85-2.11a.64.64,0,0,1-.28-.73h0c.08-.3.33-.46.56-.36L128.81,61a.61.61,0,0,1,.27.72h0A.43.43,0,0,1,128.52,62.05Z"/><path class="cls-17" d="M120.9,65.08a6.4,6.4,0,0,0-1.3-3.7c-1.62-1.91-4.83-3-7.59,1.31Z"/><path class="cls-5" d="M111.59,63.61a5.06,5.06,0,0,1,2-2.6c2-1.11,5.19-.8,7.34,4.07C120.9,65.08,116.28,69.68,111.59,63.61Z"/><g class="cls-20"><path class="cls-17" d="M117.68,64.05c-.68,1.62-2.23,2.24-3.47,1.38a3.84,3.84,0,0,1-1-4.49c.67-1.63,2.23-2.24,3.46-1.39A3.86,3.86,0,0,1,117.68,64.05Z"/></g><path class="cls-16" d="M113.78,61.91a1.08,1.08,0,0,0,.48,1.26c.4.18.84-.1,1-.62a1.09,1.09,0,0,0-.49-1.26C114.35,61.11,113.92,61.39,113.78,61.91Z"/><path class="cls-16" d="M115.21,64.18a.48.48,0,0,0,.21.55.33.33,0,0,0,.42-.27.47.47,0,0,0-.21-.55A.33.33,0,0,0,115.21,64.18Z"/><path class="cls-17" d="M99.25,55.63A5.14,5.14,0,0,1,102.74,54c2.4,0,5.39,2,4.6,7.77Z"/><path class="cls-5" d="M107.34,61.76a6.78,6.78,0,0,0-.33-3.61c-1.05-2.42-3.75-4.7-7.76-2.52C99.25,55.63,100.75,62.9,107.34,61.76Z"/><g class="cls-21"><path class="cls-17" d="M102.25,57.26C102,59,103,60.71,104.31,61s2.64-.93,2.86-2.72-.7-3.45-2.06-3.73S102.47,55.48,102.25,57.26Z"/></g><path class="cls-16" d="M103.24,57a1.07,1.07,0,0,0,.49,1.25c.4.18.83-.1,1-.62a1.08,1.08,0,0,0-.48-1.26C103.82,56.22,103.38,56.5,103.24,57Z"/><path class="cls-16" d="M104.68,59.28a.47.47,0,0,0,.21.55c.17.08.36,0,.42-.27a.48.48,0,0,0-.21-.55A.33.33,0,0,0,104.68,59.28Z"/><path class="cls-16" d="M111.57,22.54c-5.76.16-6.12,7.37-7.07,11.68h-.06c0-4.39,1.2-12.71,7.13-11.68Z"/><path class="cls-16" d="M102.58,32.85c-5.28,1.65-3.93,5.68-1.92,9.44L99.86,41c-2.18-3.49-1.79-7.36,2.72-8.16Z"/><ellipse class="cls-14" cx="168.28" cy="91.54" rx="13.98" ry="10.83" transform="translate(76.27 259.56) rotate(-89.84)"/><path class="cls-6" d="M177.71,89.78c-.43,2.46-2.32,4-4.22,3.46s-3.1-3-2.68-5.43,2.31-4,4.22-3.47S178.13,87.32,177.71,89.78Z"/><path class="cls-6" d="M177.07,86.65l-4.65-1.33c-1.3-.37-2.13-2-1.84-3.72h0c.3-1.69,1.59-2.75,2.9-2.38l4.64,1.33c1.31.37,2.13,2,1.84,3.73h0C179.67,86,178.37,87,177.07,86.65Z"/><path class="cls-3" d="M172.38,87.49l5-5.63a2.06,2.06,0,0,1,3.41.29h0a3.78,3.78,0,0,1-.22,4.41l-5,5.63a2.07,2.07,0,0,1-3.42-.29h0A3.78,3.78,0,0,1,172.38,87.49Z"/><path class="cls-3" d="M172.64,93.15l5.59-4.58a2.12,2.12,0,0,1,3.34,1h0a3.7,3.7,0,0,1-.75,4.32l-5.58,4.59a2.12,2.12,0,0,1-3.34-1h0A3.7,3.7,0,0,1,172.64,93.15Z"/><path class="cls-3" d="M173,97.89l8.37-4.4h0c1,3.2-.19,6.85-2.67,8.15l-3.88,2c-1.24.65-2.65-.11-3.15-1.71h0A3.49,3.49,0,0,1,173,97.89Z"/><path class="cls-3" d="M166.5,83.51a2.92,2.92,0,0,0,4.92-.23l10.71-15.43a9.18,9.18,0,0,0,.66-8.23h0c-.5-1.31-1.81-1.72-2.52-.78L166.43,77.27a5.38,5.38,0,0,0,.07,6.24Z"/><path class="cls-6" d="M164.41,84.05c-.42,2.46-2.31,4-4.21,3.46s-3.11-3-2.68-5.43,2.31-4,4.21-3.47S164.84,81.59,164.41,84.05Z"/><path class="cls-3" d="M161.35,70.21l2.11,10.72c.42,2.11-.57,4.26-2.21,4.8l-.05,0c-1.64.54-3.31-.74-3.72-2.85l-1.54-9.18a5.55,5.55,0,0,1,2-5.49h0C159.33,67.34,161,68.3,161.35,70.21Z"/><path class="cls-14" d="M37.58,93.75c-1.3,7.53,2.37,15,8.21,16.67s11.62-3.09,12.92-10.63-2.37-15-8.21-16.67S38.88,86.21,37.58,93.75Z"/><path class="cls-6" d="M40.19,90c-.42,2.46.78,4.89,2.68,5.44s3.79-1,4.21-3.47-.77-4.89-2.67-5.44S40.62,87.58,40.19,90Z"/><path class="cls-6" d="M41.8,87.56l4.64,1.33c1.31.37,2.6-.69,2.9-2.38h0c.29-1.69-.54-3.36-1.84-3.73l-4.65-1.33c-1.3-.37-2.6.69-2.89,2.38h0C39.67,85.51,40.49,87.18,41.8,87.56Z"/><path class="cls-3" d="M45.77,90.87l-2.66-7.81c-.53-1.58-2-2.3-3.19-1.61h0a3.55,3.55,0,0,0-1.24,4.13l2.65,7.81c.54,1.58,2,2.3,3.2,1.6h0A3.54,3.54,0,0,0,45.77,90.87Z"/><path class="cls-3" d="M43.67,95.86l-3.55-7.2c-.72-1.46-2.22-1.89-3.34-1h0A3.7,3.7,0,0,0,36,92l3.55,7.2a2.12,2.12,0,0,0,3.34,1h0A3.7,3.7,0,0,0,43.67,95.86Z"/><path class="cls-3" d="M41.78,100,35.65,91.4h0a7.58,7.58,0,0,0-.27,8.84l2.85,4a2.06,2.06,0,0,0,3.42.16h0A3.8,3.8,0,0,0,41.78,100Z"/><path class="cls-3" d="M52.4,90.47c-1.83.81-3.82-.5-4.38-2.89L43.4,67.76A8.71,8.71,0,0,1,45.52,60h0a1.45,1.45,0,0,1,2.54.67l6.46,24.24c.62,2.3-.33,4.81-2.12,5.61Z"/><path class="cls-6" d="M54.12,92.1c-.43,2.46.77,4.89,2.68,5.44s3.79-1,4.21-3.47-.77-4.89-2.68-5.44S54.54,89.64,54.12,92.1Z"/><path class="cls-3" d="M61.45,81.23,56,89.79a4.79,4.79,0,0,0,.42,5.56l0,0a2.63,2.63,0,0,0,4.31-.55l4.41-7.48a6.16,6.16,0,0,0,0-6.08h0A2.07,2.07,0,0,0,61.45,81.23Z"/><path class="cls-17" d="M121.28,69.13,98.61,62.64c-4.12-1.17-6.71-6.44-5.79-11.75h0c.92-5.31,5-8.66,9.11-7.49l22.68,6.49c4.11,1.18,6.7,6.44,5.78,11.75h0C129.48,67,125.4,70.31,121.28,69.13Z"/><path class="cls-5" d="M118,64.58,95.32,58.1c-4.12-1.18-6.71-6.44-5.79-11.75h0c.92-5.32,5-8.67,9.11-7.49l22.68,6.48c4.11,1.18,6.7,6.44,5.78,11.76h0C126.19,62.41,122.11,65.76,118,64.58Z"/><path class="cls-17" d="M117.75,63.35,95.94,57.11c-3.63-1-5.93-5.7-5.11-10.39h0c.81-4.7,4.41-7.66,8-6.62l21.81,6.24c3.64,1,5.93,5.69,5.12,10.38h0C125,61.42,121.39,64.39,117.75,63.35Z"/><path class="cls-6" d="M101.36,46.16l-4.29-1.23a.89.89,0,0,1-.51-1h0c.08-.46.44-.75.79-.64l4.3,1.22a.88.88,0,0,1,.5,1h0C102.07,46,101.72,46.26,101.36,46.16Z"/><path class="cls-14" d="M117.79,60.86l-4.3-1.23a.86.86,0,0,1-.5-1h0c.08-.46.43-.75.79-.65l4.29,1.23a.86.86,0,0,1,.5,1h0C118.49,60.67,118.14,61,117.79,60.86Z"/><path class="cls-14" d="M110.88,58.75l-1.41-2.88a.58.58,0,0,1,.12-.7h0a.33.33,0,0,1,.54.15l1.42,2.88a.6.6,0,0,1-.12.7h0A.35.35,0,0,1,110.88,58.75Z"/><path class="cls-14" d="M111.83,56.55l-2.22,1.83a.35.35,0,0,1-.55-.16h0a.6.6,0,0,1,.12-.7l2.23-1.83a.35.35,0,0,1,.55.15h0A.62.62,0,0,1,111.83,56.55Z"/><path class="cls-6" d="M103.44,49.9l-6.89-2a.86.86,0,0,1-.5-1h0c.08-.46.43-.75.79-.65l6.89,2a.88.88,0,0,1,.5,1h0C104.15,49.71,103.8,50,103.44,49.9Z"/><path class="cls-14" d="M118.65,56.42c-.07.39-.37.64-.68.56a.76.76,0,0,1-.43-.88c.07-.4.37-.65.68-.56A.76.76,0,0,1,118.65,56.42Z"/><path class="cls-6" d="M67.89,138.8c-15.17,32.6,11.81,38.7,21,37s14.73-21,12.32-43.12-11.81-38.7-21-37S65.49,116.67,67.89,138.8Z"/><g class="cls-22"><path class="cls-17" d="M76.44,125.23c0,.33-.1.67-.16,1-2,11.74-11,19.15-20.14,16.55a14.57,14.57,0,0,1-4.51-2.21,14,14,0,0,0,7.59,5.78c7.71,2.2,15.35-4.08,17.07-14A23.49,23.49,0,0,0,76.44,125.23Z"/></g><path class="cls-6" d="M111.12,139.32c2.41,22.13,11.74,38.73,20.84,37.06s24.36-21.84,12.13-43.08c-2.4-22.13-11.73-38.73-20.83-37.06S108.72,117.19,111.12,139.32Z"/><g class="cls-23"><path class="cls-17" d="M138.62,123.61c-.05.24-.09.49-.14.73-1.5,8.68,2.74,17.27,9.46,19.19a9.4,9.4,0,0,0,3.55.34,8.31,8.31,0,0,1-6.48.81c-5.7-1.63-9.28-8.91-8-16.26A15.86,15.86,0,0,1,138.62,123.61Z"/></g><path class="cls-6" d="M112.59,148.59s-11.07-42.93-2.81-50.17c6.09-5.34,15.19,0,19.41-4.24Z"/><path class="cls-6" d="M101.65,147.94s5.13-39.95,0-51c-3.76-8.15-16.48-13-15.74-16.09C77.71,90.6,97.9,132.81,101.65,147.94Z"/><polygon class="cls-17" points="93.35 139.1 96.81 134.44 95.99 128.07 92.53 132.74 93.35 139.1"/><polygon class="cls-16" points="92.57 138.04 96.03 133.38 95.21 127.01 91.75 131.67 92.57 138.04"/><polygon class="cls-17" points="81.34 157.7 72.35 157.81 74.26 152.3 83.26 152.2 81.34 157.7"/><polygon class="cls-17" points="83.92 157.67 81.92 157.69 83.83 152.19 85.84 152.17 83.92 157.67"/><polygon class="cls-17" points="86.84 157.63 84.83 157.66 86.74 152.16 88.75 152.13 86.84 157.63"/><path class="cls-17" d="M133.23,150.29a2.34,2.34,0,0,1,0,.26c-.52,3-2.83,4.91-5.16,4.24a3.78,3.78,0,0,1-1.16-.56,3.6,3.6,0,0,0,1.95,1.48c2,.56,3.93-1.05,4.37-3.6A5.87,5.87,0,0,0,133.23,150.29Z"/><path class="cls-17" d="M131.39,151a2.88,2.88,0,0,0-1.64-3.33c-1.17-.34-2.33.61-2.59,2.12a2.89,2.89,0,0,0,1.65,3.34C130,153.5,131.13,152.54,131.39,151Z"/><path class="cls-17" d="M87.67,121.72l-4.13-8.4a1.77,1.77,0,0,1,.35-2.07h0a1,1,0,0,1,1.6.46l4.14,8.4a1.77,1.77,0,0,1-.36,2.06h0A1,1,0,0,1,87.67,121.72Z"/><path class="cls-17" d="M90.46,115.3,84,120.65a1,1,0,0,1-1.6-.46h0a1.77,1.77,0,0,1,.35-2.06l6.52-5.35a1,1,0,0,1,1.6.45h0A1.79,1.79,0,0,1,90.46,115.3Z"/><path class="cls-5" d="M119.74,145.52l-2.67-5.41a1.15,1.15,0,0,1,.23-1.33h0a.65.65,0,0,1,1,.29l2.67,5.42a1.14,1.14,0,0,1-.23,1.33h0A.66.66,0,0,1,119.74,145.52Z"/><path class="cls-5" d="M121.54,141.38l-4.2,3.46a.66.66,0,0,1-1-.3h0a1.14,1.14,0,0,1,.23-1.33l4.2-3.45a.65.65,0,0,1,1,.29h0A1.14,1.14,0,0,1,121.54,141.38Z"/><path class="cls-17" d="M105,162.78l-2.16-8.06c-.2-.74-.83-1.14-1.41-.88h0a1.56,1.56,0,0,0-.68,1.82l2.15,8.06c.2.74.83,1.14,1.41.88h0A1.56,1.56,0,0,0,105,162.78Zm-2.38-2.56a.74.74,0,0,1,.33-.86c.27-.12.57.06.66.42l.78,2.9a.74.74,0,0,1-.33.86c-.27.12-.57-.06-.66-.42Z"/><path class="cls-16" d="M84.75,82a32.78,32.78,0,0,0,.38,12.33c.25,1,.63,2.77.88,3.83l-1.39-1.4C81,93.08,76.15,93,72.59,97A24.56,24.56,0,0,0,70.16,100l-2.37,3.31c-1.37,1.93-3.46,4.63-4.77,6.58A20.93,20.93,0,0,1,64,108c1.7-3,3.53-6,5.38-8.9,3.07-5.28,7.77-8.53,12.83-5.9a11.29,11.29,0,0,1,3.16,2.43l-.9.74c-.92-4.69-1.18-9.88.3-14.43Z"/></g><path class="cls-1" d="M1,154q.45-62.73.91-125.46A27.77,27.77,0,0,1,29.68,1H198A27.77,27.77,0,0,1,225.8,29.08l-1.38,125.46A27.77,27.77,0,0,1,196.65,182H28.77A27.77,27.77,0,0,1,1,154Z"/></g></g></svg>