<svg xmlns="http://www.w3.org/2000/svg" xmlns:xlink="http://www.w3.org/1999/xlink" xml:space="preserve" id="Layer_1" x="0" y="0" style="enable-background:new 0 0 226 215.2" version="1.1" viewBox="0 0 226 215.2"><style>.st1{opacity:.2;enable-background:new}.st1,.st2{fill:#036df9}.st3{fill:none;stroke:#036df9;stroke-width:.54;stroke-miterlimit:10}.st5{fill:#fff}.st7{fill:#99faff}.st8{fill:#772ac3}.st9{fill:#01056a}.st10{fill:#ff83a8}.st11{fill:#e23875}</style><g id="Layer_2_00000059279802933350581840000004318119100243815838_"><g id="Layer_3"><defs><path id="SVGID_1_" d="M205.6 1H21.4C10.2 1 1 13.3 1 28.6v159.1c0 15.2 9.2 27.6 20.4 27.6h184.1c11.3 0 20.4-12.3 20.4-27.6V28.6C226 13.3 216.8 1 205.6 1z"/></defs><clipPath id="SVGID_00000031169936992484944570000014525605888432661420_"><use xlink:href="#SVGID_1_" style="overflow:visible"/></clipPath><g style="clip-path:url(#SVGID_00000031169936992484944570000014525605888432661420_)"><path d="m159.6 179.3 36.7-12.5c4.5-1.5 5.9-10.5 2.5-15.2l-12.4-17c-3.5-4.8-8.3-6.8-12.8-5.2l-36.7 12.5c-4.5 1.5-5.9 10.5-2.5 15.2l12.4 17c3.5 4.8 8.2 6.8 12.8 5.2z" class="st1"/><path d="m167.8 155 36.7-12.6c4.5-1.5 5.9-10.5 2.5-15.2l-12.4-17c-3.5-4.8-8.3-6.8-12.8-5.2l-36.7 12.5c-4.5 1.5-5.9 10.5-2.5 15.2l12.4 17c3.5 4.9 8.3 6.8 12.8 5.3zM63.8 255l36.7-12.5c4.5-1.5 5.9-10.5 2.5-15.2l-12.4-17c-3.5-4.8-8.3-6.8-12.8-5.2L41 217.6c-4.5 1.5-5.9 10.5-2.5 15.2l12.4 17c3.6 4.8 8.4 6.8 12.9 5.2z" class="st1"/><path d="m72.1 230.7 36.7-12.5c4.5-1.5 5.9-10.5 2.5-15.2l-12.4-17c-3.5-4.8-8.3-6.8-12.8-5.2l-36.7 12.5c-4.5 1.5-5.9 10.5-2.5 15.2l12.4 17c3.4 4.8 8.2 6.7 12.8 5.2z" class="st1"/><path d="m56.3 55.2 21.8-7.5c.8-.5 1.1-1.7.7-2.7v-.1c-.2-.5-.7-.8-1.1-.7l-21.8 7.4c-.8.5-1.1 1.7-.7 2.7v.1c.2.6.7.9 1.1.8zM71.5 56.1l7.5-2.6c.8-.5 1.1-1.7.7-2.7v-.1c-.2-.5-.7-.8-1.1-.7L71 52.7c-.8.5-1.1 1.7-.7 2.7v.1c.3.5.7.7 1.2.6zM169.5 166.6l10.7-3.7c.9-.5 1.4-1.7 1.2-2.9-.2-1.3-1-2.2-1.8-1.9l-10.7 3.7c-.9.5-1.4 1.7-1.2 2.9.2 1.3 1 2.2 1.8 1.9z" class="st2"/><path d="m169 164.3-11.6-12.4c-.3-.4-.8-.5-1.2-.4l-5.8 2" class="st3"/><path d="M146.7 154.8c-.4-3.1.8-6.2 2.8-6.9 2-.7 3.9 1.3 4.4 4.5.4 3.1-.8 6.2-2.8 6.9s-4-1.4-4.4-4.5z" class="st3"/><path d="M148.6 154.1c-.3-1.3.3-2.7 1.3-3.3 1-.3 1.9.6 2.1 2.1.3 1.3-.3 2.7-1.3 3.3-1 .5-1.9-.6-2.1-2.1zM65.7 101.8c.5-.2.7-.8.6-1.4l-3.4-24.6c-.1-.6-.5-1.1-.9-.9-.5.2-.7.8-.6 1.4l3.4 24.5c.1.7.5 1.1.9 1zM62.4 102.9c.5-.2.7-.8.6-1.4l-1.4-10.4c-.1-.7-.5-1.1-.9-.9-.5.2-.7.8-.6 1.4l1.4 10.4c.1.6.5 1 .9.9zM59.3 103.9c.5-.2.7-.8.6-1.4l-2-14.7c-.1-.7-.5-1.1-.9-.9-.5.2-.7.8-.6 1.4l2 14.7c.1.7.5 1.1.9.9zM160.9 25.1c6.2-2.1 12.3.6 16.8 6.6-4-4.5-9-6.4-14.2-4.6-9.7 3.3-15.9 18.5-13.8 33.8 2.1 15.4 11.7 25.1 21.4 21.8 5.2-1.8 9.3-6.8 11.8-13.5-2.6 8.3-7.4 14.9-13.6 17-10.6 3.6-21.1-7.1-23.4-23.9-2.5-16.9 4.3-33.6 15-37.2zM158.4 13.1l3.7-1.2c.3-.1.5.3.4.7l-1.3 4.4c-.1.3-.3.4-.5.2l-2.4-3.2c-.2-.2-.2-.6 0-.8 0 0 0-.1.1-.1zM173.8 97.7l-3.7 1.2c-.3.1-.5-.3-.4-.7l1.3-4.4c.1-.3.3-.4.5-.2l2.3 3.2c.2.2.2.6 0 .8.1.1 0 .1 0 .1z" class="st2"/><ellipse cx="165.6" cy="55.1" rx="22.8" ry="36.1" style="fill:none;stroke:#fff;stroke-width:.49;stroke-miterlimit:10"/><path d="m95.1 63-7.6 10s-3.4-8.1-1.8-15.7c-.1-.1 5-1.2 9.4 5.7z" class="st5"/><path d="M93.4 65.2 89 70.9s-2-4.6-1-9c0-.1 2.9-.7 5.4 3.3z" class="st2"/><path d="M110.5 61.1h-9.9s.6-9.7 4.9-14c.1.1 4.4 4.2 5 14z" class="st5"/><path d="M108.5 61.1h-5.7s.3-5.5 2.8-8c0 0 2.5 2.4 2.9 8zM97.1 138.7l.6-1.7c-10.9-10.1-16.5-20-16.2-28.5.3-8.8 6.6-13.5 6.7-13.6l-.5-1.8c-.3.2-7 5.3-7.4 15.2-.4 9.6 5.3 19.8 16.8 30.4z" class="st2"/><path d="m91.7 140.5.4-1.2c-12.5-10.1-18.7-19.9-18.3-29 .5-11.9 12.3-18.7 12.4-18.8l-.3-1.2c-2.3 1.4-4.3 3.1-6.2 5-4.2 4.4-6.5 9.5-6.7 14.8-.4 9.7 5.9 19.9 18.7 30.4zM51.2 196.1c.1 10.9 26.9 19.1 59.8 18.5s59.6-10 59.5-20.8-26.9-19.2-59.8-18.5c-32.9.6-59.6 9.9-59.5 20.8z" class="st2"/><ellipse cx="110.8" cy="191.9" rx="68.7" ry="22.6" style="fill:none;stroke:#fff;stroke-width:.32;stroke-miterlimit:10" transform="rotate(-1.202 110.823 191.95) scale(1.00002)"/><ellipse cx="111.3" cy="196" class="st7" rx="51.5" ry="17" transform="rotate(-1.202 111.282 195.981) scale(1.00002)"/><path d="M85.7 211.2c2.7-9.7 8.7-18.4 18.8-21.3 13.5-3.9 26.2 8 27.8 21.2-16 2.9-33 2.3-46.6.1z" class="st8"/><path d="M111.5 211.8h-.4c-8 .8-14.8-8.7-15.3-20.8l-.2-4.8 29.1-2.9.2 4.8c.6 12.2-5.5 22.8-13.4 23.7z" class="st9"/><path d="M113.6 209.7h-.3c-7.4.7-13.8-8.4-14.2-20.1l-.2-4.6 27.1-2.7.2 4.6c.4 11.7-5.2 21.9-12.6 22.8z" class="st10"/><path d="M113.3 202.4h-.3c-7.1.9-13.4-5.2-14.2-13.5v-.6l-.1-3.3 27.5-2.8.1 3.3c.3 8.5-5.5 16.1-13 16.9z" class="st11"/><path d="M92 190.4c2-5.4 5.8-7.8 3.7-13.1L88 157.8c-3.1-7-1.3-16.9 3.8-20l32.5-18.3c7.4-4.6 4.6 19.8 4.6 19.8l2.6 14.8c1 5.4.6 11-.9 16.2-1.1 3.8-1.6 7.7-1.4 11.7l1.6 9.5c-13.4 10.3-29.7 12.1-38.8-1.1z" class="st5"/><defs><path id="SVGID_00000143579240026166559520000015900288074771179438_" d="M92 190.4c2-5.4 5.8-7.8 3.7-13.1L88 157.8c-3.1-7-1.3-16.9 3.8-20l32.5-18.3c7.4-4.6 4.6 19.8 4.6 19.8l2.6 14.8c1 5.4.6 11-.9 16.2-1.1 3.8-1.6 7.7-1.4 11.7l1.6 9.5c-13.4 10.3-29.7 12.1-38.8-1.1z"/></defs><clipPath id="SVGID_00000047771478049705691710000000417711481211062456_"><use xlink:href="#SVGID_00000143579240026166559520000015900288074771179438_" style="overflow:visible"/></clipPath><g style="clip-path:url(#SVGID_00000047771478049705691710000000417711481211062456_)"><path d="M98.9 133.2c1.4 12.6 6.9 21.6 12.2 20.1 5.3-1.5 8.4-13 6.9-25.6-1.4-12.6-6.9-21.6-12.2-20.1-5.3 1.6-8.4 13-6.9 25.6z" class="st10"/><ellipse cx="90.4" cy="163.1" class="st11" rx="10.5" ry="16.6"/><path d="M121.8 138.5c2.3 8.4 8.5 12.3 13.8 8.7 5.3-3.6 7.8-13.4 5.5-21.8s-8.4-12.3-13.8-8.7c-5.3 3.7-7.8 13.4-5.5 21.8z" class="st11"/></g><path d="m132.7 138.9 17.2-27.2c2.8-4.8 2.8-11.1 0-16-2.8-4.4-7.3-4.4-10 0L122.7 123c-2.8 4.8-2.8 11.1 0 16 2.7 4.3 7.2 4.3 10-.1z" class="st10"/><path d="m148.1 116.3 1.9-2.9c3.1-5.3 3.1-12.3 0-17.6-3.1-4.9-8-4.9-11.1 0l-1.9 2.9c-3.1 5.3-3.1 12.3 0 17.6 3 4.8 8 4.8 11.1 0z" class="st8"/><path d="m81.4 194.2 14.8-30.6c2.4-4.9 1.8-12-1.3-15.8-3.1-3.8-7.6-2.9-10 2.1l-14.8 30.5c-2.4 4.9-1.8 12 1.3 15.8 3.2 3.9 7.6 2.9 10-2z" class="st10"/><path d="M77.8 192.8c-2.6 3.8-6.7 3.5-9.1-.7l-12.5-21.8c-2.4-4.4-2.2-10.2.5-14.4 2.6-3.8 6.7-3.5 9.1.7l12.5 21.8c2.3 4.4 2.2 10.2-.5 14.4z" class="st10"/><path d="M67.4 177.9c1.3.1 2.4-1.5 2.5-3.6s-.9-3.8-2.3-4c-1.3-.1-2.4 1.5-2.5 3.6 0 2.2 1 3.9 2.3 4z" class="st11"/><path d="m67.1 173.1-.7-1.2c0-.1-.1-.1-.2 0s-.1.2 0 .3l.7 1.2c0 .1.1.1.2 0s.1-.3 0-.3zM67 175.2l-.8 1.1c0 .1-.1.1-.2 0s-.1-.2 0-.3l.7-1.1c0-.1.1-.1.2 0 .2.1.2.3.1.3zM68.1 173.1l.7-1.1c0-.1.1-.1.2 0s.1.2 0 .3l-.8 1.1c0 .1-.1.1-.2 0 0 0 .1-.2.1-.3zM68 175.3l.7 1.2c0 .1.1.1.2 0s.1-.2 0-.3l-.7-1.2c0-.1-.1-.1-.2 0v.3z" class="st10"/><path d="M112.6 103.2c1.3 11.3-12.1 23.1-19.8 17.7-9.5-23-4.8-46.3 11-51.7 7.1-2.5 7.5 22.7 8.8 34z" class="st11"/><path d="M121.6 90.4c.9 4.8-.7 9.7-3.6 11-2.9 1.3-5.9-1.4-6.8-6.2-.9-4.7.7-9.7 3.6-11 2.9-1.3 6 1.4 6.8 6.2z" class="st11"/><path d="m102 137.2-1.4-18.9 11.1-2.1 1.4 18.9c.4 4.9-1.8 9.3-4.9 9.9-3 .6-5.8-2.9-6.2-7.8z" class="st10"/><defs><path id="SVGID_00000000916913354824379300000014689762531129412517_" d="m102 137.2-1.4-18.9 11.1-2.1 1.4 18.9c.4 4.9-1.8 9.3-4.9 9.9-3 .6-5.8-2.9-6.2-7.8z"/></defs><clipPath id="SVGID_00000180335365700535134910000016904925432368469915_"><use xlink:href="#SVGID_00000000916913354824379300000014689762531129412517_" style="overflow:visible"/></clipPath><path d="M103.3 119.5c0 3.5 2.4 6.4 5.4 6.5 2.9.4 5.4-2.1 5.7-5.5v-.2c0-3.5-2.4-6.4-5.4-6.5-2.9-.4-5.4 2.1-5.7 5.4v.3z" class="st11" style="clip-path:url(#SVGID_00000180335365700535134910000016904925432368469915_)"/><path d="M90.2 101.2c3 15.8 13.5 24.2 20.7 22.2s10.4-19.2 7.5-35.3C115.6 72.2 107.1 62.2 99 66s-11.8 19.4-8.8 35.2z" class="st10"/><path d="M94.1 92.3c1.6-4 7.5-6 9-3.7-3 .8-6.1 2.1-9 3.7zM115.4 82.8c-1.6-3.1-7.6-.9-8 3 0 .1 3.9-3.3 8-3z" class="st9"/><path d="M103.4 108.4c.6-1.7 9-4.8 9.7-3.7.7 1.1-.6 8.9-4.2 9.2s-6.1-3.8-5.5-5.5z" style="fill:#8e0d42"/><defs><path id="SVGID_00000156589823760487043440000005806198935619658167_" d="M103.4 108.4c.6-1.7 9-4.8 9.7-3.7.7 1.1-.6 8.9-4.2 9.2s-6.1-3.8-5.5-5.5z"/></defs><clipPath id="SVGID_00000127744281256431534310000002794535181570953140_"><use xlink:href="#SVGID_00000156589823760487043440000005806198935619658167_" style="overflow:visible"/></clipPath><g style="clip-path:url(#SVGID_00000127744281256431534310000002794535181570953140_)"><path d="M112.8 111.3c.3 1.7-1.1 3.8-3.1 4.8s-4 .4-4.3-1.3c-.3-1.7 1.1-3.8 3.1-4.8 2.1-1 4-.4 4.3 1.3z" class="st11"/><path d="M112.7 104.5c.2 1-2 2.6-4.1 3.6-2.1 1-4.3.4-4.5-.6s1.7-2 3.8-3c2.2-1 4.7-1 4.8 0z" class="st5"/></g><path d="m107.4 96.8.8 4.2c.2.9.8 1.4 1.3 1.2.7-.5.9-1.6.5-2.5 0 0 0-.1-.1-.1-.7-1.1-1.4-2.1-2.2-3-.1-.3-.3-.1-.3.2z" class="st11"/><path d="m96 97.4-1.4-1.6c3.6-5.5 7.4-5.7 9.8-.7L96 97.4z" class="st9"/><path d="M104.7 96.2c-.3-1.2-.9-2.3-1.8-3.1-1.8-1.4-4.8-1.2-7 4.3.1 0 4.3 5.5 8.8-1.2z" class="st5"/><defs><path id="SVGID_00000121996656171621740190000006955795847702795965_" d="M104.7 96.2c-.3-1.2-.9-2.3-1.8-3.1-1.8-1.4-4.8-1.2-7 4.3.1 0 4.3 5.5 8.8-1.2z"/></defs><clipPath id="SVGID_00000095313660475021048450000008080228513513126792_"><use xlink:href="#SVGID_00000121996656171621740190000006955795847702795965_" style="overflow:visible"/></clipPath><path d="M97.2 96.7c.6 1.9 2 2.7 3.2 1.8 1.2-1.3 1.7-3.3 1-5.1-.6-1.9-2-2.7-3.2-1.8-1.2 1.3-1.6 3.3-1 5.1z" class="st2" style="clip-path:url(#SVGID_00000095313660475021048450000008080228513513126792_)"/><path d="M101.3 94.9c.1.6-.1 1.1-.5 1.4-.4.2-.8-.2-.9-.8-.1-.5.1-1.1.5-1.4.3-.2.7.1.9.8zM99.8 97.3c0 .2 0 .5-.2.6-.2.1-.3-.1-.4-.3-.1-.2 0-.5.2-.6.2-.1.4.1.4.3z" class="st7"/><path d="m116.5 87.7.5-2.6c-4.4-2-8.8 2.5-8.2 9.1l7.7-6.5z" class="st9"/><path d="M108.8 94.3c-.2-1.4 0-2.8.4-4.1 1-2.7 3.6-5.2 7.3-2.5 0 0-1.6 8.4-7.7 6.6z" class="st5"/><defs><path id="SVGID_00000029041211925214532790000003233881632125284999_" d="M108.8 94.3c-.2-1.4 0-2.8.4-4.1 1-2.7 3.6-5.2 7.3-2.5 0 0-1.6 8.4-7.7 6.6z"/></defs><clipPath id="SVGID_00000097470866557832224400000012996178586399518637_"><use xlink:href="#SVGID_00000029041211925214532790000003233881632125284999_" style="overflow:visible"/></clipPath><path d="M113.7 89.4c.2 2.1-.8 3.9-2 4.2-1.3.2-2.5-1.2-2.6-3.3s.8-3.9 2-4.2c1.2-.2 2.4 1.3 2.6 3.3z" class="st2" style="clip-path:url(#SVGID_00000097470866557832224400000012996178586399518637_)"/><path d="M112.7 89.1c.1.5-.1 1.1-.5 1.4-.4.2-.8-.2-.9-.8-.1-.5.1-1.1.5-1.4.4-.1.8.2.9.8zM111.3 91.6c.1.2 0 .5-.2.6-.2.1-.3-.1-.4-.3-.1-.2 0-.5.2-.6.2-.1.4.1.4.3z" class="st7"/><path d="M140.4 111.2c-3-4-3.2-10.9-.5-15.4l20.9-31.6 8.4 12.2-18.5 34c-2.8 4.4-7.3 4.8-10.3.8z" class="st10"/><defs><path id="SVGID_00000025439815290151322200000012296265123310338722_" d="M140.4 111.2c-3-4-3.2-10.9-.5-15.4l20.9-31.6 8.4 12.2-18.5 34c-2.8 4.4-7.3 4.8-10.3.8z"/></defs><clipPath id="SVGID_00000036220341683817627480000017802339063522372025_"><use xlink:href="#SVGID_00000025439815290151322200000012296265123310338722_" style="overflow:visible"/></clipPath><g style="clip-path:url(#SVGID_00000036220341683817627480000017802339063522372025_)"><path d="m141.2 94.5-2.9-4.4c-1.3-2.1-1.3-5 .1-7.1l9.6-14.5c.9-1.5 2.7-1.9 3.9-.9.3.2.6.5.8.9l2.9 4.4c1.3 2.1 1.3 5-.1 7.1l-9.7 14.4c-.9 1.5-2.6 2-3.9.9-.2-.2-.5-.5-.7-.8z" style="fill:none;stroke:#772ac3;stroke-width:.28;stroke-miterlimit:10"/><path d="m141.7 92.9-2.1-3.3c-1-1.6-1-3.7 0-5.3l7.2-10.8c.7-1.1 2-1.4 2.9-.7.2.2.4.4.6.7l2.1 3.3c1 1.6 1 3.7 0 5.3l-7.2 10.8c-.7 1.1-2 1.4-3 .6-.2-.1-.4-.3-.5-.6z" style="opacity:.5;fill:#e23875;enable-background:new"/><path d="M153.6 86.6c-.2.2-.3.5-.2.8 0 .2.2.4.4.4h.1c.2-.2.3-.5.2-.8 0-.4-.2-.5-.5-.4 0-.1 0-.1 0 0zM152 88.8c-.2.2-.3.5-.2.8 0 .2.2.4.4.4h.1c.2-.2.3-.5.2-.8 0-.2-.2-.4-.4-.4h-.1z" class="st8"/></g><path d="M172.5 66c.9 7.9-2.4 15.4-7.4 16.9-5 1.4-9.8-3.8-10.7-11.7s2.4-15.4 7.4-16.9c5-1.4 9.8 3.8 10.7 11.7z" class="st8"/><path d="M172.4 71.1c-.6 1.7-2 2.4-3.1 1.4-1.2-1.3-1.5-3.3-.9-5 .6-1.8 2-2.4 3.1-1.4 1.2 1.3 1.6 3.3.9 5z" class="st11"/><path d="M169.5 70.3c.6 1.7 1.9 2.4 2.9 1.5l8-7.7c1.1-1.1 1.6-3.4 1.3-5.8-.1-1.2-.9-1.9-1.4-1.4l-10.2 8.9c-.9 1.1-1.2 2.9-.6 4.5z" class="st10"/><path d="M171.9 65.7c-.4 2.2-1.9 3.5-3.3 2.8-1.4-.7-2.2-3-1.8-5.3.4-2.2 1.9-3.5 3.3-2.8 1.4.7 2.2 3.1 1.8 5.3z" class="st11"/><path d="M168.5 66c1 1.7 2.6 2 3.5.6l7.8-11.9c1.1-2.1 1.3-4.8.6-7.1-.3-1.2-1.3-1.8-1.8-1.1l-10 14c-1 1.6-1 3.8-.1 5.5z" class="st10"/><path d="M164.2 56c.5 2.4-.3 4.8-1.8 5.6-1.5.8-3-.5-3.5-2.8s.3-4.8 1.8-5.6c1.4-.8 3 .5 3.5 2.8z" class="st11"/><path d="M161.4 59.6c1.5.5 3-.8 3.2-2.9l2.1-17.7c.3-2.5-.6-5-2.3-6.6-.5-.5-1.2-.5-1.6.1-.2.2-.3.5-.3.8L159.3 55c-.3 1.8.5 3.8 2.1 4.6z" class="st10"/><path d="M169.8 59.8c-.1 2.4-1.4 4.3-2.9 4.3-1.5-.1-2.8-2.2-2.7-4.6.1-2.4 1.4-4.3 2.9-4.3 1.5.1 2.7 2.1 2.7 4.6z" class="st11"/><path d="M166.3 61.5c.8 1 2.2 1.1 3.1.1.2-.3.4-.6.5-1l5.9-15.4c.8-2.5.6-5.2-.6-7.5-.6-1.1-1.6-1.3-2-.3l-7.9 18.5c-.7 1.9-.3 4.2 1 5.6z" class="st10"/><path d="M160.2 65.3c.5 2.5-.3 5.2-1.9 5.9-1.6.8-3.3-.5-3.8-3s.3-5.2 1.9-5.9c1.6-.7 3.3.5 3.8 3z" class="st11"/><path d="M154.3 52.6v11.5c0 2.3 1.2 4.1 2.6 4.1 1.4 0 2.6-1.8 2.6-4.1l-.2-9.7c-.1-2.4-1.1-4.3-2.5-4.9-1.3-.4-2.5 1.1-2.5 3.1z" class="st10"/><path d="m92.4 82.5 2.8 3c.4.5 1 .7 1.5.5l4.8-1.4" style="fill:none;stroke:#e23875;stroke-width:.65;stroke-linecap:round;stroke-miterlimit:10"/><path d="M99.3 82.1c0 .3.2.5.4.4.2-.1.3-.4.3-.6 0-.3-.2-.5-.4-.4-.2.1-.3.4-.3.6zM98.4 81.1c0 .3.2.5.4.4.2-.1.3-.4.3-.6 0-.3-.2-.5-.4-.4-.3 0-.4.3-.3.6zM98 82.5c0 .3.2.5.4.4.2-.1.3-.4.3-.6 0-.3-.2-.5-.4-.4-.2.1-.4.4-.3.6zM97 81.5c0 .3.2.5.4.4.2-.1.3-.4.3-.6 0-.3-.2-.5-.4-.4-.2 0-.4.3-.3.6z" class="st11"/><path d="M95.8 102.4c.9 4.8-.6 9.6-3.3 10.9-2.7 1.3-5.7-1.5-6.5-6.3-.9-4.7.6-9.6 3.3-10.9 2.7-1.2 5.6 1.6 6.5 6.3z" class="st10"/><path d="M88.5 106.8c-.6-3.1.4-6.2 2.1-7 .9-.4 1.9-.2 2.6.6-.7-1.4-2.2-2.1-3.5-1.6-1.9.9-2.9 4.2-2.3 7.5.5 2.7 2 4.5 3.6 4.5-1.4-.7-2.3-2.2-2.5-4z" class="st11"/><path d="M84.8 146.5c-4.1 1.2-7 6.3-7.7 12.4 1.2-3.7 3.4-6.5 6.1-7.3 4.7-1.3 9.1 3.6 10 10.9.5 4.1-.3 8.3-2.2 11.8 3.5-3 5.5-9.3 4.8-15.8-.9-8.1-5.9-13.5-11-12zM122.5 114.8c1.5-6.1 5.2-9.9 9.1-9.7-2.5 1.2-4.6 4.1-5.6 8.2-1.7 7 .6 14.9 5 17.5 2.6 1.5 5.7 1 7.7-1.4-2.5 4.9-6.8 7-10.7 4.6-4.9-2.8-7.4-11.4-5.5-19.2z" class="st5"/><path d="M130.6 67.3c-9.3-18.5-20.3-7.6-20.3-7.6L117 53c-46.7 9.3-27.5 43-27.5 43s7.6-2.9 5.2-18.6c21.4-12.2 29.8 24.7 29.8 24.7 2.7-19 .9-29.6-2.1-35.4 5.5 4.3 7.2 18.8 7.2 18.8.5-10.5-1.4-16.9-4.1-20.8l5.1 2.6zM86.6 170c.4 3.1-.9 6.1-2.9 6.6s-3.8-1.5-4.2-4.6.9-6.1 2.9-6.6 3.8 1.5 4.2 4.6z" class="st11"/><path d="M85.8 170.2c.3 2.4-.7 4.8-2.3 5.2-1.5.4-3-1.2-3.3-3.6-.2-2.4.7-4.8 2.3-5.2 1.6-.3 3 1.2 3.3 3.6z" class="st10"/><path d="M82.6 169.8c.1.5-.1 1-.5 1.2-.4.1-.7-.3-.7-.8-.1-.5.1-1 .5-1.2.3-.1.6.3.7.8zM76.5 185c.1.5-.1 1.1-.6 1.3-.4.1-.7-.3-.8-.9-.1-.5.1-1.1.6-1.3.4-.1.7.3.8.9zM78.3 184.5c.1.5-.1 1-.6 1.3-.4.1-.7-.3-.8-.9-.1-.5.1-1 .6-1.3.4-.1.8.3.8.9zM80.3 183.9c.1.5-.1 1.1-.6 1.3-.4.1-.7-.3-.8-.9-.1-.5.1-1.1.5-1.3.4-.1.8.3.9.9zM77.6 187.5c.1.5-.1 1-.6 1.3-.4.1-.7-.3-.8-.9-.1-.5.1-1 .6-1.3.4 0 .8.4.8.9zM79.5 187c.1.5-.1 1.1-.6 1.3-.4.1-.7-.3-.8-.9-.1-.5.1-1.1.6-1.3.4-.1.8.3.8.9z" class="st11"/><path d="M82.2 106.6c.8 6.6 4.3 11.2 7.9 10.1 3.6-1 5.9-7.2 5.2-13.9S91 91.7 87.4 92.7c-3.6 1.1-6 7.3-5.2 13.9z" class="st5"/><path d="M82 106.6c.7 5.9 3.9 10.1 7.1 9.1 3.3-.9 5.3-6.6 4.7-12.5-.7-5.9-3.9-10.1-7.1-9.1-3.3.9-5.3 6.5-4.7 12.5z" class="st9"/><path d="M81.4 106.7c.6 5.4 3.5 9.1 6.5 8.3 3-.8 4.8-5.9 4.2-11.3-.6-5.4-3.5-9.1-6.5-8.3-2.9.8-4.8 6-4.2 11.3z" class="st11"/><path d="M86.7 102.7c.1 1 .6 1.6 1.1 1.5.5-.2.9-1 .7-2-.1-1-.6-1.6-1.1-1.5-.5.1-.8 1-.7 2z" class="st9"/><path d="M91.1 65.8s-12.4 9-5.6 28.1l4.1-.3s-5.9-14.9 1.5-27.8z" class="st5"/><path d="m86.6 109.8 2.9-.9-.9-2-2.9.9zM85.8 110l.6-.2-.9-2-.6.2zM84.8 110.3l.7-.2-.9-2-.7.2z" class="st9"/><path d="M105.7 174.5c.8 7.1 5.1 11.9 9.7 10.6 4.5-1.3 7.5-8.2 6.7-15.3s-5.1-11.9-9.7-10.6c-4.5 1.3-7.5 8.1-6.7 15.3z" class="st11"/><path d="m111.1 173.5 2.4-4.7 3.3 3-.4-3.6-3.3-3-2.4 4.6z" class="st5"/><path d="m111.8 179.8 2.4-4.7 3.3 3-.4-3.6-3.3-3-2.4 4.7z" class="st5"/><path d="m89.1 82.3 7-2c.3-.1.4-.4.3-.7 0-.3-.3-.6-.5-.5l-7 2c-.3.1-.4.4-.3.7.1.4.3.6.5.5zM89.1 86.3l7-2c.3-.1.4-.4.3-.7 0-.3-.3-.6-.5-.5l-7 2c-.2.1-.4.4-.3.7.1.3.3.5.5.5z" class="st10"/><ellipse cx="57.3" cy="156" class="st8" rx="10.3" ry="16.3"/><path d="M47.3 152.7c0 2.9 1.5 5.3 3.4 5.3 1.8 0 3.3-2.4 3.3-5.3s-1.5-5.3-3.4-5.3c-1.8 0-3.3 2.4-3.3 5.3z" class="st11"/><path d="M48.4 149.3h4.5c1.3 0 2.3-1.6 2.3-3.6s-1-3.6-2.3-3.6h-4.5c-1.3 0-2.3 1.6-2.3 3.6s1 3.6 2.3 3.6z" class="st11"/><path d="m52.6 151.8-3.7-8c-.4-1.2-1.5-1.8-2.5-1.3-.3.1-.5.3-.7.5-1 1.4-1.2 3.4-.5 5.1l3.7 8c.4 1.2 1.5 1.8 2.5 1.3.3-.1.5-.3.7-.5 1.1-1.5 1.3-3.5.5-5.1z" class="st10"/><path d="m51.2 159.1-5.5-10.5c-2 2.9-2.2 7-.6 10.2l2.5 4.9c.4 1.1 1.6 1.6 2.6 1.1.3-.1.5-.4.7-.6.9-1.4 1.1-3.4.3-5.1zM60.6 147.9c-1.5.3-2.8-1.4-3-3.8l-1-19.6c-.2-2.6.8-5.2 2.6-6.7.6-.4 1.3-.2 1.7.5.1.2.2.5.2.8l1.8 24.2c.2 2.2-.8 4.3-2.3 4.6zM55.7 148.3c-1.4 1-3 0-3.6-2.2L47.3 128c-.6-2.6-.2-5.5 1.1-7.7.3-.6.9-.9 1.5-.5.3.2.5.5.5.8l6.5 22.1c.7 2.1.2 4.3-1.2 5.6z" class="st10"/><path d="M63.2 151.1c-.5 2.8.5 5.8 2.3 6.5 1.8.8 3.6-.8 4.1-3.6s-.5-5.7-2.3-6.5c-1.8-.9-3.6.8-4.1 3.6z" class="st11"/><path d="m70.6 139.2-5.5 9.5c-1.1 2-1 4.6.2 6.5v.1c.8 1.3 2.3 1.6 3.4.7.3-.2.5-.6.7-.9l4.5-8.3c1.1-2.2 1.2-4.8.2-7.1-.4-1.2-1.5-1.8-2.5-1.4-.4.1-.8.4-1 .9z" class="st10"/></g><linearGradient id="SVGID_00000131325151443345786970000009025882101691534486_" x1="-411.605" x2="-235.348" y1="104.222" y2="104.222" gradientTransform="matrix(1.5 -.01 -.22 -1 621.2 209.1)" gradientUnits="userSpaceOnUse"><stop offset="0" style="stop-color:#00253f"/><stop offset=".52" style="stop-color:#7dd6f8"/><stop offset="1" style="stop-color:#4fb9f2"/></linearGradient><path d="M205.6 1H21.4C10.2 1 1 13.3 1 28.6v159.1c0 15.2 9.2 27.6 20.4 27.6h184.1c11.3 0 20.4-12.3 20.4-27.6V28.6C226 13.3 216.8 1 205.6 1z" style="fill:none;stroke:url(#SVGID_00000131325151443345786970000009025882101691534486_);stroke-width:2;stroke-miterlimit:10"/></g></g></svg>