<svg xmlns="http://www.w3.org/2000/svg" xmlns:xlink="http://www.w3.org/1999/xlink" xml:space="preserve" id="Layer_1" x="0" y="0" style="enable-background:new 0 0 212 197" version="1.1" viewBox="0 0 212 197"><style>.st1{opacity:.2;enable-background:new}.st1,.st2{fill:#036df9}.st3{fill:none;stroke:#036df9;stroke-width:.47;stroke-miterlimit:10}.st7{fill:#772ac3}.st9{fill:#99faff}.st10{fill:#fff}.st11{fill:#e23875}.st12{fill:#01056a}.st13{fill:#ff83a8}</style><g id="Layer_2_00000025404786414926905190000014742566240642510013_"><g id="Layer_3"><defs><path id="SVGID_1_" d="m-1.6 166.1.9-135.7C-.6 13.9 11.3.6 25.9.6H187c14.7 0 26.6 13.4 26.6 30v.4l-1.3 135.8c-.2 16.5-12 29.7-26.6 29.7H25c-14.7 0-26.6-13.5-26.6-30.1v-.3z"/></defs><clipPath id="SVGID_00000159464068361484774810000013704492814569899194_"><use xlink:href="#SVGID_1_" style="overflow:visible"/></clipPath><g style="clip-path:url(#SVGID_00000159464068361484774810000013704492814569899194_)"><path d="m170.7 119-51.5-16.7c-6.3-2-8.2-13.6-3.4-19.7l17.6-21.9c5-6.2 11.7-8.7 18.1-6.6L203 70.7c6.3 2 8.2 13.6 3.4 19.7l-17.5 21.9c-5.1 6.3-11.8 8.8-18.2 6.7z" class="st1"/><path d="m159.3 87.3-51.6-16.7c-6.3-2-8.2-13.6-3.4-19.7L121.9 29c5-6.2 11.7-8.7 18.1-6.6L191.5 39c6.3 2 8.2 13.6 3.4 19.7l-17.5 21.9c-5 6.3-11.7 8.8-18.1 6.7zM56.9 165.6l-32.5-10.5c-3.9-1.3-5.2-8.6-2.1-12.4l11-13.8c3.1-3.9 7.4-5.5 11.4-4.2l32.5 10.5c4 1.3 5.2 8.6 2.1 12.4l-11 13.8c-3.2 4-7.4 5.6-11.4 4.2z" class="st1"/><path d="m49.7 145.7-32.5-10.5c-4-1.3-5.2-8.6-2.1-12.4L26.2 109c3.1-3.9 7.4-5.4 11.4-4.2L70 115.3c3.9 1.3 5.2 8.6 2.1 12.4L61 141.5c-3 4-7.3 5.5-11.3 4.2z" class="st1"/><path d="m199.9 87.2-18.6-6c-.7-.4-.9-1.3-.6-2.1 0 0 0-.1.1-.1.2-.4.6-.6 1-.5l18.7 6c.7.4.9 1.3.6 2 0 0 0 .1-.1.1-.3.5-.7.7-1.1.6zM186.9 87.9l-6.4-2.1c-.7-.4-1-1.3-.6-2 0 0 0-.1.1-.1.2-.4.6-.6 1-.5l6.4 2.1c.7.4.9 1.3.6 2.1v.1c-.4.2-.8.4-1.1.4zM164 38.2l-32.4-10.5c-.7-.3-1.1-1.2-.9-2 .1-.9.8-1.5 1.4-1.3l32.4 10.5c.7.3 1.1 1.2.9 2-.2 1-.8 1.5-1.4 1.3zM177.5 42.6l-7.7-2.5c-.7-.3-1.1-1.2-.9-2 .1-.9.8-1.5 1.4-1.3l7.7 2.5c.7.3 1.1 1.2.9 2-.1 1-.7 1.5-1.4 1.3zM187.6 45.9l-4-1.3c-.7-.3-1.1-1.2-.9-2 .1-.9.8-1.5 1.4-1.3l4 1.3c.7.3 1.1 1.2.9 2-.2.9-.8 1.5-1.4 1.3zM137.9 39l-7.7-2.5c-.7-.3-1.1-1.2-.9-2 .1-.9.8-1.5 1.4-1.3l7.7 2.5c.7.3 1.1 1.2.9 2-.2.9-.8 1.5-1.4 1.3zM147.9 42.2l-4-1.3c-.7-.3-1.1-1.2-.9-2 .1-.9.8-1.5 1.4-1.3l4 1.3c.7.3 1.1 1.2.9 2-.1.9-.7 1.5-1.4 1.3zM160.4 65.7l-9.9-3.2c-.8-.4-1.3-1.5-1.1-2.5.2-1.1 1-1.8 1.7-1.6l9.9 3.2c.8.4 1.3 1.4 1.1 2.4-.2 1.3-1 2-1.7 1.7z" class="st2"/><path d="m160.9 63.8 10.8-10.4c.3-.3.7-.4 1.1-.3l5.4 1.7" class="st3"/><path d="M181.5 55.9c.4-2.7-.7-5.3-2.6-5.9s-3.6 1.1-4 3.8c-.4 2.7.7 5.3 2.6 5.9 1.7.5 3.5-1.2 4-3.8z" class="st3"/><path d="M179.7 55.3c.2-1.1-.3-2.3-1.2-2.8-.9-.3-1.7.5-1.9 1.8-.3 1.2.3 2.3 1.2 2.8.9.3 1.7-.5 1.9-1.8zM167.7 122.3l-1.3 8.5c-.1.6.3 1.1.7.8l4.5-3c.3-.3.4-.8.2-1.1l-3.2-5.5c-.3-.5-.8-.2-.9.3zM172.8 124l-1.3 8.5c-.1.6.3 1.1.7.8l4.5-3c.3-.3.4-.8.2-1.1l-3.2-5.5c-.2-.5-.8-.3-.9.3z" class="st2"/><ellipse cx="44.9" cy="49.1" class="st1" rx="42.1" ry="28.8" transform="rotate(-89.893 44.887 49.129)"/><defs><path id="SVGID_00000155847957812169205830000008823665118490395552_" d="M49.3 56c2.6-3.9 2.7-9.2.4-13.3-2.4-3.8-6.5-4-9.1-.5-2.6 3.9-2.8 9.2-.4 13.3 2.4 3.8 6.4 4.1 9.1.5z"/></defs><clipPath id="SVGID_00000027600989274022215500000000696313788251070110_"><use xlink:href="#SVGID_00000155847957812169205830000008823665118490395552_" style="overflow:visible"/></clipPath><g style="clip-path:url(#SVGID_00000027600989274022215500000000696313788251070110_)"><path d="m45.4 60.2-8.8-13.9c-.1-.2-.1-.5 0-.7.1-.2.3-.2.4-.1l.1.1 8.8 13.9c.1.2.1.5 0 .7-.1.2-.3.2-.4.1-.1 0-.1 0-.1-.1zM44 62.1l-8.8-13.9c-.1-.2-.1-.5 0-.7.1-.2.3-.2.4-.1 0 0 .1 0 .1.1l8.8 13.9c.1.2.1.5 0 .7-.1.1-.3.2-.5 0 .1 0 .1 0 0 0zM39.2 42.8l8.9 14.1c.1.2.3.2.4.1l.1-.1c.1-.2.1-.5 0-.7l-8.9-14.1c-.1-.2-.3-.2-.4-.1l-.1.1c-.2.2-.2.5 0 .7zM37.8 44.7l8.9 14.1c.1.2.3.2.4.1l.1-.1c.1-.2.1-.5 0-.7L38.3 44c-.1-.2-.3-.2-.4-.1l-.1.1c-.1.2-.1.5 0 .7zM50.7 53.1l-8.8-13.9c-.1-.2-.1-.5 0-.7.1-.2.3-.2.4-.1l.1.1 8.8 13.9c.1.2.1.5 0 .7-.1.2-.3.2-.4.1-.1 0-.1 0-.1-.1zM49.3 54.9 40.5 41c-.1-.2-.1-.5 0-.7.1-.2.3-.2.4-.1l.1.1 8.8 13.9c.1.2.1.5 0 .7-.1.2-.3.2-.4.1l-.1-.1zM44.5 35.7l8.9 14.1c.1.2.3.2.4.1l.1-.1c.1-.2.1-.5 0-.7l-9-14.1c-.1-.2-.3-.2-.4-.1l-.1.1c-.1.2-.1.5.1.7zM43.1 37.5 52 51.6c.1.2.3.2.4.1 0 0 .1 0 .1-.1.1-.2.1-.5 0-.7l-8.9-14.1c-.1-.2-.3-.2-.4-.1l-.1.1c-.1.2-.1.5 0 .7z" class="st2"/></g><ellipse cx="44.9" cy="49.1" rx="35.4" ry="24.2" style="fill:none;stroke:#036df9;stroke-width:.68;stroke-miterlimit:10" transform="rotate(-89.893 44.887 49.129)"/><path d="m72.4 19.2-5-7.8c-.4-.6-1-.3-1.1.5l-1 8.7c-.1.6.3 1.1.7 1.1l6-.9c.5-.1.8-1 .4-1.6zM17.4 79l5 7.9c.3.6 1 .3 1.1-.5l1-8.7c.1-.6-.3-1.1-.7-1.1l-6 .8c-.5.2-.8 1.1-.4 1.6z" class="st2"/><path d="M33.6 64.7c-6.1-9.6-5.7-24.6.9-33.5s16.9-8.4 23 1.3 5.7 24.6-.9 33.5" style="fill:none;stroke:#036df9;stroke-width:.56;stroke-miterlimit:10"/><path d="M32.6 63c-.6.9-.7 2.3-.1 3.2.4.7 1.2.9 1.8.5.2-.1.3-.2.4-.4.6-.9.7-2.3.1-3.2-.4-.7-1.2-1-1.8-.5-.2.1-.3.3-.4.4zM55.6 64.3c-.6.9-.7 2.3-.1 3.2.4.7 1.2.9 1.8.5.2-.1.3-.2.4-.4.7-1 .7-2.3.1-3.3-.4-.7-1.2-.9-1.8-.5-.2.2-.3.3-.4.5z" class="st2"/><path d="m119 114.8-.9-1.3c9-13.5 12.8-24.7 11.1-32.4-1.8-7.8-8.8-9.7-8.9-9.7l.2-1.8c.3.1 7.9 2 9.9 10.9 1.9 8.5-2 20-11.4 34.3z" class="st7"/><path d="m124.5 114.2-.6-.9c10.5-14.2 14.9-25.6 13-33.7-2.5-10.6-15.3-12.1-15.4-12.1l.1-1.2c2.4.3 4.7 1.1 7 2.1 4.9 2.3 8 6 9.1 10.8 2.1 8.7-2.3 20.4-13.2 35z" class="st7"/><ellipse cx="99.5" cy="179.4" class="st2" rx="61.2" ry="18.5" transform="rotate(-.821 99.504 179.444)"/><ellipse cx="99.5" cy="170.3" class="st1" rx="91.3" ry="27.7" transform="rotate(-.821 99.451 170.299)"/><ellipse cx="99.5" cy="176.6" rx="70.4" ry="21.3" style="fill:none;stroke:#fff;stroke-width:.32;stroke-miterlimit:10" transform="rotate(-.821 99.491 176.642)"/><ellipse cx="99.5" cy="182" class="st9" rx="52.8" ry="16" transform="rotate(-.821 99.52 181.994)"/><path d="m111.1 103-27.3.1c-12.4 0-21.9 16.7-20.1 35.1l5.7 57.7c18.8 3.1 37.8 3 56.6-.2l5.2-58.1c1.7-18.3-7.8-34.6-20.1-34.6z" class="st10"/><path d="M52.8 148.6c4 4.9 10 4.2 13.4-1.7L80 123.1c3.4-5.9 2.9-14.6-1.1-19.6-4-4.9-10-4.2-13.4 1.7L51.6 129c-3.4 5.9-2.8 14.7 1.2 19.6zM145.3 151c4.2-4.6 5-13.3 1.9-19.5l-8-15.4c-3.2-6.1-9.1-7.3-13.3-2.7-4.2 4.6-5 13.3-1.9 19.5l8 15.5c3.1 6 9.1 7.2 13.3 2.6z" class="st11"/><path d="M135.9 153.2c3.9 3.3 8.9 1.4 11.2-4.3l13.8-34.1c2.3-5.7 1-13-2.9-16.4-3.9-3.4-8.9-1.5-11.2 4.3L133 136.8c-2.3 5.7-1 13 2.9 16.4z" class="st11"/><path d="M149.3 120.4c3.6 3.1 8.2 1.3 10.3-3.9l1.7-4.2c2.1-5.2 1-11.9-2.7-15-3.6-3.1-8.2-1.3-10.3 3.9l-1.7 4.2c-2 5.2-.8 11.9 2.7 15z" class="st12"/><path d="m151.2 112.5 1.9 1.6c3 2.6 7 1.1 8.7-3.3 1.8-4.4.8-10.2-2.3-12.8l-1.9-1.7c-3-2.6-7-1.1-8.7 3.3-1.7 4.6-.7 10.3 2.3 12.9z" class="st9"/><path d="m62.1 151.8.2-.2c3.9-3.6 5-11.1 2.6-16.8l-12.2-28.1c-2.5-5.7-7.7-7.3-11.5-3.7l-.2.2c-3.9 3.6-5 11.1-2.6 16.8l12.2 28.1c2.5 5.6 7.7 7.3 11.5 3.7z" class="st11"/><path d="M52 128.3c3.6-3.3 4.6-10.2 2.3-15.4l-2.8-6.4c-2.3-5.2-7-6.7-10.5-3.4-3.6 3.2-4.6 10.2-2.3 15.4l2.8 6.4c2.3 5.2 7 6.7 10.5 3.4z" class="st12"/><path d="m48.7 121.4.5-.4c3.4-3.2 4.4-9.8 2.3-14.8-2.2-5-6.7-6.5-10.1-3.2l-.5.4c-3.4 3.2-4.4 9.8-2.3 14.8 2.2 5 6.7 6.4 10.1 3.2z" class="st9"/><path d="M79.4 87.9c-.6 4.1 8.2 10.4 19.7 14.1s21.4 3.5 22-.6c.6-4.1-8.2-10.4-19.7-14.1s-21.4-3.4-22 .6z" class="st7"/><path d="M85.2 92c-.4 2.9 5.8 7.3 14 10 8.1 2.6 15.1 2.4 15.6-.4.4-2.9-5.8-7.3-14-10s-15.2-2.4-15.6.4z" class="st12"/><ellipse cx="92.4" cy="64.4" class="st11" rx="8.4" ry="5.5" transform="matrix(.03502 -.9994 .9994 .03502 24.715 154.49)"/><path d="M98.7 34.6s-14.3-.5-1.7 15.1c0 0 6.4-11.2 1.7-15.1z" class="st7"/><path d="m106.9 113.1 2.9-26.1-16.7-3.9-2.9 26.1c-.7 6.7 2.4 13 7 14.1 4.6 1.1 9-3.5 9.7-10.2z" class="st13"/><defs><path id="SVGID_00000117637077509534260170000007302702039757248184_" d="m106.9 113.1 2.9-26.1-16.7-3.9-2.9 26.1c-.7 6.7 2.4 13 7 14.1 4.6 1.1 9-3.5 9.7-10.2z"/></defs><clipPath id="SVGID_00000026145728418628877420000017015342035991405209_"><use xlink:href="#SVGID_00000117637077509534260170000007302702039757248184_" style="overflow:visible"/></clipPath><path d="M105.6 88.4c0 4.7-3.7 8.5-8.3 8.6s-8.4-3.7-8.4-8.4 3.7-8.5 8.3-8.6c4.6 0 8.4 3.7 8.4 8.4z" class="st11" style="clip-path:url(#SVGID_00000026145728418628877420000017015342035991405209_)"/><path d="M119 73.9c-3.4 14.7-10.4 24.8-20.5 20.1s-11.3-19.1-7.9-34.1c3.3-14.8 12.2-23.7 20.4-19.7s11.4 19 8 33.7z" class="st13"/><path d="M115.2 64.9c-1.1-5.8-7.1-7.7-9.2-3.7 3.3.6 6.4 1.9 9.2 3.7zM93.7 55.1c2-4.2 8.2-1.9 8.2 3 0 .1-3.8-3.9-8.2-3z" class="st12"/><path d="M105.3 79.9c-.6-1.7-9.2-5-9.8-4-.7 1 .3 8.4 4.1 8.9 3.7.5 6.3-3.3 5.7-4.9z" style="fill:#8e0d42"/><defs><path id="SVGID_00000179626009532237018450000004119531485738909107_" d="M105.3 79.9c-.6-1.7-9.2-5-9.8-4-.7 1 .3 8.4 4.1 8.9 3.7.5 6.3-3.3 5.7-4.9z"/></defs><clipPath id="SVGID_00000182486640858122528870000003522215014300205758_"><use xlink:href="#SVGID_00000179626009532237018450000004119531485738909107_" style="overflow:visible"/></clipPath><g style="clip-path:url(#SVGID_00000182486640858122528870000003522215014300205758_)"><path d="M95.6 82.1c-.4 1.5 1 3.6 3.1 4.6 2.1 1 4 .6 4.4-1 .4-1.5-1-3.6-3.1-4.6-2.1-1-4-.6-4.4 1z" class="st11"/><path d="M95.9 75.7c-.2.9 1.9 2.5 4.1 3.6 2.2 1 4.4.6 4.6-.3.2-.9-1.7-2-3.8-3.1-2.2-1-4.8-1.2-4.9-.2z" class="st10"/></g><path d="M113.1 28.6s-6.4-5-11.1-1.9c.7.1 1.5.3 2.1.6 13 6.4 31.7 26.8 15.5 44.1l-4.5 4.1s1.1-11.5 4-17.3c0 0-13.6-4-21.3-14 0 0-4.2-32.3 15.3-15.6z" class="st7"/><path d="M114.3 75.1c-1 4.4.4 9.1 3.1 10.5 2.8 1.4 5.8-1.1 6.8-5.5s-.4-9.1-3.1-10.5-5.8 1.1-6.8 5.5z" class="st13"/><path d="M121.6 79.6c.7-2.8-.2-5.9-2-6.7-.9-.4-1.9-.3-2.7.4.8-1.3 2.3-1.9 3.6-1.3 1.9.9 2.9 4.2 2.2 7.2-.6 2.5-2.2 4.1-3.8 4.1 1.4-.7 2.4-2 2.7-3.7zM101.5 68.7l-.9 3.9c-.2.8-.8 1.3-1.4 1-.7-.5-.9-1.5-.5-2.3l.1-.1c.7-1 1.5-1.9 2.4-2.7.2-.3.4 0 .3.2z" class="st11"/><path d="m121.2 63.6-4.7-2.3c-.2-.2-.3-.5-.3-.8 0-.3.2-.4.5-.4h.1l4.6 2.3c.2.2.4.5.3.8-.1.4-.3.6-.5.4zM120.5 66.6l-4.6-2.3c-.2-.2-.3-.5-.3-.8.1-.3.3-.5.5-.4l4.7 2.3c.2.2.3.5.3.8-.1.3-.4.5-.6.4z" class="st13"/><path d="M113.2 69.9c0-1.4-.5-2.8-1.2-4-1.6-2.1-4.6-3.2-7.3 1.4l8.5 2.6z" class="st12"/><path d="M104.3 68.3c.3-1.2 1-2.1 1.9-2.8 1.9-1.2 5-.9 7 4.4 0 0-4.4 5-8.9-1.6z" class="st10"/><defs><path id="SVGID_00000080904331301677962060000000586732468981045376_" d="M104.3 68.3c.3-1.2 1-2.1 1.9-2.8 1.9-1.2 5-.9 7 4.4 0 0-4.4 5-8.9-1.6z"/></defs><clipPath id="SVGID_00000159463317419802157990000001171244888803134374_"><use xlink:href="#SVGID_00000080904331301677962060000000586732468981045376_" style="overflow:visible"/></clipPath><path d="M110.1 68.8c-.7 1.8-2.1 2.4-3.3 1.5-1.2-1.2-1.6-3.2-1-4.9.6-1.8 2.1-2.4 3.3-1.5 1.3 1.2 1.7 3.2 1 4.9z" class="st12" style="clip-path:url(#SVGID_00000159463317419802157990000001171244888803134374_)"/><path d="M106.4 66.5c-.1.5 0 1.1.5 1.4.4.2.8-.1 1-.7.1-.5-.1-1.1-.5-1.4-.5-.2-.9.1-1 .7zM107.7 68.9c-.1.2 0 .5.2.6.2.1.3-.1.4-.2v-.1c.1-.2 0-.5-.2-.6-.1 0-.3.1-.4.3z" class="st9"/><path d="M92.5 59.7c.9-1.1 2.1-1.7 3.3-1.8 2.3 0 5.2 2.2 4.4 8.4l-7.7-6.6z" class="st12"/><path d="M100.2 66.3c.2-1.3.1-2.7-.3-3.9-1-2.6-3.6-5.1-7.4-2.7 0 0 1.4 7.8 7.7 6.6z" class="st10"/><defs><path id="SVGID_00000109730388013276588810000001903471772332976566_" d="M100.2 66.3c.2-1.3.1-2.7-.3-3.9-1-2.6-3.6-5.1-7.4-2.7 0 0 1.4 7.8 7.7 6.6z"/></defs><clipPath id="SVGID_00000021077693344970664890000016799039364373429421_"><use xlink:href="#SVGID_00000109730388013276588810000001903471772332976566_" style="overflow:visible"/></clipPath><path d="M95.3 61.4c-.2 1.9.7 3.7 2 4 1.3.3 2.5-1 2.7-2.9.2-1.9-.7-3.7-2-4-1.2-.3-2.5 1-2.7 2.9z" class="st12" style="clip-path:url(#SVGID_00000021077693344970664890000016799039364373429421_)"/><path d="M96.3 61.2c-.1.5.1 1.1.5 1.4.4.2.8-.1 1-.7.1-.5 0-1.1-.5-1.4-.5-.2-.9.1-1 .7zM97.7 63.6c-.1.2 0 .5.2.6.2.1.3 0 .4-.3.1-.2 0-.5-.2-.6-.2 0-.4.1-.4.3zM104.2 23.9c-5.5.2-5.9 8-6.8 12.6h-.1c.1-4.7 1.3-13.7 6.9-12.6zM95.6 35c-5.1 1.8-3.8 6.1-1.8 10.2l-.8-1.4c-2-3.7-1.7-7.9 2.6-8.8z" class="st9"/><ellipse cx="158.5" cy="98.5" class="st7" rx="15.1" ry="10.4" transform="rotate(-89.893 158.517 98.54)"/><path d="M167.5 96.6c-.4 2.7-2.2 4.3-4 3.7-1.8-.6-3-3.2-2.6-5.9s2.2-4.3 4-3.8c1.9.7 3 3.4 2.6 6z" class="st11"/><path d="m166.9 93.3-4.4-1.4c-1.2-.4-2-2.2-1.8-4 .3-1.8 1.5-3 2.8-2.6l4.4 1.4c1.3.4 2 2.2 1.8 4-.3 1.8-1.5 2.9-2.8 2.6z" class="st11"/><path d="m162.4 94.2 4.8-6.1c.7-1 1.9-1.1 2.8-.3.2.2.4.4.5.7.8 1.5.8 3.4-.2 4.8l-4.8 6.1c-.7 1-1.9 1.1-2.8.3-.2-.2-.4-.4-.5-.7-.8-1.5-.7-3.5.2-4.8z" class="st13"/><path d="m162.7 100.3 5.3-5c.9-.8 2.2-.6 2.9.4.2.2.3.5.3.7.7 1.6.4 3.5-.7 4.7l-5.3 5c-.9.8-2.2.6-2.9-.4-.2-.2-.3-.5-.3-.7-.7-1.6-.4-3.5.7-4.7z" class="st13"/><path d="m163 105.4 8-4.8c1 3.5-.2 7.4-2.6 8.8l-3.7 2.2c-1.2.7-2.5-.1-3-1.9-.4-1.5.1-3.3 1.3-4.3zM156.8 89.9c.9 1.4 2.6 1.8 3.9.8.3-.3.6-.6.8-1L171.7 73c1.4-2.7 1.7-6 .6-8.9-.5-1.4-1.7-1.9-2.4-.8l-13.2 19.9c-1.2 1.9-1.2 4.6.1 6.7z" class="st13"/><path d="M154.8 90.4c-.4 2.7-2.2 4.3-4 3.7-1.8-.6-3-3.2-2.6-5.9.4-2.6 2.2-4.3 4-3.8 1.9.7 3 3.4 2.6 6z" class="st11"/><path d="m151.9 75.5 2 11.6c.4 2.3-.5 4.6-2.1 5.2-1.6.6-3.2-.8-3.6-3.1l-1.5-9.9c-.4-2.2.3-4.5 1.9-5.9 1.4-1 3 0 3.3 2.1z" class="st13"/><path d="M33.4 100.9c-1.2 8.1 2.3 16.2 7.9 18 5.6 1.8 11.1-3.3 12.4-11.5 1.2-8.2-2.3-16.2-7.9-18-5.6-1.8-11.1 3.4-12.4 11.5z" class="st7"/><path d="M35.9 96.9c-.4 2.7.7 5.3 2.6 5.9 1.8.6 3.6-1.1 4-3.8s-.7-5.3-2.6-5.9c-1.7-.6-3.5 1.2-4 3.8z" class="st11"/><path d="m37.5 94.2 4.4 1.4c1.3.4 2.5-.7 2.8-2.6.3-1.8-.5-3.6-1.8-4l-4.4-1.4c-1.2-.4-2.5.7-2.8 2.6-.3 1.8.5 3.6 1.8 4z" class="st11"/><path d="m41.3 97.8-2.5-8.5c-.5-1.7-1.9-2.5-3.1-1.7-1.2 1-1.7 2.8-1.2 4.5l2.5 8.5c.5 1.7 1.9 2.5 3.1 1.7 1.2-1 1.7-2.9 1.2-4.5z" class="st13"/><path d="m39.3 103.2-3.4-7.8c-.7-1.6-2.1-2-3.2-1.1-1.1 1.2-1.4 3.1-.7 4.7l3.4 7.8c.3 1.2 1.5 1.9 2.6 1.5.2-.1.4-.2.6-.4 1.1-1.2 1.4-3.1.7-4.7z" class="st13"/><path d="m37.5 107.7-5.9-9.3c-1.9 2.8-2 6.6-.3 9.6l2.7 4.3c.6 1.1 1.8 1.4 2.7.8.2-.2.4-.3.6-.6 1-1.4 1-3.3.2-4.8zM47.6 97.4c-1.8.9-3.7-.5-4.2-3.1L39 72.8c-.6-3 .2-6.1 2-8.4.5-.7 1.4-.8 2-.2.2.2.4.6.5.9l6.2 26.2c.5 2.6-.4 5.3-2.1 6.1z" class="st13"/><path d="M49.3 99.1c-.4 2.7.7 5.3 2.6 5.9 1.8.6 3.6-1.1 4-3.8.4-2.7-.7-5.3-2.6-5.9-1.8-.5-3.6 1.2-4 3.8z" class="st11"/><path d="m56.3 87.4-5.2 9.3c-1 1.9-.9 4.3.4 6 .9 1.2 2.5 1.3 3.6.2.2-.2.4-.5.6-.8l4.2-8.1c1-2 1-4.5 0-6.6-.5-1.1-1.7-1.5-2.7-1-.4.2-.7.6-.9 1z" class="st13"/><path d="m113.5 74.3-21.7-7c-3.9-1.3-6.4-7-5.5-12.7.9-5.7 4.8-9.4 8.7-8.1l21.7 7c3.9 1.3 6.4 7 5.5 12.7-.8 5.8-4.7 9.4-8.7 8.1z" class="st12"/><path d="m110.4 69.4-21.7-7c-3.9-1.3-6.4-7-5.5-12.7.9-5.8 4.8-9.4 8.7-8.1l21.7 7c3.9 1.3 6.4 7 5.5 12.7-.9 5.7-4.8 9.3-8.7 8.1z" class="st10"/><path d="m110.2 68-20.9-6.8c-3.5-1.1-5.7-6.2-4.9-11.2.8-5.1 4.2-8.3 7.7-7.2l20.9 6.8c3.5 1.1 5.7 6.2 4.9 11.2-.8 5.1-4.3 8.4-7.7 7.2z" class="st12"/><path d="m94.5 49.4-4.1-1.3c-.4-.2-.6-.6-.5-1.1.1-.5.4-.8.8-.7l4.1 1.3c.4.2.6.6.5 1.1-.1.6-.5.8-.8.7z" class="st11"/><path d="m110.2 65.3-4.1-1.3c-.4-.2-.6-.6-.5-1.1.1-.5.4-.8.8-.7l4.1 1.3c.4.2.6.6.5 1.1-.1.5-.5.9-.8.7zM103.6 63.1l-1.3-3.1c-.1-.3-.1-.6.1-.8.1-.1.3-.1.4 0l.1.1 1.4 3.1c.1.3.1.6-.1.8-.1.1-.4.1-.5-.1h-.1z" class="st7"/><path d="m104.5 60.7-2.1 2c-.1.1-.4.1-.5-.1 0 0 0-.1-.1-.1-.1-.3-.1-.6.1-.8l2.1-2c.1-.1.4-.1.5.1 0 0 0 .1.1.1.1.3.1.6-.1.8z" class="st7"/><path d="m96.5 53.5-6.6-2.2c-.4-.2-.6-.6-.5-1.1.1-.5.4-.8.8-.7l6.6 2.2c.4.2.6.6.5 1.1-.2.5-.5.8-.8.7z" class="st11"/><path d="M111 60.5c-.1.4-.4.7-.7.6-.3-.2-.5-.6-.4-1 .1-.4.4-.7.7-.6.3.2.5.6.4 1z" class="st7"/><path d="M62.4 149.7c-14.5 35.3 11.3 41.9 20.1 40S96.6 167 94.3 143 83 101.2 74.2 103c-8.8 1.9-14 22.7-11.8 46.7z" class="st11"/><defs><path id="SVGID_00000047060662112841220040000004357406126207142554_" d="M62.4 149.7c-14.5 35.3 11.3 41.9 20.1 40S96.6 167 94.3 143 83 101.2 74.2 103c-8.8 1.9-14 22.7-11.8 46.7z"/></defs><clipPath id="SVGID_00000045619158143300241010000013094327048940376453_"><use xlink:href="#SVGID_00000047060662112841220040000004357406126207142554_" style="overflow:visible"/></clipPath><path d="M70.6 135c0 .4-.1.7-.2 1.1-1.8 12.7-10.4 20.7-19.2 17.9-1.6-.5-3-1.3-4.3-2.4 1.7 3 4.3 5.2 7.3 6.3 7.4 2.4 14.7-4.4 16.3-15.2.4-2.5.4-5.1.1-7.7z" class="st12" style="clip-path:url(#SVGID_00000045619158143300241010000013094327048940376453_)"/><path d="M103.8 150.3c2.3 23.9 11.2 41.9 19.9 40.1 8.7-1.8 23.3-23.6 11.6-46.6-2.3-23.9-11.2-41.9-19.9-40.1s-13.9 22.6-11.6 46.6z" class="st11"/><defs><path id="SVGID_00000119108348481316919320000016498787250534323356_" d="M103.8 150.3c2.3 23.9 11.2 41.9 19.9 40.1 8.7-1.8 23.3-23.6 11.6-46.6-2.3-23.9-11.2-41.9-19.9-40.1s-13.9 22.6-11.6 46.6z"/></defs><clipPath id="SVGID_00000053544083282014928940000018317641460093748625_"><use xlink:href="#SVGID_00000119108348481316919320000016498787250534323356_" style="overflow:visible"/></clipPath><path d="M130.1 133.2c0 .3-.1.5-.1.8-1.4 9.4 2.6 18.7 9.1 20.8 1.1.4 2.3.5 3.4.4-1.9 1.2-4.1 1.6-6.2.9-5.5-1.8-8.9-9.6-7.7-17.6.3-1.9.8-3.6 1.5-5.3z" class="st12" style="clip-path:url(#SVGID_00000053544083282014928940000018317641460093748625_)"/><path d="M105.2 160.3s-10.6-46.5-2.7-54.3c5.8-5.8 14.5 0 18.6-4.6l-15.9 58.9zM94.8 159.6s4.9-43.2 0-55.2C91.2 95.6 79 90.3 79.7 87c-7.9 10.5 11.5 56.2 15.1 72.6z" class="st11"/><path d="m86.8 150 3.3-5-.8-6.9-3.3 5z" class="st12"/><path d="m86.1 148.9 3.3-5.1-.8-6.9-3.3 5.1z" class="st9"/><path d="m75.3 170.1-8.6.2 1.8-6 8.7-.1zM77.8 170.1h-1.9l1.8-5.9h1.9zM80.6 170.1h-1.9l1.8-6h1.9zM125 162.1v.3c-.5 3.2-2.7 5.3-4.9 4.6-.4-.1-.8-.3-1.1-.6.4.8 1.1 1.3 1.9 1.6 1.9.6 3.8-1.1 4.2-3.9 0-.7 0-1.3-.1-2z" class="st12"/><path d="M123.2 162.9c.3-1.5-.3-3-1.6-3.6-1.1-.4-2.2.7-2.5 2.3-.3 1.5.3 3 1.6 3.6 1.2.4 2.3-.6 2.5-2.3zM81.4 131.2l-4-9.1c-.3-.7-.2-1.7.3-2.2.4-.4 1-.3 1.3.1.1.1.1.2.2.4l4 9.1c.3.7.2 1.7-.3 2.2-.4.4-1 .3-1.3-.1-.1-.1-.2-.3-.2-.4z" class="st12"/><path d="m84 124.3-6.2 5.8c-.4.4-1 .3-1.3-.1-.1-.1-.1-.2-.2-.4-.3-.7-.2-1.6.3-2.2l6.2-5.8c.4-.4 1-.3 1.3.1.1.1.1.2.2.4.5.7.3 1.6-.3 2.2z" class="st12"/><path d="m112.1 157-2.6-5.9c-.2-.5-.1-1.1.2-1.4.3-.2.7-.2.9.1 0 .1.1.1.1.2l2.6 5.9c.2.5.1 1.1-.2 1.4-.3.2-.7.2-.9-.2-.1 0-.1-.1-.1-.1z" class="st10"/><path d="m113.8 152.5-4 3.7c-.3.2-.7.2-.9-.2 0 0-.1-.1-.1-.2-.2-.5-.1-1.1.2-1.4l4-3.7c.3-.2.7-.2.9.1 0 .1.1.1.1.2.2.5.1 1.1-.2 1.5z" class="st10"/><path d="m98 175.6-2.1-8.7c-.2-.8-.8-1.2-1.3-1-.6.4-.9 1.2-.7 2l2.1 8.7c.2.8.8 1.2 1.3 1 .6-.4.9-1.2.7-2zm-2.3-2.7c-.1-.4 0-.7.3-.9.3-.1.5.1.6.5l.7 3.1c.1.4 0 .7-.3.9-.3.1-.5-.1-.6-.5l-.7-3.1z" class="st12"/><path d="M78.6 88.2c-.6 4.4-.5 9 .4 13.3.2 1.1.6 3 .8 4.1l-1.3-1.5c-3.5-4-8.1-4.1-11.5.3-.8 1-1.6 2.1-2.3 3.2l-2.3 3.6c-1.3 2.1-3.3 5-4.6 7.1.3-.7.6-1.4.9-2 1.6-3.2 3.4-6.5 5.1-9.6 2.9-5.7 7.4-9.2 12.3-6.4 1.1.7 2.2 1.6 3 2.6l-.9.8c-.8-5-1-10.6.4-15.5z" class="st9"/></g><linearGradient id="SVGID_00000036232248688244919280000009901303564006687123_" x1="-3.215" x2="215.215" y1="86.439" y2="88.566" gradientTransform="matrix(1 0 0 -1 0 186)" gradientUnits="userSpaceOnUse"><stop offset="0" style="stop-color:#00253f"/><stop offset=".52" style="stop-color:#7dd6f8"/><stop offset="1" style="stop-color:#4fb9f2"/></linearGradient><path d="m-1.6 166.1.9-135.7C-.6 13.9 11.3.6 25.9.6H187c14.7 0 26.6 13.4 26.6 30v.4l-1.3 135.8c-.2 16.5-12 29.7-26.6 29.7H25c-14.7 0-26.6-13.5-26.6-30.1v-.3z" style="fill:none;stroke:url(#SVGID_00000036232248688244919280000009901303564006687123_);stroke-width:2;stroke-miterlimit:10"/></g></g></svg>