<svg xmlns="http://www.w3.org/2000/svg" xmlns:xlink="http://www.w3.org/1999/xlink" xml:space="preserve" id="Layer_1" x="0" y="0" style="enable-background:new 0 0 214 192.1" version="1.1" viewBox="0 0 214 192.1"><style>.st1{opacity:.2;enable-background:new}.st1,.st3{fill:#036df9}.st6{fill:#ff83a8}.st10{fill:#772ac3}.st11{fill:#01056a}.st12{fill:#e23875}.st13{fill:#fff}.st15{opacity:.75;fill:#01056a;enable-background:new}.st16{fill:#99faff}</style><g id="Layer_2_00000167396578756835972340000010229181317058151573_"><g id="Layer_3"><defs><path id="SVGID_1_" d="M28.4 1h158.2C201.7 1 214 9.6 214 20.3v152.4c0 10.7-12.3 19.3-27.4 19.3H28.4C13.3 192 1 183.4 1 172.7V20.3C1 9.6 13.3 1 28.4 1z"/></defs><clipPath id="SVGID_00000180328443781131081590000010438379661162113426_"><use xlink:href="#SVGID_1_" style="overflow:visible"/></clipPath><g style="clip-path:url(#SVGID_00000180328443781131081590000010438379661162113426_)"><path d="m116.6 147.9 52.7 25.1c6.4 3 14.1-5.6 13.2-14.7l-3.5-32.7c-1-9.3-5.5-16.6-12-19.7l-52.8-25.1c-6.4-3.1-14.1 5.6-13.2 14.7l3.5 32.7c1.1 9.3 5.7 16.6 12.1 19.7zM23.7 153.6l52.7 25.1c6.4 3 14.1-5.6 13.2-14.7L86 131.3c-1-9.3-5.5-16.6-12.1-19.7l-52.6-25c-6.4-3.1-14.1 5.6-13.2 14.7l3.5 32.7c1.1 9.2 5.5 16.5 12.1 19.6z" class="st1"/><path d="m142.9 128.9 52.7 25.1c6.4 3.1 14.1-5.6 13.2-14.7l-3.5-32.7c-1-9.3-5.5-16.6-12.1-19.7l-52.7-25.1c-6.4-3-14.1 5.6-13.2 14.7l3.5 32.7c1.1 9.3 5.6 16.6 12.1 19.7zM37.4 56.2c-5.8-15.7 8.5-37.7 30-43.4C85.9 7.8 97 18.9 95 33.6c-1.6 12-11.9 24.6-24.2 30.5-13.8 6.5-28.9 4.2-33.4-7.9z" class="st1"/><defs><path id="SVGID_00000001626349972953674580000016444910873429523346_" d="M62.9 46.2c-.4-3.1 2.5-6.9 6.2-8.3 3.7-1.4 6.5.2 6.6 3.3 0 3.1-2.6 6.3-5.9 7.7-3.3 1.4-6.5.2-6.9-2.7z"/></defs><clipPath id="SVGID_00000098182645898130204680000007168790061316671665_"><use xlink:href="#SVGID_00000001626349972953674580000016444910873429523346_" style="overflow:visible"/></clipPath><g style="clip-path:url(#SVGID_00000098182645898130204680000007168790061316671665_)"><path d="m63.9 49.9 12.4-5c.2-.1.3-.2.3-.4s-.1-.2-.3-.1l-12.4 5c-.2.1-.3.2-.3.4-.1.2.1.2.3.1zM64.1 51.4l12.2-5c.2-.1.3-.2.3-.4 0-.1-.1-.2-.3-.1L64 51c-.2.1-.3.2-.3.4 0 0 .2.1.4 0zM76.2 42l-12.9 5.1c-.2.1-.4 0-.4-.2s.1-.4.3-.4l12.9-5.1c.2-.1.3 0 .3.2.2.2 0 .4-.2.4zM76.3 43.5l-12.7 5.1c-.2.1-.4 0-.4-.1 0-.2.1-.4.3-.4L76.3 43c.2-.1.3 0 .3.2 0 .1-.2.3-.3.3zM63.2 43.9l13-5c.2-.1.3-.2.3-.4s-.2-.3-.3-.2l-13.1 5c-.2.1-.3.2-.3.5 0 .1.2.1.4.1zM63.4 45.5l12.9-5c.2-.1.3-.2.3-.4s-.2-.2-.3-.2l-12.9 5c-.2.1-.3.2-.3.4-.1.2.1.2.3.2zM76.2 35.7l-13.5 5c-.2.1-.4 0-.4-.2s.1-.4.3-.5l13.5-5c.2-.1.3 0 .3.2.1.3 0 .4-.2.5zM76.2 37.4l-13.3 5c-.2.1-.4 0-.4-.2s.1-.4.3-.5l13.3-5c.2-.1.3 0 .3.2.1.2 0 .4-.2.5z" class="st3"/></g><path d="M43 54c-4-12.9 7.7-30.3 24.8-35.3C83 14.3 92.6 22.8 91.3 35c-1.1 10.3-9.9 21.2-20.7 26.2C58.8 66.7 46.3 64.4 43 54z" style="fill:none;stroke:#036df9;stroke-width:.59;stroke-miterlimit:10"/><path d="M61.7 3.3 71.3 1c.7-.2 1 .6.7 1.3l-4.3 7.9c-.2.4-.6.6-1.1.4-.1 0-.1-.1-.2-.1L61.1 5c-.4-.4-.3-1.1.2-1.5.1-.1.2-.1.4-.2z" class="st3"/><path d="M70.1 55.6c7.8-3.4 13.9-11.3 14.3-18.5.5-8.1-6.4-13.1-16.2-9.9C57.6 30.6 50 41.4 51.9 49.7" style="fill:none;stroke:#036df9;stroke-width:.49;stroke-miterlimit:10"/><path d="M71.5 55c-.1.8-.6 1.4-1.3 1.7-.8.3-1.4.1-1.5-.5.1-.8.6-1.4 1.4-1.7.7-.3 1.3-.1 1.4.5zM53.7 49.1c0 1-.6 1.8-1.5 2.1-1 .4-1.9.1-2.1-.7-.2-.7.5-1.7 1.5-2.1 1-.4 1.9-.1 2.1.7zM190.4 141.4c.6.3 1.3-.2 1.6-1l11.9-30c.4-.7.2-1.5-.5-1.9-.6-.3-1.3.2-1.6 1l-11.9 30c-.3.7-.1 1.5.5 1.9zM185.9 139.3c.6.3 1.3-.2 1.6-1l5-12.7c.4-.7.2-1.5-.5-1.9-.6-.3-1.3.2-1.6 1l-5 12.7c-.3.7-.1 1.5.5 1.9zM181.7 137.3c.6.3 1.3-.2 1.6-1l7.1-17.9c.4-.7.2-1.5-.5-1.9-.6-.3-1.3.2-1.6 1l-7.1 17.9c-.3.7-.1 1.5.5 1.9zM87.6 89.8l2.8 1.4c.7.3 1.5 0 1.8-.7v-.1l2-4.9c.3-.8 0-1.6-.7-2l-2.9-1.4c-.7-.3-1.5 0-1.8.7v.1l-2 4.9c-.3.7 0 1.6.8 2zM87 74.1l1.2.6c.3.1.6 0 .8-.3l.8-2.1c.1-.3 0-.7-.3-.8l-1.2-.6c-.3-.1-.6 0-.8.3l-.8 2.1c-.2.3 0 .6.3.8z" class="st3"/><path d="M53.6 143.9c-4.5 0-7.5-5-6.6-11L55.3 89l13.3.7-5 43.5c-1.1 6-5.4 10.8-10 10.7z" class="st6"/><defs><path id="SVGID_00000063634198606218029430000010343402284237288373_" d="M53.6 143.9c-4.5 0-7.5-5-6.6-11L55.3 89l13.3.7-5 43.5c-1.1 6-5.4 10.8-10 10.7z"/></defs><clipPath id="SVGID_00000134249488720073466170000017562919975856030347_"><use xlink:href="#SVGID_00000063634198606218029430000010343402284237288373_" style="overflow:visible"/></clipPath><g style="clip-path:url(#SVGID_00000134249488720073466170000017562919975856030347_)"><path d="m47.8 130.7-4.6-.4c-2-.2-3.2-2.6-2.7-5.3l3.8-20.2c.5-2.8 2.7-4.8 4.6-4.7l4.6.4c2 .2 3.2 2.6 2.7 5.3L52.4 126c-.5 2.8-2.5 4.9-4.6 4.7z" style="fill:none;stroke:#772ac3;stroke-width:.28;stroke-miterlimit:10"/><path d="m47.6 129.1-3.4-.3c-1.6-.1-2.5-1.9-2.1-4l2.9-15.1c.4-2.1 2-3.6 3.5-3.5l3.4.3c1.6.1 2.5 1.9 2.1 4l-2.8 15.1c-.4 2.1-2 3.7-3.6 3.5z" style="opacity:.5;fill:#e23875;enable-background:new"/><path d="M56.9 112.7c-.2.3-.1.6.1.8.2.1.5 0 .7-.3.2-.3.1-.6-.1-.8-.2-.1-.5 0-.7.3zM56.3 116c-.2.3-.1.6.1.8.2.1.5 0 .7-.3.2-.3.1-.6-.1-.8-.2-.2-.5-.1-.7.3z" class="st10"/></g><path d="M54 90.1c-2.7 5.4-2 11.9 1.8 14.5s8.9.3 11.7-5.1c2.7-5.4 1.9-11.9-1.8-14.5-3.8-2.5-9-.3-11.7 5.1z" class="st11"/><path d="M78.3 126.9v3.8c-.1 4.9-3.2 9.5-7.1 10.3l-10.8 2.3c-4.6 1-8.2-3-8.1-8.9.1-5.9 3.9-11.6 8.5-12.6l10.8-2.3c3.8-.7 6.8 2.6 6.7 7.4z" class="st12"/><path d="M53.4 79.7C50 86.6 51 94.8 55.7 98.1s11.3.4 14.7-6.5c3.4-6.9 2.5-15.1-2.3-18.4-4.7-3.3-11.2-.4-14.7 6.5z" class="st10"/><path d="M56.9 76.9c-1.1 2.2-.8 4.9.8 6 1.6 1.1 3.7.1 4.8-2.1 1.1-2.2.8-4.9-.8-6-1.5-1.1-3.7-.1-4.8 2.1z" class="st12"/><path d="m59.1 75 3.7 2.7c1 .7 2.6.1 3.3-1.4.8-1.5.6-3.4-.5-4.1l-3.8-2.8c-1-.7-2.6-.1-3.3 1.4-.8 1.7-.5 3.4.6 4.2z" class="st12"/><path d="M61.6 79.3V71c0-1.7-1.1-2.7-2.4-2.4-1.5.6-2.5 2-2.4 3.6v8.3c0 1.7 1.1 2.8 2.4 2.5 1.6-.6 2.5-2.1 2.4-3.7z" class="st6"/><path d="m58.2 83.5-1-7.9c-.2-1.6-1.4-2.4-2.7-1.9-1.4.7-2.2 2.3-2 3.9l1 7.9c.2 1.6 1.4 2.5 2.7 1.9 1.4-.7 2.2-2.3 2-3.9z" class="st6"/><path d="m55.3 86.9-2.8-10c-2.6 1.9-3.7 5.3-2.9 8.4l1.4 4.6c.2 1.1 1.2 1.7 2.2 1.5.3-.1.6-.2.8-.4 1.1-.9 1.7-2.5 1.3-4.1zM67.6 80.8c-1.9.3-3.2-1.6-3-4l1.9-20.4c.3-2.9 1.9-5.4 4.2-6.9.6-.4 1.5-.2 1.9.4.2.3.2.6.2.9l-1.6 25.1c-.1 2.6-1.7 4.7-3.6 4.9z" class="st6"/><path d="M68.7 82.9c-1.1 2.2-.8 4.9.8 6 1.6 1.1 3.7.1 4.8-2.1 1.1-2.2.8-4.9-.8-6-1.5-1-3.7-.1-4.8 2.1z" class="st12"/><path d="M78.5 74.6 71 81.2c-1.5 1.4-2 3.5-1.3 5.5v.1c.8 1.7 2.6 2 4 .7l6.2-5.9c1.5-1.5 2.2-3.7 1.9-5.8-.1-1.1-1.1-1.9-2.1-1.7-.5-.1-.9.1-1.2.5z" class="st6"/><path d="m70.9 143.9 15-2.9.8-28.5-15 2.9c-6.1 1.2-11.2 8.5-11.5 16.4-.1 7.9 4.6 13.3 10.7 12.1z" class="st11"/><path d="m75.1 145 16.9-3.3.9-32L76 113c-6.9 1.3-12.7 9.6-12.9 18.4-.3 8.8 5.1 14.9 12 13.6z" class="st13"/><defs><path id="SVGID_00000128463998055071849920000005458985669732963735_" d="m75.1 145 16.9-3.3.9-32L76 113c-6.9 1.3-12.7 9.6-12.9 18.4-.3 8.8 5.1 14.9 12 13.6z"/></defs><clipPath id="SVGID_00000016064019789188322480000007826279863334180232_"><use xlink:href="#SVGID_00000128463998055071849920000005458985669732963735_" style="overflow:visible"/></clipPath><ellipse cx="83.2" cy="136.1" class="st15" rx="22.3" ry="16" style="clip-path:url(#SVGID_00000016064019789188322480000007826279863334180232_)" transform="rotate(-72.782 83.15 136.097)"/><path d="m55.6 135.5 4.8-1c1-.4 1.7-1.4 1.7-2.5 0-1.2-.7-2-1.6-1.8l-4.8 1c-1 .4-1.7 1.4-1.7 2.5-.1 1.2.7 2 1.6 1.8z" class="st11"/><path d="m56.9 134.2 2.3-.5c.5-.2.8-.6.8-1.2 0-.5-.3-.9-.8-.8l-2.3.5c-.5.2-.8.6-.8 1.2 0 .5.3.8.8.8z" class="st10"/><ellipse cx="97.3" cy="173.3" class="st1" rx="82" ry="22.6" transform="matrix(1 -.00506 .00506 1 -.876 .495)"/><ellipse cx="96.4" cy="179" class="st3" rx="61.3" ry="16.9" transform="matrix(1 -.00506 .00506 1 -.905 .49)"/><path d="M146.9 182.2c-1.1 7.7-24.7 13.9-52.8 13.7s-50-6.6-48.8-14.4c1.1-7.7 24.7-13.8 52.8-13.7 28 .2 49.8 6.7 48.8 14.4z" class="st16"/><ellipse cx="96.4" cy="179" rx="71.7" ry="19.7" style="fill:none;stroke:#fff;stroke-width:.28;stroke-miterlimit:10.0001" transform="matrix(1 -.00506 .00506 1 -.905 .49)"/><path d="m95.8 104.6 29.2-.8c13.3-.4 21.3 15.4 17.2 33.3l-13.1 56c-20.5 3.5-41.7 3.9-60.5.7l1.5-55c.6-17.7 12.7-33.8 25.7-34.2z" class="st13"/><defs><path id="SVGID_00000150800273258483323220000015298221104713555101_" d="m95.8 104.6 29.2-.8c13.3-.4 21.3 15.4 17.2 33.3l-13.1 56c-20.5 3.5-41.7 3.9-60.5.7l1.5-55c.6-17.7 12.7-33.8 25.7-34.2z"/></defs><clipPath id="SVGID_00000146457950741541857030000003447557341537652924_"><use xlink:href="#SVGID_00000150800273258483323220000015298221104713555101_" style="overflow:visible"/></clipPath><path d="M124.4 133.6c-4.2 12-.7 24.4 7.9 27.7 8.5 3.4 18.8-3.6 23.1-15.6 4.2-12 .7-24.4-7.9-27.7-8.6-3.4-18.9 3.6-23.1 15.6z" class="st15" style="clip-path:url(#SVGID_00000146457950741541857030000003447557341537652924_)"/><path d="M103.7 69.1c-1.6 4.4-.4 8.9 2.7 10.1s6.7-1.4 8.2-5.8c1.6-4.4.4-8.9-2.7-10.1-3-1.3-6.7 1.4-8.2 5.8zM130 79.4c-1.6 4.4-.4 8.9 2.7 10.1 3 1.2 6.7-1.4 8.2-5.8s.4-8.9-2.7-10.1c-2.9-1.2-6.6 1.4-8.2 5.8z" class="st12"/><path d="m117.2 116.3 7.8-20-16.3-7.5-7.8 20c-2 5.2 0 11 4.5 13.1 4.6 2.1 9.9-.4 11.8-5.6z" class="st6"/><defs><path id="SVGID_00000103235810167973626000000017531077393711205046_" d="m117.2 116.3 7.8-20-16.3-7.5-7.8 20c-2 5.2 0 11 4.5 13.1 4.6 2.1 9.9-.4 11.8-5.6z"/></defs><clipPath id="SVGID_00000070800249707896422540000008577736130358297004_"><use xlink:href="#SVGID_00000103235810167973626000000017531077393711205046_" style="overflow:visible"/></clipPath><path d="M120 99.4c-1.5 3.9-6.3 5.3-10.8 3.3-4.4-2.1-6.9-6.8-5.4-10.7s6.3-5.3 10.7-3.2c4.5 2 6.9 6.8 5.5 10.6z" class="st12" style="clip-path:url(#SVGID_00000070800249707896422540000008577736130358297004_)"/><path d="M137.7 79.8c-5.2 14.7-13.8 25-24.3 21.2s-10.4-17.8-5.2-32.8c5-14.7 15.6-24.2 24.1-20.8 8.6 3.4 10.6 17.7 5.4 32.4z" class="st6"/><path d="M136.3 72.4c.2-5.8-5.8-8.6-8.8-5.2 3.2 1.2 6.2 2.9 8.8 5.2zM114.2 62c2.7-4.3 9-2.5 8.6 2.4 0-.1-3.8-3.7-8.6-2.4z" class="st11"/><path d="M124.4 87.6c-.4-1.9-10-6.6-11.1-5.5-1 1-1.4 9.5 3 10.4 4.5.9 8.5-3 8.1-4.9z" style="fill:#8e0d42"/><defs><path id="SVGID_00000040566401720328919910000004868976000360704661_" d="M124.4 87.6c-.4-1.9-10-6.6-11.1-5.5-1 1-1.4 9.5 3 10.4 4.5.9 8.5-3 8.1-4.9z"/></defs><clipPath id="SVGID_00000017476372117960558210000009043681134056075927_"><use xlink:href="#SVGID_00000040566401720328919910000004868976000360704661_" style="overflow:visible"/></clipPath><g style="clip-path:url(#SVGID_00000017476372117960558210000009043681134056075927_)"><path d="M112.1 89c-.8 1.7.5 4.1 2.7 5.5s4.8 1.1 5.5-.6c.8-1.7-.5-4.1-2.7-5.5s-4.7-1.1-5.5.6z" class="st12"/><path d="M113.8 81.9c-.5 1 1.9 3.1 4.2 4.5 2.4 1.3 5.2 1.2 5.7.2s-1.7-2.4-4-3.8c-2.4-1.4-5.4-2-5.9-.9z" class="st13"/></g><path d="m121.5 76.9-1.4 3.8c-.3.8-1 1.3-1.6 1-.8-.3-.8-1.6-.2-2.4.9-1 1.9-1.9 2.8-2.8.3 0 .5.2.4.4z" class="st12"/><path d="M133.7 77.1c.1-1.4-.3-2.7-1-3.8-1.5-1.9-4.7-2.8-8 1.9l9 1.9z" class="st11"/><path d="M124.2 76.2c.5-1.2 1.3-2.2 2.4-2.9 2.2-1.3 5.5-1.2 7.2 3.8-.1 0-5.4 5.2-9.6-.9z" class="st13"/><defs><path id="SVGID_00000039847664377655266140000007294975147432675735_" d="M124.2 76.2c.5-1.2 1.3-2.2 2.4-2.9 2.2-1.3 5.5-1.2 7.2 3.8-.1 0-5.4 5.2-9.6-.9z"/></defs><clipPath id="SVGID_00000109712261712047712250000014574522604969960358_"><use xlink:href="#SVGID_00000039847664377655266140000007294975147432675735_" style="overflow:visible"/></clipPath><path d="M131.7 76.4c-.9 1.8-2.6 2.5-3.7 1.7-1.2-.8-1.4-2.9-.6-4.7.9-1.7 2.6-2.5 3.7-1.7 1.3.9 1.5 3 .6 4.7z" class="st3" style="clip-path:url(#SVGID_00000109712261712047712250000014574522604969960358_)"/><path d="M127.5 74.3c-.2.5-.1 1 .4 1.3.4.2.9-.2 1.1-.7.3-.5.1-1.1-.4-1.3-.4-.2-.9.1-1.1.7zM128.8 76.6c-.1.2 0 .4.2.6.2.1.4-.1.5-.3.1-.2 0-.4-.2-.6-.2-.1-.4 0-.5.3z" class="st16"/><path d="M112.1 68.6c1-1.1 2.4-1.8 3.8-2 2.5-.2 5.4 1.8 3.9 7.9l-7.7-5.9z" class="st11"/><path d="M119.9 74.5c.3-1.2.3-2.6 0-3.8-.8-2.5-3.4-4.7-7.9-2.1.1 0 .9 7.6 7.9 5.9z" class="st13"/><defs><path id="SVGID_00000139283064834580693850000008801468556551996841_" d="M119.9 74.5c.3-1.2.3-2.6 0-3.8-.8-2.5-3.4-4.7-7.9-2.1.1 0 .9 7.6 7.9 5.9z"/></defs><clipPath id="SVGID_00000114047818003056008960000002964989656825364919_"><use xlink:href="#SVGID_00000139283064834580693850000008801468556551996841_" style="overflow:visible"/></clipPath><path d="M115.1 70.1c-.4 1.9.4 3.6 1.8 3.8 1.4.2 2.8-1.2 3.2-3.1.4-1.9-.4-3.6-1.8-3.8-1.3-.2-2.8 1.2-3.2 3.1z" class="st3" style="clip-path:url(#SVGID_00000114047818003056008960000002964989656825364919_)"/><path d="M116.1 69.8c-.2.5-.1 1 .4 1.3.4.2.9-.2 1.1-.7.2-.5 0-1-.4-1.3-.4-.2-.9.1-1.1.7zM117.4 72.1c-.1.2 0 .5.2.6.3 0 .5-.2.5-.5 0-.2-.1-.3-.2-.4-.2-.1-.4.1-.5.3z" class="st16"/><path d="M118.4 48.4s-3.8 1-7 12.5c0 0 4-6.6 8.8-8.3l-1.8-4.2z" class="st10"/><path d="M136 39.6s-6.8-2.8-12.8-.6c21 4.9 31.1 11.7 16.3 34.7 0 0-.4-1.2.8-9.2 0 0-14.6-3.7-22-12.8.1-.1-3.6-23.9 17.7-12.1z" class="st10"/><path d="M152.1 141.2c-3.7 10.6-13 16.9-20.6 13.9-7.6-3-10.7-14.1-7.1-24.7 3.7-10.6 13-16.9 20.6-13.9 7.6 2.9 10.8 14 7.1 24.7z" class="st13"/><ellipse cx="141.5" cy="140.3" class="st12" rx="14.1" ry="10.2" transform="rotate(-72.806 141.512 140.275)"/><path d="M150.3 141.4c-2.2 6.2-7.6 9.8-12 8.1-4.4-1.7-6.3-8.2-4-14.4s7.6-9.8 12-8.1c4.4 1.8 6.2 8.2 4 14.4z" class="st11"/><path d="m133.2 144.7 19.4-3.7c2.9-.6 5.4-4.1 5.5-7.9v-.4c.1-3.8-2.2-6.4-5.1-5.8l-19.4 3.7c-2.9.6-5.4 4.1-5.5 7.9v.4c-.1 3.8 2.2 6.4 5.1 5.8z" class="st10"/><path d="M143.8 132.8c-1.8.3-3.1-1.2-3-3.5l.3-9.5c.1-2.2 1.6-4.3 3.2-4.7 1.8-.3 3.1 1.2 3 3.4l-.3 9.5c.1 2.5-1.4 4.5-3.2 4.8z" class="st12"/><path d="M144 126.1c-1.8.3-3.1-1.2-3-3.5l.3-9.5c.1-2.2 1.6-4.3 3.2-4.7 1.8-.3 3.1 1.2 3 3.4l-.3 9.5c.1 2.4-1.4 4.4-3.2 4.8z" class="st6"/><path d="M136.6 137c-1.8.3-3.1-1.2-3-3.4l.3-9.5c.1-2.2 1.6-4.3 3.2-4.7 1.8-.3 3.1 1.2 3 3.4l-.3 9.5c0 2.3-1.5 4.4-3.2 4.7z" class="st12"/><path d="M136.8 130.3c-1.8.3-3.1-1.2-3-3.5l.3-9.5c.1-2.2 1.5-4.3 3.2-4.7 1.8-.3 3.1 1.2 3 3.4l-.3 9.5c0 2.3-1.5 4.4-3.2 4.8z" class="st6"/><path d="M130.5 140.4c-1.8.3-3.1-1.2-3-3.5l.2-6.4c.1-2.2 1.6-4.3 3.2-4.7 1.8-.3 3 1.2 3 3.4l-.2 6.4c0 2.4-1.5 4.5-3.2 4.8z" class="st12"/><path d="m131 134.8-.6.1c-1.6.3-2.8-1.1-2.7-3.1l.2-7.1c.1-2.1 1.4-3.9 2.9-4.2l.6-.1c1.6-.3 2.8 1.1 2.7 3.1l-.2 7.1c-.1 2-1.4 3.9-2.9 4.2z" class="st6"/><path d="M154.7 136.8c-1.3-1.2-1.3-3.8-.1-5.7l3.4-5.4c1.2-1.9 3.2-2.4 4.4-1.2 1.3 1.2 1.3 3.8.1 5.7l-3.4 5.4c-1.1 2-3.1 2.5-4.4 1.2zM151.2 133.3c-1.8.3-3.1-1.2-3-3.5l.2-7.5c.1-2.2 1.5-4.3 3.2-4.7 1.8-.3 3.1 1.2 3 3.4l-.2 7.5c0 2.4-1.5 4.4-3.2 4.8z" class="st12"/><path d="m151.6 125.4-.4.1c-1.7.3-2.9-1.1-2.8-3.3l.2-8c.1-2.1 1.5-4.1 3-4.4l.4-.1c1.7-.3 2.9 1.1 2.8 3.3l-.2 8c0 2.1-1.4 4.1-3 4.4z" class="st6"/><path d="m160.8 70.4-12.5 18.7 5.1 15.3L166 85.7z" class="st16"/><path d="m153.4 104.4 13 4.9L179 90.6l-13-4.9z" class="st3"/><path d="m166 85.7 13 4.9-5.4-15.4-12.8-4.8z" class="st13"/><path d="M88.2 154.4c-1.1 9.5 3.8 17.1 11.1 16.8 7.2-.3 14-8.3 15.1-17.8 1.1-9.6-3.8-17.1-11.1-16.8-7.2.3-14.1 8.3-15.1 17.8z" style="opacity:.2;fill:#01056a;enable-background:new"/><path d="m96.6 154.8 5.2-5.3 3.9 5 .6-4.9-4-4.9-5.1 5.3z" class="st13"/><path d="m95.6 163.3 5.2-5.3 4 4.9.5-4.8-4-5-5.2 5.4zM146.1 92.4c-2.4 1.5-3.7 3.1-3.8 4.6-.2 4 8.9 5.9 20.5 4.2 11.6-1.7 21.1-6.2 21.3-10.3.1-2-2-3.4-5.6-4.1 6 .7 9.9 2.6 9.7 5.4-.3 4.7-11.6 10.1-25.1 12.1s-24.4-.3-24.1-5c0-2.2 2.8-4.7 7.1-6.9z" class="st13"/><path d="M118.3 48.3c-.2-5-.4-12.3 5-13.9.7-.2 1.4-.3 2-.2-7.2-1.4-8.2 7.9-7 14.1z" class="st16"/><path d="M127.6 36.3c-5.6-1.9-10.8 5.2-9.5 12.4h.1c.2-7.2 3.8-12.2 9.4-12.4z" class="st16"/><path d="M110.6 62.6c5.8-18.8 14.4-19.2 25.5-13.7 8.9 4.5 9.2 12.2 4.2 24.6l1 .7c6.3-9.9 7.1-20.9-.2-27.1-6.4-5.2-18.4-9.3-25.6.5-3 4.1-4.7 9.5-5.4 14.7h.3l.2.3z" class="st13"/><path d="M133.7 91.2c2.5 1 7.4-2.6 9.5-8.6 2.2-6 .6-12.1-1.9-13.1-2.4-.9-10 20.8-7.6 21.7z" class="st11"/><path d="M135.5 91.9c2.5 1 7.4-2.6 9.5-8.6s.6-12.1-1.9-13.1-10 20.8-7.6 21.7z" class="st16"/><defs><path id="SVGID_00000013908919011894881000000012383397948757246881_" d="M135.5 91.9c2.5 1 7.4-2.6 9.5-8.6s.6-12.1-1.9-13.1-10 20.8-7.6 21.7z"/></defs><clipPath id="SVGID_00000165937114658840002330000006467560421060039573_"><use xlink:href="#SVGID_00000013908919011894881000000012383397948757246881_" style="overflow:visible"/></clipPath><g style="clip-path:url(#SVGID_00000165937114658840002330000006467560421060039573_)"><path d="M141.6 80.9c-1.7 4.8-2.2 9.1-1 9.6 1.2.5 3.5-3.1 5.2-7.9 1.7-4.8 2.2-9.1 1-9.6-1.1-.5-3.5 3-5.2 7.9z" class="st11"/><path d="M142.7 79.6c-1.7 4.8-2.2 9-1.1 9.4 1.1.4 3.3-3.1 5-7.9s2.2-9 1.1-9.4c-1-.5-3.3 3.1-5 7.9z" class="st13"/></g><path d="M104.1 79.6c-2.5-1-3.9-7.1-1.9-13.1 2.2-6 7.1-9.6 9.5-8.6 2.5.9-5.2 22.6-7.6 21.7z" class="st11"/><path d="M102.3 78.9c-2.5-1-3.9-7.1-1.9-13.1 2.2-6 7.1-9.6 9.5-8.6s-5.1 22.6-7.6 21.7z" class="st16"/><defs><path id="SVGID_00000055695625248938625160000009216708522164335239_" d="M102.3 78.9c-2.5-1-3.9-7.1-1.9-13.1 2.2-6 7.1-9.6 9.5-8.6s-5.1 22.6-7.6 21.7z"/></defs><clipPath id="SVGID_00000105388496917954998290000011577641855213608362_"><use xlink:href="#SVGID_00000055695625248938625160000009216708522164335239_" style="overflow:visible"/></clipPath><g style="clip-path:url(#SVGID_00000105388496917954998290000011577641855213608362_)"><path d="M104.6 66.3c-1.7 4.8-4 8.4-5.2 7.9-1.2-.5-.8-4.8 1-9.6s4-8.4 5.2-7.9c1.1.5.6 4.8-1 9.6z" class="st11"/><path d="M104.5 64.5c-1.7 4.8-3.9 8.3-5 7.9-1.1-.4-.6-4.7 1.1-9.4 1.7-4.8 3.9-8.3 5-7.9 1 .4.5 4.6-1.1 9.4z" class="st13"/></g></g><linearGradient id="SVGID_00000108272711959618909190000009386494820883369364_" x1="1344.737" x2="1539.263" y1="995.947" y2="994.053" gradientTransform="matrix(0 1 1 0 -887.5 -1345.5)" gradientUnits="userSpaceOnUse"><stop offset="0" style="stop-color:#00253f"/><stop offset=".1" style="stop-color:#032a44"/><stop offset=".21" style="stop-color:#0d3752"/><stop offset=".33" style="stop-color:#1c4d69"/><stop offset=".45" style="stop-color:#326c8a"/><stop offset=".58" style="stop-color:#4f94b3"/><stop offset=".71" style="stop-color:#71c4e6"/><stop offset=".76" style="stop-color:#7dd6f8"/><stop offset="1" style="stop-color:#4fb9f2"/></linearGradient><path d="M28.4 1h158.2C201.7 1 214 9.6 214 20.3v152.4c0 10.7-12.3 19.3-27.4 19.3H28.4C13.3 192 1 183.4 1 172.7V20.3C1 9.6 13.3 1 28.4 1z" style="fill:none;stroke:url(#SVGID_00000108272711959618909190000009386494820883369364_);stroke-width:2;stroke-miterlimit:10"/></g></g></svg>