<?xml version="1.0" encoding="utf-8"?>
<!-- Generator: Adobe Illustrator 26.0.1, SVG Export Plug-In . SVG Version: 6.00 Build 0)  -->
<svg version="1.1" id="Layer_1" xmlns="http://www.w3.org/2000/svg" xmlns:xlink="http://www.w3.org/1999/xlink" x="0px" y="0px"
	 viewBox="0 0 212 197" style="enable-background:new 0 0 212 197;" xml:space="preserve">
<style type="text/css">
	.st0{clip-path:url(#SVGID_00000089550695343320661650000013289298339226804379_);}
	.st1{opacity:0.2;fill:#036DF9;enable-background:new    ;}
	.st2{fill:#036DF9;}
	.st3{fill:none;stroke:#036DF9;stroke-width:0.47;stroke-miterlimit:10;}
	.st4{clip-path:url(#SVGID_00000046333277317392306420000010340389670050780844_);}
	.st5{fill:none;stroke:#036DF9;stroke-width:0.68;stroke-miterlimit:10;}
	.st6{fill:none;stroke:#036DF9;stroke-width:0.56;stroke-miterlimit:10;}
	.st7{fill:#772AC3;}
	.st8{fill:none;stroke:#FFFFFF;stroke-width:0.32;stroke-miterlimit:10;}
	.st9{fill:#99FAFF;}
	.st10{fill:#FFFFFF;}
	.st11{fill:#E23875;}
	.st12{fill:#01056A;}
	.st13{fill:#FF83A8;}
	.st14{clip-path:url(#SVGID_00000150100927035399014370000011300334850507446160_);}
	.st15{fill:#8E0D42;}
	.st16{clip-path:url(#SVGID_00000159446942095245785640000003165579393109176193_);}
	.st17{clip-path:url(#SVGID_00000040554318096536048000000011230183377036585115_);}
	.st18{clip-path:url(#SVGID_00000036241977118981539630000017366028971640573080_);}
	.st19{clip-path:url(#SVGID_00000054965109816142649700000012664967216143992449_);}
	.st20{clip-path:url(#SVGID_00000084509864218797954190000000694874454171951802_);}
	.st21{fill:none;stroke:url(#SVGID_00000072987705016166951910000016889512867126365090_);stroke-width:2;stroke-miterlimit:10;}
</style>
<g id="Layer_2_00000025404786414926905190000014742566240642510013_">
	<g id="Layer_3">
		<g>
			<defs>
				<path id="SVGID_1_" d="M-1.6,166.1C-1.3,120.9-1,75.6-0.7,30.4c0.1-16.5,12-29.8,26.6-29.8H187c14.7,0,26.6,13.4,26.6,30
					c0,0.1,0,0.2,0,0.4l-1.3,135.8c-0.2,16.5-12,29.7-26.6,29.7H25c-14.7,0-26.6-13.5-26.6-30.1C-1.6,166.3-1.6,166.2-1.6,166.1z"/>
			</defs>
			<clipPath id="SVGID_00000159464068361484774810000013704492814569899194_">
				<use xlink:href="#SVGID_1_"  style="overflow:visible;"/>
			</clipPath>
			<g style="clip-path:url(#SVGID_00000159464068361484774810000013704492814569899194_);">
				<path class="st1" d="M170.7,119l-51.5-16.7c-6.3-2-8.2-13.6-3.4-19.7l17.6-21.9c5-6.2,11.7-8.7,18.1-6.6L203,70.7
					c6.3,2,8.2,13.6,3.4,19.7l-17.5,21.9C183.8,118.6,177.1,121.1,170.7,119z"/>
				<path class="st1" d="M159.3,87.3l-51.6-16.7c-6.3-2-8.2-13.6-3.4-19.7L121.9,29c5-6.2,11.7-8.7,18.1-6.6L191.5,39
					c6.3,2,8.2,13.6,3.4,19.7l-17.5,21.9C172.4,86.9,165.7,89.4,159.3,87.3z"/>
				<path class="st1" d="M56.9,165.6l-32.5-10.5c-3.9-1.3-5.2-8.6-2.1-12.4l11-13.8c3.1-3.9,7.4-5.5,11.4-4.2l32.5,10.5
					c4,1.3,5.2,8.6,2.1,12.4l-11,13.8C65.1,165.4,60.9,167,56.9,165.6z"/>
				<path class="st1" d="M49.7,145.7l-32.5-10.5c-4-1.3-5.2-8.6-2.1-12.4L26.2,109c3.1-3.9,7.4-5.4,11.4-4.2L70,115.3
					c3.9,1.3,5.2,8.6,2.1,12.4l-11.1,13.8C58,145.5,53.7,147,49.7,145.7z"/>
				<path class="st2" d="M199.9,87.2l-18.6-6c-0.7-0.4-0.9-1.3-0.6-2.1c0,0,0-0.1,0.1-0.1l0,0c0.2-0.4,0.6-0.6,1-0.5l18.7,6
					c0.7,0.4,0.9,1.3,0.6,2c0,0,0,0.1-0.1,0.1l0,0C200.7,87.1,200.3,87.3,199.9,87.2z"/>
				<path class="st2" d="M186.9,87.9l-6.4-2.1c-0.7-0.4-1-1.3-0.6-2c0,0,0-0.1,0.1-0.1l0,0c0.2-0.4,0.6-0.6,1-0.5l6.4,2.1
					c0.7,0.4,0.9,1.3,0.6,2.1c0,0,0,0.1,0,0.1l0,0C187.6,87.7,187.2,87.9,186.9,87.9z"/>
				<path class="st2" d="M164,38.2l-32.4-10.5c-0.7-0.3-1.1-1.2-0.9-2l0,0c0.1-0.9,0.8-1.5,1.4-1.3l32.4,10.5c0.7,0.3,1.1,1.2,0.9,2
					l0,0C165.2,37.9,164.6,38.4,164,38.2z"/>
				<path class="st2" d="M177.5,42.6l-7.7-2.5c-0.7-0.3-1.1-1.2-0.9-2l0,0c0.1-0.9,0.8-1.5,1.4-1.3l7.7,2.5c0.7,0.3,1.1,1.2,0.9,2
					l0,0C178.8,42.3,178.2,42.8,177.5,42.6z"/>
				<path class="st2" d="M187.6,45.9l-4-1.3c-0.7-0.3-1.1-1.2-0.9-2l0,0c0.1-0.9,0.8-1.5,1.4-1.3l4,1.3c0.7,0.3,1.1,1.2,0.9,2l0,0
					C188.8,45.5,188.2,46.1,187.6,45.9z"/>
				<path class="st2" d="M137.9,39l-7.7-2.5c-0.7-0.3-1.1-1.2-0.9-2l0,0c0.1-0.9,0.8-1.5,1.4-1.3l7.7,2.5c0.7,0.3,1.1,1.2,0.9,2l0,0
					C139.1,38.6,138.5,39.2,137.9,39z"/>
				<path class="st2" d="M147.9,42.2l-4-1.3c-0.7-0.3-1.1-1.2-0.9-2l0,0c0.1-0.9,0.8-1.5,1.4-1.3l4,1.3c0.7,0.3,1.1,1.2,0.9,2l0,0
					C149.2,41.8,148.6,42.4,147.9,42.2z"/>
				<path class="st2" d="M160.4,65.7l-9.9-3.2c-0.8-0.4-1.3-1.5-1.1-2.5l0,0c0.2-1.1,1-1.8,1.7-1.6l9.9,3.2c0.8,0.4,1.3,1.4,1.1,2.4
					l0,0C161.9,65.3,161.1,66,160.4,65.7z"/>
				<path class="st3" d="M160.9,63.8l10.8-10.4c0.3-0.3,0.7-0.4,1.1-0.3l5.4,1.7"/>
				<path class="st3" d="M181.5,55.9c0.4-2.7-0.7-5.3-2.6-5.9s-3.6,1.1-4,3.8c-0.4,2.7,0.7,5.3,2.6,5.9
					C179.2,60.2,181,58.5,181.5,55.9z"/>
				<path class="st2" d="M179.7,55.3c0.2-1.1-0.3-2.3-1.2-2.8c-0.9-0.3-1.7,0.5-1.9,1.8c-0.3,1.2,0.3,2.3,1.2,2.8
					C178.7,57.4,179.5,56.6,179.7,55.3z"/>
				<path class="st2" d="M167.7,122.3l-1.3,8.5c-0.1,0.6,0.3,1.1,0.7,0.8l4.5-3c0.3-0.3,0.4-0.8,0.2-1.1l-3.2-5.5
					C168.3,121.5,167.8,121.8,167.7,122.3z"/>
				<path class="st2" d="M172.8,124l-1.3,8.5c-0.1,0.6,0.3,1.1,0.7,0.8l4.5-3c0.3-0.3,0.4-0.8,0.2-1.1l-3.2-5.5
					C173.5,123.2,172.9,123.4,172.8,124z"/>
				
					<ellipse transform="matrix(1.860478e-03 -1 1 1.860478e-03 -4.3253 93.9245)" class="st1" cx="44.9" cy="49.1" rx="42.1" ry="28.8"/>
				<g>
					<defs>
						<path id="SVGID_00000155847957812169205830000008823665118490395552_" d="M49.3,56c2.6-3.9,2.7-9.2,0.4-13.3
							c-2.4-3.8-6.5-4-9.1-0.5c-2.6,3.9-2.8,9.2-0.4,13.3C42.6,59.3,46.6,59.6,49.3,56z"/>
					</defs>
					<clipPath id="SVGID_00000027600989274022215500000000696313788251070110_">
						<use xlink:href="#SVGID_00000155847957812169205830000008823665118490395552_"  style="overflow:visible;"/>
					</clipPath>
					<g style="clip-path:url(#SVGID_00000027600989274022215500000000696313788251070110_);">
						<path class="st2" d="M45.4,60.2l-8.8-13.9c-0.1-0.2-0.1-0.5,0-0.7l0,0c0.1-0.2,0.3-0.2,0.4-0.1c0,0,0.1,0.1,0.1,0.1l8.8,13.9
							c0.1,0.2,0.1,0.5,0,0.7l0,0c-0.1,0.2-0.3,0.2-0.4,0.1C45.4,60.3,45.4,60.3,45.4,60.2z"/>
						<path class="st2" d="M44,62.1l-8.8-13.9c-0.1-0.2-0.1-0.5,0-0.7l0,0c0.1-0.2,0.3-0.2,0.4-0.1c0,0,0.1,0,0.1,0.1l8.8,13.9
							c0.1,0.2,0.1,0.5,0,0.7l0,0C44.4,62.2,44.2,62.3,44,62.1C44.1,62.1,44.1,62.1,44,62.1z"/>
						<path class="st2" d="M39.2,42.8l8.9,14.1c0.1,0.2,0.3,0.2,0.4,0.1c0,0,0.1-0.1,0.1-0.1l0,0c0.1-0.2,0.1-0.5,0-0.7l-8.9-14.1
							c-0.1-0.2-0.3-0.2-0.4-0.1c0,0-0.1,0.1-0.1,0.1l0,0C39,42.3,39,42.6,39.2,42.8z"/>
						<path class="st2" d="M37.8,44.7l8.9,14.1c0.1,0.2,0.3,0.2,0.4,0.1c0,0,0.1-0.1,0.1-0.1l0,0c0.1-0.2,0.1-0.5,0-0.7L38.3,44
							c-0.1-0.2-0.3-0.2-0.4-0.1c0,0-0.1,0.1-0.1,0.1l0,0C37.7,44.2,37.7,44.5,37.8,44.7z"/>
						<path class="st2" d="M50.7,53.1l-8.8-13.9c-0.1-0.2-0.1-0.5,0-0.7l0,0c0.1-0.2,0.3-0.2,0.4-0.1c0,0,0.1,0.1,0.1,0.1l8.8,13.9
							c0.1,0.2,0.1,0.5,0,0.7l0,0c-0.1,0.2-0.3,0.2-0.4,0.1C50.7,53.2,50.7,53.2,50.7,53.1z"/>
						<path class="st2" d="M49.3,54.9L40.5,41c-0.1-0.2-0.1-0.5,0-0.7l0,0c0.1-0.2,0.3-0.2,0.4-0.1c0,0,0.1,0.1,0.1,0.1l8.8,13.9
							c0.1,0.2,0.1,0.5,0,0.7l0,0c-0.1,0.2-0.3,0.2-0.4,0.1C49.4,55,49.4,55,49.3,54.9z"/>
						<path class="st2" d="M44.5,35.7l8.9,14.1c0.1,0.2,0.3,0.2,0.4,0.1c0,0,0.1-0.1,0.1-0.1l0,0c0.1-0.2,0.1-0.5,0-0.7L44.9,35
							c-0.1-0.2-0.3-0.2-0.4-0.1c0,0-0.1,0.1-0.1,0.1l0,0C44.3,35.2,44.3,35.5,44.5,35.7z"/>
						<path class="st2" d="M43.1,37.5L52,51.6c0.1,0.2,0.3,0.2,0.4,0.1c0,0,0.1,0,0.1-0.1l0,0c0.1-0.2,0.1-0.5,0-0.7l-8.9-14.1
							c-0.1-0.2-0.3-0.2-0.4-0.1c0,0-0.1,0.1-0.1,0.1l0,0C43,37,43,37.3,43.1,37.5z"/>
					</g>
				</g>
				
					<ellipse transform="matrix(1.860766e-03 -1 1 1.860766e-03 -4.3253 93.9245)" class="st5" cx="44.9" cy="49.1" rx="35.4" ry="24.2"/>
				<path class="st2" d="M72.4,19.2l-5-7.8c-0.4-0.6-1-0.3-1.1,0.5l-1,8.7c-0.1,0.6,0.3,1.1,0.7,1.1l6-0.9
					C72.5,20.7,72.8,19.8,72.4,19.2z"/>
				<path class="st2" d="M17.4,79l5,7.9c0.3,0.6,1,0.3,1.1-0.5l1-8.7c0.1-0.6-0.3-1.1-0.7-1.1l-6,0.8C17.3,77.6,17,78.5,17.4,79z"/>
				<path class="st6" d="M33.6,64.7c-6.1-9.6-5.7-24.6,0.9-33.5s16.9-8.4,23,1.3s5.7,24.6-0.9,33.5"/>
				<path class="st2" d="M32.6,63c-0.6,0.9-0.7,2.3-0.1,3.2c0.4,0.7,1.2,0.9,1.8,0.5c0.2-0.1,0.3-0.2,0.4-0.4
					c0.6-0.9,0.7-2.3,0.1-3.2c-0.4-0.7-1.2-1-1.8-0.5C32.8,62.7,32.7,62.9,32.6,63z"/>
				<path class="st2" d="M55.6,64.3c-0.6,0.9-0.7,2.3-0.1,3.2c0.4,0.7,1.2,0.9,1.8,0.5c0.2-0.1,0.3-0.2,0.4-0.4
					c0.7-1,0.7-2.3,0.1-3.3c-0.4-0.7-1.2-0.9-1.8-0.5C55.8,64,55.7,64.1,55.6,64.3z"/>
				<path class="st7" d="M119,114.8l-0.9-1.3c9-13.5,12.8-24.7,11.1-32.4c-1.8-7.8-8.8-9.7-8.9-9.7l0.2-1.8c0.3,0.1,7.9,2,9.9,10.9
					C132.3,89,128.4,100.5,119,114.8z"/>
				<path class="st7" d="M124.5,114.2l-0.6-0.9c10.5-14.2,14.9-25.6,13-33.7c-2.5-10.6-15.3-12.1-15.4-12.1l0.1-1.2
					c2.4,0.3,4.7,1.1,7,2.1c4.9,2.3,8,6,9.1,10.8C139.8,87.9,135.4,99.6,124.5,114.2z"/>
				
					<ellipse transform="matrix(0.9999 -1.432201e-02 1.432201e-02 0.9999 -2.5598 1.4435)" class="st2" cx="99.5" cy="179.4" rx="61.2" ry="18.5"/>
				
					<ellipse transform="matrix(0.9999 -1.432190e-02 1.432190e-02 0.9999 -2.4288 1.4418)" class="st1" cx="99.5" cy="170.3" rx="91.3" ry="27.7"/>
				
					<ellipse transform="matrix(0.9999 -1.432167e-02 1.432167e-02 0.9999 -2.5196 1.443)" class="st8" cx="99.5" cy="176.6" rx="70.4" ry="21.3"/>
				
					<ellipse transform="matrix(0.9999 -1.432195e-02 1.432195e-02 0.9999 -2.5963 1.444)" class="st9" cx="99.5" cy="182" rx="52.8" ry="16"/>
				<path class="st10" d="M111.1,103l-27.3,0.1c-12.4,0-21.9,16.7-20.1,35.1l5.7,57.7c18.8,3.1,37.8,3,56.6-0.2l5.2-58.1
					C132.9,119.3,123.4,103,111.1,103z"/>
				<path class="st11" d="M52.8,148.6L52.8,148.6c4,4.9,10,4.2,13.4-1.7l13.8-23.8c3.4-5.9,2.9-14.6-1.1-19.6l0,0
					c-4-4.9-10-4.2-13.4,1.7L51.6,129C48.2,134.9,48.8,143.7,52.8,148.6z"/>
				<path class="st11" d="M145.3,151L145.3,151c4.2-4.6,5-13.3,1.9-19.5l-8-15.4c-3.2-6.1-9.1-7.3-13.3-2.7l0,0
					c-4.2,4.6-5,13.3-1.9,19.5l8,15.5C135.1,154.4,141.1,155.6,145.3,151z"/>
				<path class="st11" d="M135.9,153.2L135.9,153.2c3.9,3.3,8.9,1.4,11.2-4.3l13.8-34.1c2.3-5.7,1-13-2.9-16.4l0,0
					c-3.9-3.4-8.9-1.5-11.2,4.3L133,136.8C130.7,142.5,132,149.8,135.9,153.2z"/>
				<path class="st12" d="M149.3,120.4L149.3,120.4c3.6,3.1,8.2,1.3,10.3-3.9l1.7-4.2c2.1-5.2,1-11.9-2.7-15l0,0
					c-3.6-3.1-8.2-1.3-10.3,3.9l-1.7,4.2C144.6,110.6,145.8,117.3,149.3,120.4z"/>
				<path class="st9" d="M151.2,112.5l1.9,1.6c3,2.6,7,1.1,8.7-3.3l0,0c1.8-4.4,0.8-10.2-2.3-12.8l-1.9-1.7c-3-2.6-7-1.1-8.7,3.3
					l0,0C147.2,104.2,148.2,109.9,151.2,112.5z"/>
				<path class="st11" d="M62.1,151.8l0.2-0.2c3.9-3.6,5-11.1,2.6-16.8l-12.2-28.1c-2.5-5.7-7.7-7.3-11.5-3.7l-0.2,0.2
					c-3.9,3.6-5,11.1-2.6,16.8l12.2,28.1C53.1,153.7,58.3,155.4,62.1,151.8z"/>
				<path class="st12" d="M52,128.3L52,128.3c3.6-3.3,4.6-10.2,2.3-15.4l-2.8-6.4c-2.3-5.2-7-6.7-10.5-3.4l0,0
					c-3.6,3.2-4.6,10.2-2.3,15.4l2.8,6.4C43.8,130.1,48.5,131.6,52,128.3z"/>
				<path class="st9" d="M48.7,121.4l0.5-0.4c3.4-3.2,4.4-9.8,2.3-14.8l0,0c-2.2-5-6.7-6.5-10.1-3.2l-0.5,0.4
					c-3.4,3.2-4.4,9.8-2.3,14.8l0,0C40.8,123.2,45.3,124.6,48.7,121.4z"/>
				<path class="st7" d="M79.4,87.9C78.8,92,87.6,98.3,99.1,102s21.4,3.5,22-0.6c0.6-4.1-8.2-10.4-19.7-14.1S80,83.9,79.4,87.9z"/>
				<path class="st12" d="M85.2,92c-0.4,2.9,5.8,7.3,14,10c8.1,2.6,15.1,2.4,15.6-0.4c0.4-2.9-5.8-7.3-14-10S85.6,89.2,85.2,92z"/>
				
					<ellipse transform="matrix(3.501501e-02 -0.9994 0.9994 3.501501e-02 24.7151 154.4895)" class="st11" cx="92.4" cy="64.4" rx="8.4" ry="5.5"/>
				<path class="st7" d="M98.7,34.6c0,0-14.3-0.5-1.7,15.1C97,49.7,103.4,38.5,98.7,34.6z"/>
				<path class="st13" d="M106.9,113.1l2.9-26.1l-16.7-3.9l-2.9,26.1c-0.7,6.7,2.4,13,7,14.1l0,0
					C101.8,124.4,106.2,119.8,106.9,113.1z"/>
				<g>
					<defs>
						<path id="SVGID_00000117637077509534260170000007302702039757248184_" d="M106.9,113.1l2.9-26.1l-16.7-3.9l-2.9,26.1
							c-0.7,6.7,2.4,13,7,14.1l0,0C101.8,124.4,106.2,119.8,106.9,113.1z"/>
					</defs>
					<clipPath id="SVGID_00000026145728418628877420000017015342035991405209_">
						<use xlink:href="#SVGID_00000117637077509534260170000007302702039757248184_"  style="overflow:visible;"/>
					</clipPath>
					<g style="clip-path:url(#SVGID_00000026145728418628877420000017015342035991405209_);">
						<path class="st11" d="M105.6,88.4c0,4.7-3.7,8.5-8.3,8.6s-8.4-3.7-8.4-8.4s3.7-8.5,8.3-8.6C101.8,80,105.6,83.7,105.6,88.4z"
							/>
					</g>
				</g>
				<path class="st13" d="M119,73.9c-3.4,14.7-10.4,24.8-20.5,20.1s-11.3-19.1-7.9-34.1c3.3-14.8,12.2-23.7,20.4-19.7
					S122.4,59.2,119,73.9z"/>
				<path class="st12" d="M115.2,64.9c-1.1-5.8-7.1-7.7-9.2-3.7C109.3,61.8,112.4,63.1,115.2,64.9z"/>
				<path class="st12" d="M93.7,55.1c2-4.2,8.2-1.9,8.2,3C101.9,58.2,98.1,54.2,93.7,55.1z"/>
				<path class="st15" d="M105.3,79.9c-0.6-1.7-9.2-5-9.8-4c-0.7,1,0.3,8.4,4.1,8.9C103.3,85.3,105.9,81.5,105.3,79.9z"/>
				<g>
					<defs>
						<path id="SVGID_00000179626009532237018450000004119531485738909107_" d="M105.3,79.9c-0.6-1.7-9.2-5-9.8-4
							c-0.7,1,0.3,8.4,4.1,8.9C103.3,85.3,105.9,81.5,105.3,79.9z"/>
					</defs>
					<clipPath id="SVGID_00000182486640858122528870000003522215014300205758_">
						<use xlink:href="#SVGID_00000179626009532237018450000004119531485738909107_"  style="overflow:visible;"/>
					</clipPath>
					<g style="clip-path:url(#SVGID_00000182486640858122528870000003522215014300205758_);">
						<path class="st11" d="M95.6,82.1c-0.4,1.5,1,3.6,3.1,4.6c2.1,1,4,0.6,4.4-1c0.4-1.5-1-3.6-3.1-4.6
							C97.9,80.1,96,80.5,95.6,82.1z"/>
						<path class="st10" d="M95.9,75.7c-0.2,0.9,1.9,2.5,4.1,3.6c2.2,1,4.4,0.6,4.6-0.3c0.2-0.9-1.7-2-3.8-3.1
							C98.6,74.9,96,74.7,95.9,75.7z"/>
					</g>
				</g>
				<path class="st7" d="M113.1,28.6c0,0-6.4-5-11.1-1.9c0.7,0.1,1.5,0.3,2.1,0.6c13,6.4,31.7,26.8,15.5,44.1l-4.5,4.1
					c0,0,1.1-11.5,4-17.3c0,0-13.6-4-21.3-14C97.8,44.2,93.6,11.9,113.1,28.6z"/>
				<path class="st13" d="M114.3,75.1c-1,4.4,0.4,9.1,3.1,10.5c2.8,1.4,5.8-1.1,6.8-5.5c1-4.4-0.4-9.1-3.1-10.5
					S115.3,70.7,114.3,75.1z"/>
				<path class="st11" d="M121.6,79.6c0.7-2.8-0.2-5.9-2-6.7c-0.9-0.4-1.9-0.3-2.7,0.4c0.8-1.3,2.3-1.9,3.6-1.3
					c1.9,0.9,2.9,4.2,2.2,7.2c-0.6,2.5-2.2,4.1-3.8,4.1C120.3,82.6,121.3,81.3,121.6,79.6z"/>
				<path class="st11" d="M101.5,68.7l-0.9,3.9c-0.2,0.8-0.8,1.3-1.4,1l0,0c-0.7-0.5-0.9-1.5-0.5-2.3c0,0,0.1-0.1,0.1-0.1
					c0.7-1,1.5-1.9,2.4-2.7C101.4,68.2,101.6,68.5,101.5,68.7z"/>
				<path class="st13" d="M121.2,63.6l-4.7-2.3c-0.2-0.2-0.3-0.5-0.3-0.8l0,0c0-0.3,0.2-0.4,0.5-0.4c0,0,0.1,0,0.1,0l4.6,2.3
					c0.2,0.2,0.4,0.5,0.3,0.8l0,0C121.6,63.6,121.4,63.8,121.2,63.6z"/>
				<path class="st13" d="M120.5,66.6l-4.6-2.3c-0.2-0.2-0.3-0.5-0.3-0.8l0,0c0.1-0.3,0.3-0.5,0.5-0.4l4.7,2.3
					c0.2,0.2,0.3,0.5,0.3,0.8l0,0C121,66.5,120.7,66.7,120.5,66.6C120.5,66.6,120.5,66.6,120.5,66.6z"/>
				<path class="st12" d="M113.2,69.9c0-1.4-0.5-2.8-1.2-4c-1.6-2.1-4.6-3.2-7.3,1.4L113.2,69.9z"/>
				<path class="st10" d="M104.3,68.3c0.3-1.2,1-2.1,1.9-2.8c1.9-1.2,5-0.9,7,4.4C113.2,69.9,108.8,74.9,104.3,68.3z"/>
				<g>
					<defs>
						<path id="SVGID_00000080904331301677962060000000586732468981045376_" d="M104.3,68.3c0.3-1.2,1-2.1,1.9-2.8
							c1.9-1.2,5-0.9,7,4.4C113.2,69.9,108.8,74.9,104.3,68.3z"/>
					</defs>
					<clipPath id="SVGID_00000159463317419802157990000001171244888803134374_">
						<use xlink:href="#SVGID_00000080904331301677962060000000586732468981045376_"  style="overflow:visible;"/>
					</clipPath>
					<g style="clip-path:url(#SVGID_00000159463317419802157990000001171244888803134374_);">
						<path class="st12" d="M110.1,68.8c-0.7,1.8-2.1,2.4-3.3,1.5c-1.2-1.2-1.6-3.2-1-4.9c0.6-1.8,2.1-2.4,3.3-1.5
							C110.4,65.1,110.8,67.1,110.1,68.8z"/>
					</g>
				</g>
				<path class="st9" d="M106.4,66.5c-0.1,0.5,0,1.1,0.5,1.4c0.4,0.2,0.8-0.1,1-0.7c0.1-0.5-0.1-1.1-0.5-1.4
					C106.9,65.6,106.5,65.9,106.4,66.5z"/>
				<path class="st9" d="M107.7,68.9c-0.1,0.2,0,0.5,0.2,0.6c0.2,0.1,0.3-0.1,0.4-0.2c0,0,0,0,0-0.1c0.1-0.2,0-0.5-0.2-0.6
					C108,68.6,107.8,68.7,107.7,68.9C107.7,68.9,107.7,68.9,107.7,68.9z"/>
				<path class="st12" d="M92.5,59.7c0.9-1.1,2.1-1.7,3.3-1.8c2.3,0,5.2,2.2,4.4,8.4L92.5,59.7z"/>
				<path class="st10" d="M100.2,66.3c0.2-1.3,0.1-2.7-0.3-3.9c-1-2.6-3.6-5.1-7.4-2.7C92.5,59.7,93.9,67.5,100.2,66.3z"/>
				<g>
					<defs>
						<path id="SVGID_00000109730388013276588810000001903471772332976566_" d="M100.2,66.3c0.2-1.3,0.1-2.7-0.3-3.9
							c-1-2.6-3.6-5.1-7.4-2.7C92.5,59.7,93.9,67.5,100.2,66.3z"/>
					</defs>
					<clipPath id="SVGID_00000021077693344970664890000016799039364373429421_">
						<use xlink:href="#SVGID_00000109730388013276588810000001903471772332976566_"  style="overflow:visible;"/>
					</clipPath>
					<g style="clip-path:url(#SVGID_00000021077693344970664890000016799039364373429421_);">
						<path class="st12" d="M95.3,61.4c-0.2,1.9,0.7,3.7,2,4c1.3,0.3,2.5-1,2.7-2.9c0.2-1.9-0.7-3.7-2-4
							C96.8,58.2,95.5,59.5,95.3,61.4z"/>
					</g>
				</g>
				<path class="st9" d="M96.3,61.2c-0.1,0.5,0.1,1.1,0.5,1.4c0.4,0.2,0.8-0.1,1-0.7c0.1-0.5,0-1.1-0.5-1.4
					C96.8,60.3,96.4,60.6,96.3,61.2z"/>
				<path class="st9" d="M97.7,63.6c-0.1,0.2,0,0.5,0.2,0.6c0.2,0.1,0.3,0,0.4-0.3c0.1-0.2,0-0.5-0.2-0.6
					C97.9,63.3,97.7,63.4,97.7,63.6C97.7,63.6,97.7,63.6,97.7,63.6z"/>
				<path class="st9" d="M104.2,23.9c-5.5,0.2-5.9,8-6.8,12.6h-0.1C97.4,31.8,98.6,22.8,104.2,23.9z"/>
				<path class="st9" d="M95.6,35c-5.1,1.8-3.8,6.1-1.8,10.2L93,43.8C91,40.1,91.3,35.9,95.6,35L95.6,35z"/>
				
					<ellipse transform="matrix(1.860548e-03 -1 1 1.860548e-03 59.6826 256.8723)" class="st7" cx="158.5" cy="98.5" rx="15.1" ry="10.4"/>
				<path class="st11" d="M167.5,96.6c-0.4,2.7-2.2,4.3-4,3.7c-1.8-0.6-3-3.2-2.6-5.9s2.2-4.3,4-3.8C166.8,91.3,167.9,94,167.5,96.6
					z"/>
				<path class="st11" d="M166.9,93.3l-4.4-1.4c-1.2-0.4-2-2.2-1.8-4l0,0c0.3-1.8,1.5-3,2.8-2.6l4.4,1.4c1.3,0.4,2,2.2,1.8,4l0,0
					C169.4,92.5,168.2,93.6,166.9,93.3z"/>
				<path class="st13" d="M162.4,94.2l4.8-6.1c0.7-1,1.9-1.1,2.8-0.3c0.2,0.2,0.4,0.4,0.5,0.7l0,0c0.8,1.5,0.8,3.4-0.2,4.8l-4.8,6.1
					c-0.7,1-1.9,1.1-2.8,0.3c-0.2-0.2-0.4-0.4-0.5-0.7l0,0C161.4,97.5,161.5,95.5,162.4,94.2z"/>
				<path class="st13" d="M162.7,100.3l5.3-5c0.9-0.8,2.2-0.6,2.9,0.4c0.2,0.2,0.3,0.5,0.3,0.7l0,0c0.7,1.6,0.4,3.5-0.7,4.7l-5.3,5
					c-0.9,0.8-2.2,0.6-2.9-0.4c-0.2-0.2-0.3-0.5-0.3-0.7l0,0C161.3,103.4,161.6,101.5,162.7,100.3z"/>
				<path class="st13" d="M163,105.4l8-4.8l0,0c1,3.5-0.2,7.4-2.6,8.8l-3.7,2.2c-1.2,0.7-2.5-0.1-3-1.9l0,0
					C161.3,108.2,161.8,106.4,163,105.4z"/>
				<path class="st13" d="M156.8,89.9c0.9,1.4,2.6,1.8,3.9,0.8c0.3-0.3,0.6-0.6,0.8-1l10.2-16.7c1.4-2.7,1.7-6,0.6-8.9l0,0
					c-0.5-1.4-1.7-1.9-2.4-0.8l-13.2,19.9C155.5,85.1,155.5,87.8,156.8,89.9z"/>
				<path class="st11" d="M154.8,90.4c-0.4,2.7-2.2,4.3-4,3.7c-1.8-0.6-3-3.2-2.6-5.9c0.4-2.6,2.2-4.3,4-3.8
					C154.1,85.1,155.2,87.8,154.8,90.4z"/>
				<path class="st13" d="M151.9,75.5l2,11.6c0.4,2.3-0.5,4.6-2.1,5.2h0c-1.6,0.6-3.2-0.8-3.6-3.1l-1.5-9.9
					c-0.4-2.2,0.3-4.5,1.9-5.9l0,0C150,72.4,151.6,73.4,151.9,75.5z"/>
				<path class="st7" d="M33.4,100.9c-1.2,8.1,2.3,16.2,7.9,18c5.6,1.8,11.1-3.3,12.4-11.5c1.2-8.2-2.3-16.2-7.9-18
					C40.2,87.6,34.7,92.8,33.4,100.9z"/>
				<path class="st11" d="M35.9,96.9c-0.4,2.7,0.7,5.3,2.6,5.9c1.8,0.6,3.6-1.1,4-3.8s-0.7-5.3-2.6-5.9
					C38.2,92.5,36.4,94.3,35.9,96.9z"/>
				<path class="st11" d="M37.5,94.2l4.4,1.4c1.3,0.4,2.5-0.7,2.8-2.6l0,0c0.3-1.8-0.5-3.6-1.8-4l-4.4-1.4c-1.2-0.4-2.5,0.7-2.8,2.6
					l0,0C35.4,92,36.2,93.8,37.5,94.2z"/>
				<path class="st13" d="M41.3,97.8l-2.5-8.5c-0.5-1.7-1.9-2.5-3.1-1.7l0,0c-1.2,1-1.7,2.8-1.2,4.5l2.5,8.5
					c0.5,1.7,1.9,2.5,3.1,1.7l0,0C41.3,101.3,41.8,99.4,41.3,97.8z"/>
				<path class="st13" d="M39.3,103.2l-3.4-7.8c-0.7-1.6-2.1-2-3.2-1.1l0,0c-1.1,1.2-1.4,3.1-0.7,4.7l3.4,7.8
					c0.3,1.2,1.5,1.9,2.6,1.5c0.2-0.1,0.4-0.2,0.6-0.4l0,0C39.7,106.7,40,104.8,39.3,103.2z"/>
				<path class="st13" d="M37.5,107.7l-5.9-9.3l0,0c-1.9,2.8-2,6.6-0.3,9.6l2.7,4.3c0.6,1.1,1.8,1.4,2.7,0.8
					c0.2-0.2,0.4-0.3,0.6-0.6l0,0C38.3,111.1,38.3,109.2,37.5,107.7z"/>
				<path class="st13" d="M47.6,97.4c-1.8,0.9-3.7-0.5-4.2-3.1L39,72.8c-0.6-3,0.2-6.1,2-8.4l0,0c0.5-0.7,1.4-0.8,2-0.2
					c0.2,0.2,0.4,0.6,0.5,0.9l6.2,26.2C50.2,93.9,49.3,96.6,47.6,97.4L47.6,97.4z"/>
				<path class="st11" d="M49.3,99.1c-0.4,2.7,0.7,5.3,2.6,5.9c1.8,0.6,3.6-1.1,4-3.8c0.4-2.7-0.7-5.3-2.6-5.9
					C51.5,94.8,49.7,96.5,49.3,99.1z"/>
				<path class="st13" d="M56.3,87.4l-5.2,9.3c-1,1.9-0.9,4.3,0.4,6l0,0c0.9,1.2,2.5,1.3,3.6,0.2c0.2-0.2,0.4-0.5,0.6-0.8l4.2-8.1
					c1-2,1-4.5,0-6.6l0,0c-0.5-1.1-1.7-1.5-2.7-1C56.8,86.6,56.5,87,56.3,87.4z"/>
				<path class="st12" d="M113.5,74.3l-21.7-7c-3.9-1.3-6.4-7-5.5-12.7l0,0c0.9-5.7,4.8-9.4,8.7-8.1l21.7,7c3.9,1.3,6.4,7,5.5,12.7
					l0,0C121.4,72,117.5,75.6,113.5,74.3z"/>
				<path class="st10" d="M110.4,69.4l-21.7-7c-3.9-1.3-6.4-7-5.5-12.7l0,0c0.9-5.8,4.8-9.4,8.7-8.1l21.7,7c3.9,1.3,6.4,7,5.5,12.7
					l0,0C118.2,67,114.3,70.6,110.4,69.4z"/>
				<path class="st12" d="M110.2,68l-20.9-6.8c-3.5-1.1-5.7-6.2-4.9-11.2l0,0c0.8-5.1,4.2-8.3,7.7-7.2l20.9,6.8
					c3.5,1.1,5.7,6.2,4.9,11.2l0,0C117.1,65.9,113.6,69.2,110.2,68z"/>
				<path class="st11" d="M94.5,49.4l-4.1-1.3c-0.4-0.2-0.6-0.6-0.5-1.1l0,0c0.1-0.5,0.4-0.8,0.8-0.7l4.1,1.3
					c0.4,0.2,0.6,0.6,0.5,1.1l0,0C95.2,49.3,94.8,49.5,94.5,49.4z"/>
				<path class="st7" d="M110.2,65.3l-4.1-1.3c-0.4-0.2-0.6-0.6-0.5-1.1l0,0c0.1-0.5,0.4-0.8,0.8-0.7l4.1,1.3
					c0.4,0.2,0.6,0.6,0.5,1.1l0,0C110.9,65.1,110.5,65.5,110.2,65.3z"/>
				<path class="st7" d="M103.6,63.1l-1.3-3.1c-0.1-0.3-0.1-0.6,0.1-0.8l0,0c0.1-0.1,0.3-0.1,0.4,0c0,0,0.1,0.1,0.1,0.1l1.4,3.1
					c0.1,0.3,0.1,0.6-0.1,0.8l0,0c-0.1,0.1-0.4,0.1-0.5-0.1C103.6,63.1,103.6,63.1,103.6,63.1z"/>
				<path class="st7" d="M104.5,60.7l-2.1,2c-0.1,0.1-0.4,0.1-0.5-0.1c0,0,0-0.1-0.1-0.1l0,0c-0.1-0.3-0.1-0.6,0.1-0.8l2.1-2
					c0.1-0.1,0.4-0.1,0.5,0.1c0,0,0,0.1,0.1,0.1l0,0C104.7,60.2,104.7,60.5,104.5,60.7z"/>
				<path class="st11" d="M96.5,53.5l-6.6-2.2c-0.4-0.2-0.6-0.6-0.5-1.1l0,0c0.1-0.5,0.4-0.8,0.8-0.7l6.6,2.2
					c0.4,0.2,0.6,0.6,0.5,1.1l0,0C97.1,53.3,96.8,53.6,96.5,53.5z"/>
				<path class="st7" d="M111,60.5c-0.1,0.4-0.4,0.7-0.7,0.6c-0.3-0.2-0.5-0.6-0.4-1c0.1-0.4,0.4-0.7,0.7-0.6
					C110.9,59.7,111.1,60.1,111,60.5z"/>
				<path class="st11" d="M62.4,149.7c-14.5,35.3,11.3,41.9,20.1,40s14.1-22.7,11.8-46.7S83,101.2,74.2,103
					C65.4,104.9,60.2,125.7,62.4,149.7z"/>
				<g>
					<defs>
						<path id="SVGID_00000047060662112841220040000004357406126207142554_" d="M62.4,149.7c-14.5,35.3,11.3,41.9,20.1,40
							s14.1-22.7,11.8-46.7S83,101.2,74.2,103C65.4,104.9,60.2,125.7,62.4,149.7z"/>
					</defs>
					<clipPath id="SVGID_00000045619158143300241010000013094327048940376453_">
						<use xlink:href="#SVGID_00000047060662112841220040000004357406126207142554_"  style="overflow:visible;"/>
					</clipPath>
					<g style="clip-path:url(#SVGID_00000045619158143300241010000013094327048940376453_);">
						<path class="st12" d="M70.6,135c0,0.4-0.1,0.7-0.2,1.1C68.6,148.8,60,156.8,51.2,154c-1.6-0.5-3-1.3-4.3-2.4
							c1.7,3,4.3,5.2,7.3,6.3c7.4,2.4,14.7-4.4,16.3-15.2C70.9,140.2,70.9,137.6,70.6,135z"/>
					</g>
				</g>
				<path class="st11" d="M103.8,150.3c2.3,23.9,11.2,41.9,19.9,40.1c8.7-1.8,23.3-23.6,11.6-46.6c-2.3-23.9-11.2-41.9-19.9-40.1
					S101.5,126.3,103.8,150.3z"/>
				<g>
					<defs>
						<path id="SVGID_00000119108348481316919320000016498787250534323356_" d="M103.8,150.3c2.3,23.9,11.2,41.9,19.9,40.1
							c8.7-1.8,23.3-23.6,11.6-46.6c-2.3-23.9-11.2-41.9-19.9-40.1S101.5,126.3,103.8,150.3z"/>
					</defs>
					<clipPath id="SVGID_00000053544083282014928940000018317641460093748625_">
						<use xlink:href="#SVGID_00000119108348481316919320000016498787250534323356_"  style="overflow:visible;"/>
					</clipPath>
					<g style="clip-path:url(#SVGID_00000053544083282014928940000018317641460093748625_);">
						<path class="st12" d="M130.1,133.2c0,0.3-0.1,0.5-0.1,0.8c-1.4,9.4,2.6,18.7,9.1,20.8c1.1,0.4,2.3,0.5,3.4,0.4
							c-1.9,1.2-4.1,1.6-6.2,0.9c-5.5-1.8-8.9-9.6-7.7-17.6C128.9,136.6,129.4,134.9,130.1,133.2z"/>
					</g>
				</g>
				<path class="st11" d="M105.2,160.3c0,0-10.6-46.5-2.7-54.3c5.8-5.8,14.5,0,18.6-4.6L105.2,160.3z"/>
				<path class="st11" d="M94.8,159.6c0,0,4.9-43.2,0-55.2C91.2,95.6,79,90.3,79.7,87C71.8,97.5,91.2,143.2,94.8,159.6z"/>
				<polygon class="st12" points="86.8,150 90.1,145 89.3,138.1 86,143.1 				"/>
				<polygon class="st9" points="86.1,148.9 89.4,143.8 88.6,136.9 85.3,142 				"/>
				<polygon class="st12" points="75.3,170.1 66.7,170.3 68.5,164.3 77.2,164.2 				"/>
				<polygon class="st12" points="77.8,170.1 75.9,170.1 77.7,164.2 79.6,164.2 				"/>
				<polygon class="st12" points="80.6,170.1 78.7,170.1 80.5,164.1 82.4,164.1 				"/>
				<path class="st12" d="M125,162.1c0,0.1,0,0.2,0,0.3c-0.5,3.2-2.7,5.3-4.9,4.6c-0.4-0.1-0.8-0.3-1.1-0.6c0.4,0.8,1.1,1.3,1.9,1.6
					c1.9,0.6,3.8-1.1,4.2-3.9C125.1,163.4,125.1,162.8,125,162.1z"/>
				<path class="st12" d="M123.2,162.9c0.3-1.5-0.3-3-1.6-3.6c-1.1-0.4-2.2,0.7-2.5,2.3c-0.3,1.5,0.3,3,1.6,3.6
					C121.9,165.6,123,164.6,123.2,162.9z"/>
				<path class="st12" d="M81.4,131.2l-4-9.1c-0.3-0.7-0.2-1.7,0.3-2.2l0,0c0.4-0.4,1-0.3,1.3,0.1c0.1,0.1,0.1,0.2,0.2,0.4l4,9.1
					c0.3,0.7,0.2,1.7-0.3,2.2l0,0c-0.4,0.4-1,0.3-1.3-0.1C81.5,131.5,81.4,131.3,81.4,131.2z"/>
				<path class="st12" d="M84,124.3l-6.2,5.8c-0.4,0.4-1,0.3-1.3-0.1c-0.1-0.1-0.1-0.2-0.2-0.4l0,0c-0.3-0.7-0.2-1.6,0.3-2.2
					l6.2-5.8c0.4-0.4,1-0.3,1.3,0.1c0.1,0.1,0.1,0.2,0.2,0.4l0,0C84.8,122.8,84.6,123.7,84,124.3z"/>
				<path class="st10" d="M112.1,157l-2.6-5.9c-0.2-0.5-0.1-1.1,0.2-1.4l0,0c0.3-0.2,0.7-0.2,0.9,0.1c0,0.1,0.1,0.1,0.1,0.2l2.6,5.9
					c0.2,0.5,0.1,1.1-0.2,1.4l0,0c-0.3,0.2-0.7,0.2-0.9-0.2C112.1,157.1,112.1,157,112.1,157z"/>
				<path class="st10" d="M113.8,152.5l-4,3.7c-0.3,0.2-0.7,0.2-0.9-0.2c0,0-0.1-0.1-0.1-0.2l0,0c-0.2-0.5-0.1-1.1,0.2-1.4l4-3.7
					c0.3-0.2,0.7-0.2,0.9,0.1c0,0.1,0.1,0.1,0.1,0.2l0,0C114.2,151.5,114.1,152.1,113.8,152.5z"/>
				<path class="st12" d="M98,175.6l-2.1-8.7c-0.2-0.8-0.8-1.2-1.3-1l0,0c-0.6,0.4-0.9,1.2-0.7,2l2.1,8.7c0.2,0.8,0.8,1.2,1.3,1l0,0
					C97.9,177.2,98.2,176.4,98,175.6z M95.7,172.9c-0.1-0.4,0-0.7,0.3-0.9c0.3-0.1,0.5,0.1,0.6,0.5l0.7,3.1c0.1,0.4,0,0.7-0.3,0.9
					c-0.3,0.1-0.5-0.1-0.6-0.5L95.7,172.9z"/>
				<path class="st9" d="M78.6,88.2c-0.6,4.4-0.5,9,0.4,13.3c0.2,1.1,0.6,3,0.8,4.1l-1.3-1.5c-3.5-4-8.1-4.1-11.5,0.3
					c-0.8,1-1.6,2.1-2.3,3.2l-2.3,3.6c-1.3,2.1-3.3,5-4.6,7.1c0.3-0.7,0.6-1.4,0.9-2c1.6-3.2,3.4-6.5,5.1-9.6
					c2.9-5.7,7.4-9.2,12.3-6.4c1.1,0.7,2.2,1.6,3,2.6l-0.9,0.8C77.4,98.7,77.2,93.1,78.6,88.2L78.6,88.2z"/>
			</g>
		</g>
		
			<linearGradient id="SVGID_00000036232248688244919280000009901303564006687123_" gradientUnits="userSpaceOnUse" x1="-3.2148" y1="86.4388" x2="215.2148" y2="88.5655" gradientTransform="matrix(1 0 0 -1 0 186)">
			<stop  offset="0" style="stop-color:#00253F"/>
			<stop  offset="0.52" style="stop-color:#7DD6F8"/>
			<stop  offset="1" style="stop-color:#4FB9F2"/>
		</linearGradient>
		
			<path style="fill:none;stroke:url(#SVGID_00000036232248688244919280000009901303564006687123_);stroke-width:2;stroke-miterlimit:10;" d="
			M-1.6,166.1C-1.3,120.9-1,75.6-0.7,30.4c0.1-16.5,12-29.8,26.6-29.8H187c14.7,0,26.6,13.4,26.6,30c0,0.1,0,0.2,0,0.4l-1.3,135.8
			c-0.2,16.5-12,29.7-26.6,29.7H25c-14.7,0-26.6-13.5-26.6-30.1C-1.6,166.3-1.6,166.2-1.6,166.1z"/>
	</g>
</g>
</svg>
